<?xml version="1.0" encoding="utf-8" standalone="no"?>
<!DOCTYPE svg PUBLIC "-//W3C//DTD SVG 1.1//EN"
  "http://www.w3.org/Graphics/SVG/1.1/DTD/svg11.dtd">
<svg xmlns:xlink="http://www.w3.org/1999/xlink" width="576pt" height="486pt" viewBox="0 0 576 486" xmlns="http://www.w3.org/2000/svg" version="1.1">
 <metadata>
  <rdf:RDF xmlns:dc="http://purl.org/dc/elements/1.1/" xmlns:cc="http://creativecommons.org/ns#" xmlns:rdf="http://www.w3.org/1999/02/22-rdf-syntax-ns#">
   <cc:Work>
    <dc:type rdf:resource="http://purl.org/dc/dcmitype/StillImage"/>
    <dc:date>2024-12-30T22:25:55.099025</dc:date>
    <dc:format>image/svg+xml</dc:format>
    <dc:creator>
     <cc:Agent>
      <dc:title>Matplotlib v3.10.0, https://matplotlib.org/</dc:title>
     </cc:Agent>
    </dc:creator>
   </cc:Work>
  </rdf:RDF>
 </metadata>
 <defs>
  <style type="text/css">*{stroke-linejoin: round; stroke-linecap: butt}</style>
 </defs>
 <g id="figure_1">
  <g id="patch_1">
   <path d="M 0 486 
L 576 486 
L 576 0 
L 0 0 
z
" style="fill: #ffffff"/>
  </g>
  <g id="axes_1">
   <g id="patch_2">
    <path d="M 40.82 129.83 
L 276.48 129.83 
L 276.48 27.6 
L 40.82 27.6 
z
" style="fill: #ffffff"/>
   </g>
   <g id="matplotlib.axis_1">
    <g id="xtick_1">
     <g id="text_1">
      <!-- -4.0 -->
      <g style="fill: #262626" transform="translate(43.663672 158.282656) rotate(-90) scale(0.11 -0.11)">
       <defs>
        <path id="ArialMT-2d" d="M 203 1375 
L 203 1941 
L 1931 1941 
L 1931 1375 
L 203 1375 
z
" transform="scale(0.015625)"/>
        <path id="ArialMT-34" d="M 2069 0 
L 2069 1097 
L 81 1097 
L 81 1613 
L 2172 4581 
L 2631 4581 
L 2631 1613 
L 3250 1613 
L 3250 1097 
L 2631 1097 
L 2631 0 
L 2069 0 
z
M 2069 1613 
L 2069 3678 
L 634 1613 
L 2069 1613 
z
" transform="scale(0.015625)"/>
        <path id="ArialMT-2e" d="M 581 0 
L 581 641 
L 1222 641 
L 1222 0 
L 581 0 
z
" transform="scale(0.015625)"/>
        <path id="ArialMT-30" d="M 266 2259 
Q 266 3072 433 3567 
Q 600 4063 929 4331 
Q 1259 4600 1759 4600 
Q 2128 4600 2406 4451 
Q 2684 4303 2865 4023 
Q 3047 3744 3150 3342 
Q 3253 2941 3253 2259 
Q 3253 1453 3087 958 
Q 2922 463 2592 192 
Q 2263 -78 1759 -78 
Q 1097 -78 719 397 
Q 266 969 266 2259 
z
M 844 2259 
Q 844 1131 1108 757 
Q 1372 384 1759 384 
Q 2147 384 2411 759 
Q 2675 1134 2675 2259 
Q 2675 3391 2411 3762 
Q 2147 4134 1753 4134 
Q 1366 4134 1134 3806 
Q 844 3388 844 2259 
z
" transform="scale(0.015625)"/>
       </defs>
       <use xlink:href="#ArialMT-2d"/>
       <use xlink:href="#ArialMT-34" transform="translate(33.300781 0)"/>
       <use xlink:href="#ArialMT-2e" transform="translate(88.916016 0)"/>
       <use xlink:href="#ArialMT-30" transform="translate(116.699219 0)"/>
      </g>
     </g>
    </g>
    <g id="xtick_2">
     <g id="text_2">
      <!-- -3.0 -->
      <g style="fill: #262626" transform="translate(73.121172 158.282656) rotate(-90) scale(0.11 -0.11)">
       <defs>
        <path id="ArialMT-33" d="M 269 1209 
L 831 1284 
Q 928 806 1161 595 
Q 1394 384 1728 384 
Q 2125 384 2398 659 
Q 2672 934 2672 1341 
Q 2672 1728 2419 1979 
Q 2166 2231 1775 2231 
Q 1616 2231 1378 2169 
L 1441 2663 
Q 1497 2656 1531 2656 
Q 1891 2656 2178 2843 
Q 2466 3031 2466 3422 
Q 2466 3731 2256 3934 
Q 2047 4138 1716 4138 
Q 1388 4138 1169 3931 
Q 950 3725 888 3313 
L 325 3413 
Q 428 3978 793 4289 
Q 1159 4600 1703 4600 
Q 2078 4600 2393 4439 
Q 2709 4278 2876 4000 
Q 3044 3722 3044 3409 
Q 3044 3113 2884 2869 
Q 2725 2625 2413 2481 
Q 2819 2388 3044 2092 
Q 3269 1797 3269 1353 
Q 3269 753 2831 336 
Q 2394 -81 1725 -81 
Q 1122 -81 723 278 
Q 325 638 269 1209 
z
" transform="scale(0.015625)"/>
       </defs>
       <use xlink:href="#ArialMT-2d"/>
       <use xlink:href="#ArialMT-33" transform="translate(33.300781 0)"/>
       <use xlink:href="#ArialMT-2e" transform="translate(88.916016 0)"/>
       <use xlink:href="#ArialMT-30" transform="translate(116.699219 0)"/>
      </g>
     </g>
    </g>
    <g id="xtick_3">
     <g id="text_3">
      <!-- -2.0 -->
      <g style="fill: #262626" transform="translate(102.578672 158.282656) rotate(-90) scale(0.11 -0.11)">
       <defs>
        <path id="ArialMT-32" d="M 3222 541 
L 3222 0 
L 194 0 
Q 188 203 259 391 
Q 375 700 629 1000 
Q 884 1300 1366 1694 
Q 2113 2306 2375 2664 
Q 2638 3022 2638 3341 
Q 2638 3675 2398 3904 
Q 2159 4134 1775 4134 
Q 1369 4134 1125 3890 
Q 881 3647 878 3216 
L 300 3275 
Q 359 3922 746 4261 
Q 1134 4600 1788 4600 
Q 2447 4600 2831 4234 
Q 3216 3869 3216 3328 
Q 3216 3053 3103 2787 
Q 2991 2522 2730 2228 
Q 2469 1934 1863 1422 
Q 1356 997 1212 845 
Q 1069 694 975 541 
L 3222 541 
z
" transform="scale(0.015625)"/>
       </defs>
       <use xlink:href="#ArialMT-2d"/>
       <use xlink:href="#ArialMT-32" transform="translate(33.300781 0)"/>
       <use xlink:href="#ArialMT-2e" transform="translate(88.916016 0)"/>
       <use xlink:href="#ArialMT-30" transform="translate(116.699219 0)"/>
      </g>
     </g>
    </g>
    <g id="xtick_4">
     <g id="text_4">
      <!-- -1.0 -->
      <g style="fill: #262626" transform="translate(132.036172 158.282656) rotate(-90) scale(0.11 -0.11)">
       <defs>
        <path id="ArialMT-31" d="M 2384 0 
L 1822 0 
L 1822 3584 
Q 1619 3391 1289 3197 
Q 959 3003 697 2906 
L 697 3450 
Q 1169 3672 1522 3987 
Q 1875 4303 2022 4600 
L 2384 4600 
L 2384 0 
z
" transform="scale(0.015625)"/>
       </defs>
       <use xlink:href="#ArialMT-2d"/>
       <use xlink:href="#ArialMT-31" transform="translate(33.300781 0)"/>
       <use xlink:href="#ArialMT-2e" transform="translate(88.916016 0)"/>
       <use xlink:href="#ArialMT-30" transform="translate(116.699219 0)"/>
      </g>
     </g>
    </g>
    <g id="xtick_5">
     <g id="text_5">
      <!-- 0.0 -->
      <g style="fill: #262626" transform="translate(161.493672 154.62) rotate(-90) scale(0.11 -0.11)">
       <use xlink:href="#ArialMT-30"/>
       <use xlink:href="#ArialMT-2e" transform="translate(55.615234 0)"/>
       <use xlink:href="#ArialMT-30" transform="translate(83.398438 0)"/>
      </g>
     </g>
    </g>
    <g id="xtick_6">
     <g id="text_6">
      <!-- 1.0 -->
      <g style="fill: #262626" transform="translate(190.951172 154.62) rotate(-90) scale(0.11 -0.11)">
       <use xlink:href="#ArialMT-31"/>
       <use xlink:href="#ArialMT-2e" transform="translate(55.615234 0)"/>
       <use xlink:href="#ArialMT-30" transform="translate(83.398438 0)"/>
      </g>
     </g>
    </g>
    <g id="xtick_7">
     <g id="text_7">
      <!-- 2.0 -->
      <g style="fill: #262626" transform="translate(220.408672 154.62) rotate(-90) scale(0.11 -0.11)">
       <use xlink:href="#ArialMT-32"/>
       <use xlink:href="#ArialMT-2e" transform="translate(55.615234 0)"/>
       <use xlink:href="#ArialMT-30" transform="translate(83.398438 0)"/>
      </g>
     </g>
    </g>
    <g id="xtick_8">
     <g id="text_8">
      <!-- 3.0 -->
      <g style="fill: #262626" transform="translate(249.866172 154.62) rotate(-90) scale(0.11 -0.11)">
       <use xlink:href="#ArialMT-33"/>
       <use xlink:href="#ArialMT-2e" transform="translate(55.615234 0)"/>
       <use xlink:href="#ArialMT-30" transform="translate(83.398438 0)"/>
      </g>
     </g>
    </g>
    <g id="xtick_9">
     <g id="text_9">
      <!-- 4.0 -->
      <g style="fill: #262626" transform="translate(279.323672 154.62) rotate(-90) scale(0.11 -0.11)">
       <use xlink:href="#ArialMT-34"/>
       <use xlink:href="#ArialMT-2e" transform="translate(55.615234 0)"/>
       <use xlink:href="#ArialMT-30" transform="translate(83.398438 0)"/>
      </g>
     </g>
    </g>
   </g>
   <g id="matplotlib.axis_2">
    <g id="ytick_1">
     <g id="text_10">
      <!-- 0 -->
      <g style="fill: #262626" transform="translate(25.202969 133.766797) scale(0.11 -0.11)">
       <use xlink:href="#ArialMT-30"/>
      </g>
     </g>
    </g>
    <g id="ytick_2">
     <g id="text_11">
      <!-- 50 -->
      <g style="fill: #262626" transform="translate(19.085938 96.029624) scale(0.11 -0.11)">
       <defs>
        <path id="ArialMT-35" d="M 266 1200 
L 856 1250 
Q 922 819 1161 601 
Q 1400 384 1738 384 
Q 2144 384 2425 690 
Q 2706 997 2706 1503 
Q 2706 1984 2436 2262 
Q 2166 2541 1728 2541 
Q 1456 2541 1237 2417 
Q 1019 2294 894 2097 
L 366 2166 
L 809 4519 
L 3088 4519 
L 3088 3981 
L 1259 3981 
L 1013 2750 
Q 1425 3038 1878 3038 
Q 2478 3038 2890 2622 
Q 3303 2206 3303 1553 
Q 3303 931 2941 478 
Q 2500 -78 1738 -78 
Q 1113 -78 717 272 
Q 322 622 266 1200 
z
" transform="scale(0.015625)"/>
       </defs>
       <use xlink:href="#ArialMT-35"/>
       <use xlink:href="#ArialMT-30" transform="translate(55.615234 0)"/>
      </g>
     </g>
    </g>
    <g id="ytick_3">
     <g id="text_12">
      <!-- 100 -->
      <g style="fill: #262626" transform="translate(12.968906 58.292452) scale(0.11 -0.11)">
       <use xlink:href="#ArialMT-31"/>
       <use xlink:href="#ArialMT-30" transform="translate(55.615234 0)"/>
       <use xlink:href="#ArialMT-30" transform="translate(111.230469 0)"/>
      </g>
     </g>
    </g>
   </g>
   <g id="patch_3">
    <path d="M 69.312612 129.83 
L 76.614184 129.83 
L 76.614184 128.320513 
L 69.312612 128.320513 
z
" clip-path="url(#pf17ed93dc8)" style="fill: #808080; opacity: 0.4; stroke: #ffffff; stroke-linejoin: miter"/>
   </g>
   <g id="patch_4">
    <path d="M 76.614184 129.83 
L 83.915756 129.83 
L 83.915756 126.811026 
L 76.614184 126.811026 
z
" clip-path="url(#pf17ed93dc8)" style="fill: #808080; opacity: 0.4; stroke: #ffffff; stroke-linejoin: miter"/>
   </g>
   <g id="patch_5">
    <path d="M 83.915756 129.83 
L 91.217327 129.83 
L 91.217327 125.301539 
L 83.915756 125.301539 
z
" clip-path="url(#pf17ed93dc8)" style="fill: #808080; opacity: 0.4; stroke: #ffffff; stroke-linejoin: miter"/>
   </g>
   <g id="patch_6">
    <path d="M 91.217327 129.83 
L 98.518899 129.83 
L 98.518899 120.018335 
L 91.217327 120.018335 
z
" clip-path="url(#pf17ed93dc8)" style="fill: #808080; opacity: 0.4; stroke: #ffffff; stroke-linejoin: miter"/>
   </g>
   <g id="patch_7">
    <path d="M 98.518899 129.83 
L 105.820471 129.83 
L 105.820471 113.980388 
L 98.518899 113.980388 
z
" clip-path="url(#pf17ed93dc8)" style="fill: #808080; opacity: 0.4; stroke: #ffffff; stroke-linejoin: miter"/>
   </g>
   <g id="patch_8">
    <path d="M 105.820471 129.83 
L 113.122043 129.83 
L 113.122043 112.470901 
L 105.820471 112.470901 
z
" clip-path="url(#pf17ed93dc8)" style="fill: #808080; opacity: 0.4; stroke: #ffffff; stroke-linejoin: miter"/>
   </g>
   <g id="patch_9">
    <path d="M 113.122043 129.83 
L 120.423615 129.83 
L 120.423615 94.357058 
L 113.122043 94.357058 
z
" clip-path="url(#pf17ed93dc8)" style="fill: #808080; opacity: 0.4; stroke: #ffffff; stroke-linejoin: miter"/>
   </g>
   <g id="patch_10">
    <path d="M 120.423615 129.83 
L 127.725187 129.83 
L 127.725187 88.31911 
L 120.423615 88.31911 
z
" clip-path="url(#pf17ed93dc8)" style="fill: #808080; opacity: 0.4; stroke: #ffffff; stroke-linejoin: miter"/>
   </g>
   <g id="patch_11">
    <path d="M 127.725187 129.83 
L 135.026759 129.83 
L 135.026759 68.695781 
L 127.725187 68.695781 
z
" clip-path="url(#pf17ed93dc8)" style="fill: #808080; opacity: 0.4; stroke: #ffffff; stroke-linejoin: miter"/>
   </g>
   <g id="patch_12">
    <path d="M 135.026759 129.83 
L 142.328331 129.83 
L 142.328331 49.827195 
L 135.026759 49.827195 
z
" clip-path="url(#pf17ed93dc8)" style="fill: #808080; opacity: 0.4; stroke: #ffffff; stroke-linejoin: miter"/>
   </g>
   <g id="patch_13">
    <path d="M 142.328331 129.83 
L 149.629902 129.83 
L 149.629902 52.091425 
L 142.328331 52.091425 
z
" clip-path="url(#pf17ed93dc8)" style="fill: #808080; opacity: 0.4; stroke: #ffffff; stroke-linejoin: miter"/>
   </g>
   <g id="patch_14">
    <path d="M 149.629902 129.83 
L 156.931474 129.83 
L 156.931474 45.298734 
L 149.629902 45.298734 
z
" clip-path="url(#pf17ed93dc8)" style="fill: #808080; opacity: 0.4; stroke: #ffffff; stroke-linejoin: miter"/>
   </g>
   <g id="patch_15">
    <path d="M 156.931474 129.83 
L 164.233046 129.83 
L 164.233046 49.072451 
L 156.931474 49.072451 
z
" clip-path="url(#pf17ed93dc8)" style="fill: #808080; opacity: 0.4; stroke: #ffffff; stroke-linejoin: miter"/>
   </g>
   <g id="patch_16">
    <path d="M 164.233046 129.83 
L 171.534618 129.83 
L 171.534618 32.468095 
L 164.233046 32.468095 
z
" clip-path="url(#pf17ed93dc8)" style="fill: #808080; opacity: 0.4; stroke: #ffffff; stroke-linejoin: miter"/>
   </g>
   <g id="patch_17">
    <path d="M 171.534618 129.83 
L 178.83619 129.83 
L 178.83619 55.865142 
L 171.534618 55.865142 
z
" clip-path="url(#pf17ed93dc8)" style="fill: #808080; opacity: 0.4; stroke: #ffffff; stroke-linejoin: miter"/>
   </g>
   <g id="patch_18">
    <path d="M 178.83619 129.83 
L 186.137762 129.83 
L 186.137762 62.657833 
L 178.83619 62.657833 
z
" clip-path="url(#pf17ed93dc8)" style="fill: #808080; opacity: 0.4; stroke: #ffffff; stroke-linejoin: miter"/>
   </g>
   <g id="patch_19">
    <path d="M 186.137762 129.83 
L 193.439334 129.83 
L 193.439334 88.31911 
L 186.137762 88.31911 
z
" clip-path="url(#pf17ed93dc8)" style="fill: #808080; opacity: 0.4; stroke: #ffffff; stroke-linejoin: miter"/>
   </g>
   <g id="patch_20">
    <path d="M 193.439334 129.83 
L 200.740906 129.83 
L 200.740906 94.357058 
L 193.439334 94.357058 
z
" clip-path="url(#pf17ed93dc8)" style="fill: #808080; opacity: 0.4; stroke: #ffffff; stroke-linejoin: miter"/>
   </g>
   <g id="patch_21">
    <path d="M 200.740906 129.83 
L 208.042478 129.83 
L 208.042478 106.432953 
L 200.740906 106.432953 
z
" clip-path="url(#pf17ed93dc8)" style="fill: #808080; opacity: 0.4; stroke: #ffffff; stroke-linejoin: miter"/>
   </g>
   <g id="patch_22">
    <path d="M 208.042478 129.83 
L 215.344049 129.83 
L 215.344049 108.697183 
L 208.042478 108.697183 
z
" clip-path="url(#pf17ed93dc8)" style="fill: #808080; opacity: 0.4; stroke: #ffffff; stroke-linejoin: miter"/>
   </g>
   <g id="patch_23">
    <path d="M 215.344049 129.83 
L 222.645621 129.83 
L 222.645621 117.754105 
L 215.344049 117.754105 
z
" clip-path="url(#pf17ed93dc8)" style="fill: #808080; opacity: 0.4; stroke: #ffffff; stroke-linejoin: miter"/>
   </g>
   <g id="patch_24">
    <path d="M 222.645621 129.83 
L 229.947193 129.83 
L 229.947193 120.018335 
L 222.645621 120.018335 
z
" clip-path="url(#pf17ed93dc8)" style="fill: #808080; opacity: 0.4; stroke: #ffffff; stroke-linejoin: miter"/>
   </g>
   <g id="patch_25">
    <path d="M 229.947193 129.83 
L 237.248765 129.83 
L 237.248765 126.811026 
L 229.947193 126.811026 
z
" clip-path="url(#pf17ed93dc8)" style="fill: #808080; opacity: 0.4; stroke: #ffffff; stroke-linejoin: miter"/>
   </g>
   <g id="patch_26">
    <path d="M 237.248765 129.83 
L 244.550337 129.83 
L 244.550337 126.811026 
L 237.248765 126.811026 
z
" clip-path="url(#pf17ed93dc8)" style="fill: #808080; opacity: 0.4; stroke: #ffffff; stroke-linejoin: miter"/>
   </g>
   <g id="patch_27">
    <path d="M 244.550337 129.83 
L 251.851909 129.83 
L 251.851909 129.075257 
L 244.550337 129.075257 
z
" clip-path="url(#pf17ed93dc8)" style="fill: #808080; opacity: 0.4; stroke: #ffffff; stroke-linejoin: miter"/>
   </g>
   <g id="patch_28">
    <path d="M 40.82 129.83 
L 40.82 27.6 
" style="fill: none; stroke: #262626; stroke-width: 1.25; stroke-linejoin: miter; stroke-linecap: square"/>
   </g>
   <g id="patch_29">
    <path d="M 40.82 129.83 
L 276.48 129.83 
" style="fill: none; stroke: #262626; stroke-width: 1.25; stroke-linejoin: miter; stroke-linecap: square"/>
   </g>
   <g id="text_13">
    <!-- %FUNC -->
    <g style="fill: #262626" transform="translate(136.650625 21.6) scale(0.12 -0.12)">
     <defs>
      <path id="ArialMT-25" d="M 372 3481 
Q 372 3972 619 4315 
Q 866 4659 1334 4659 
Q 1766 4659 2048 4351 
Q 2331 4044 2331 3447 
Q 2331 2866 2045 2552 
Q 1759 2238 1341 2238 
Q 925 2238 648 2547 
Q 372 2856 372 3481 
z
M 1350 4272 
Q 1141 4272 1002 4090 
Q 863 3909 863 3425 
Q 863 2984 1003 2804 
Q 1144 2625 1350 2625 
Q 1563 2625 1702 2806 
Q 1841 2988 1841 3469 
Q 1841 3913 1700 4092 
Q 1559 4272 1350 4272 
z
M 1353 -169 
L 3859 4659 
L 4316 4659 
L 1819 -169 
L 1353 -169 
z
M 3334 1075 
Q 3334 1569 3581 1911 
Q 3828 2253 4300 2253 
Q 4731 2253 5014 1945 
Q 5297 1638 5297 1041 
Q 5297 459 5011 145 
Q 4725 -169 4303 -169 
Q 3888 -169 3611 142 
Q 3334 453 3334 1075 
z
M 4316 1866 
Q 4103 1866 3964 1684 
Q 3825 1503 3825 1019 
Q 3825 581 3965 400 
Q 4106 219 4313 219 
Q 4528 219 4667 400 
Q 4806 581 4806 1063 
Q 4806 1506 4665 1686 
Q 4525 1866 4316 1866 
z
" transform="scale(0.015625)"/>
      <path id="ArialMT-46" d="M 525 0 
L 525 4581 
L 3616 4581 
L 3616 4041 
L 1131 4041 
L 1131 2622 
L 3281 2622 
L 3281 2081 
L 1131 2081 
L 1131 0 
L 525 0 
z
" transform="scale(0.015625)"/>
      <path id="ArialMT-55" d="M 3500 4581 
L 4106 4581 
L 4106 1934 
Q 4106 1244 3950 837 
Q 3794 431 3386 176 
Q 2978 -78 2316 -78 
Q 1672 -78 1262 144 
Q 853 366 678 786 
Q 503 1206 503 1934 
L 503 4581 
L 1109 4581 
L 1109 1938 
Q 1109 1341 1220 1058 
Q 1331 775 1601 622 
Q 1872 469 2263 469 
Q 2931 469 3215 772 
Q 3500 1075 3500 1938 
L 3500 4581 
z
" transform="scale(0.015625)"/>
      <path id="ArialMT-4e" d="M 488 0 
L 488 4581 
L 1109 4581 
L 3516 984 
L 3516 4581 
L 4097 4581 
L 4097 0 
L 3475 0 
L 1069 3600 
L 1069 0 
L 488 0 
z
" transform="scale(0.015625)"/>
      <path id="ArialMT-43" d="M 3763 1606 
L 4369 1453 
Q 4178 706 3683 314 
Q 3188 -78 2472 -78 
Q 1731 -78 1267 223 
Q 803 525 561 1097 
Q 319 1669 319 2325 
Q 319 3041 592 3573 
Q 866 4106 1370 4382 
Q 1875 4659 2481 4659 
Q 3169 4659 3637 4309 
Q 4106 3959 4291 3325 
L 3694 3184 
Q 3534 3684 3231 3912 
Q 2928 4141 2469 4141 
Q 1941 4141 1586 3887 
Q 1231 3634 1087 3207 
Q 944 2781 944 2328 
Q 944 1744 1114 1308 
Q 1284 872 1643 656 
Q 2003 441 2422 441 
Q 2931 441 3284 734 
Q 3638 1028 3763 1606 
z
" transform="scale(0.015625)"/>
     </defs>
     <use xlink:href="#ArialMT-25"/>
     <use xlink:href="#ArialMT-46" transform="translate(88.916016 0)"/>
     <use xlink:href="#ArialMT-55" transform="translate(150 0)"/>
     <use xlink:href="#ArialMT-4e" transform="translate(222.216797 0)"/>
     <use xlink:href="#ArialMT-43" transform="translate(294.433594 0)"/>
    </g>
   </g>
  </g>
  <g id="axes_2">
   <g id="patch_30">
    <path d="M 322.34 129.83 
L 558 129.83 
L 558 27.6 
L 322.34 27.6 
z
" style="fill: #ffffff"/>
   </g>
   <g id="matplotlib.axis_3">
    <g id="xtick_10">
     <g id="text_14">
      <!-- -2.0 -->
      <g style="fill: #262626" transform="translate(325.183672 158.282656) rotate(-90) scale(0.11 -0.11)">
       <use xlink:href="#ArialMT-2d"/>
       <use xlink:href="#ArialMT-32" transform="translate(33.300781 0)"/>
       <use xlink:href="#ArialMT-2e" transform="translate(88.916016 0)"/>
       <use xlink:href="#ArialMT-30" transform="translate(116.699219 0)"/>
      </g>
     </g>
    </g>
    <g id="xtick_11">
     <g id="text_15">
      <!-- -1.0 -->
      <g style="fill: #262626" transform="translate(358.849386 158.282656) rotate(-90) scale(0.11 -0.11)">
       <use xlink:href="#ArialMT-2d"/>
       <use xlink:href="#ArialMT-31" transform="translate(33.300781 0)"/>
       <use xlink:href="#ArialMT-2e" transform="translate(88.916016 0)"/>
       <use xlink:href="#ArialMT-30" transform="translate(116.699219 0)"/>
      </g>
     </g>
    </g>
    <g id="xtick_12">
     <g id="text_16">
      <!-- 0.0 -->
      <g style="fill: #262626" transform="translate(392.5151 154.62) rotate(-90) scale(0.11 -0.11)">
       <use xlink:href="#ArialMT-30"/>
       <use xlink:href="#ArialMT-2e" transform="translate(55.615234 0)"/>
       <use xlink:href="#ArialMT-30" transform="translate(83.398438 0)"/>
      </g>
     </g>
    </g>
    <g id="xtick_13">
     <g id="text_17">
      <!-- 1.0 -->
      <g style="fill: #262626" transform="translate(426.180815 154.62) rotate(-90) scale(0.11 -0.11)">
       <use xlink:href="#ArialMT-31"/>
       <use xlink:href="#ArialMT-2e" transform="translate(55.615234 0)"/>
       <use xlink:href="#ArialMT-30" transform="translate(83.398438 0)"/>
      </g>
     </g>
    </g>
    <g id="xtick_14">
     <g id="text_18">
      <!-- 2.0 -->
      <g style="fill: #262626" transform="translate(459.846529 154.62) rotate(-90) scale(0.11 -0.11)">
       <use xlink:href="#ArialMT-32"/>
       <use xlink:href="#ArialMT-2e" transform="translate(55.615234 0)"/>
       <use xlink:href="#ArialMT-30" transform="translate(83.398438 0)"/>
      </g>
     </g>
    </g>
    <g id="xtick_15">
     <g id="text_19">
      <!-- 3.0 -->
      <g style="fill: #262626" transform="translate(493.512243 154.62) rotate(-90) scale(0.11 -0.11)">
       <use xlink:href="#ArialMT-33"/>
       <use xlink:href="#ArialMT-2e" transform="translate(55.615234 0)"/>
       <use xlink:href="#ArialMT-30" transform="translate(83.398438 0)"/>
      </g>
     </g>
    </g>
    <g id="xtick_16">
     <g id="text_20">
      <!-- 4.0 -->
      <g style="fill: #262626" transform="translate(527.177958 154.62) rotate(-90) scale(0.11 -0.11)">
       <use xlink:href="#ArialMT-34"/>
       <use xlink:href="#ArialMT-2e" transform="translate(55.615234 0)"/>
       <use xlink:href="#ArialMT-30" transform="translate(83.398438 0)"/>
      </g>
     </g>
    </g>
    <g id="xtick_17">
     <g id="text_21">
      <!-- 5.0 -->
      <g style="fill: #262626" transform="translate(560.843672 154.62) rotate(-90) scale(0.11 -0.11)">
       <use xlink:href="#ArialMT-35"/>
       <use xlink:href="#ArialMT-2e" transform="translate(55.615234 0)"/>
       <use xlink:href="#ArialMT-30" transform="translate(83.398438 0)"/>
      </g>
     </g>
    </g>
   </g>
   <g id="matplotlib.axis_4">
    <g id="ytick_4">
     <g id="text_22">
      <!-- 0 -->
      <g style="fill: #262626" transform="translate(306.722969 133.766797) scale(0.11 -0.11)">
       <use xlink:href="#ArialMT-30"/>
      </g>
     </g>
    </g>
    <g id="ytick_5">
     <g id="text_23">
      <!-- 50 -->
      <g style="fill: #262626" transform="translate(300.605937 96.887287) scale(0.11 -0.11)">
       <use xlink:href="#ArialMT-35"/>
       <use xlink:href="#ArialMT-30" transform="translate(55.615234 0)"/>
      </g>
     </g>
    </g>
    <g id="ytick_6">
     <g id="text_24">
      <!-- 100 -->
      <g style="fill: #262626" transform="translate(294.488906 60.007778) scale(0.11 -0.11)">
       <use xlink:href="#ArialMT-31"/>
       <use xlink:href="#ArialMT-30" transform="translate(55.615234 0)"/>
       <use xlink:href="#ArialMT-30" transform="translate(111.230469 0)"/>
      </g>
     </g>
    </g>
   </g>
   <g id="patch_31">
    <path d="M 338.507583 129.83 
L 345.547075 129.83 
L 345.547075 109.177475 
L 338.507583 109.177475 
z
" clip-path="url(#pa51b8445df)" style="fill: #808080; opacity: 0.4; stroke: #ffffff; stroke-linejoin: miter"/>
   </g>
   <g id="patch_32">
    <path d="M 345.547075 129.83 
L 352.586568 129.83 
L 352.586568 85.574589 
L 345.547075 85.574589 
z
" clip-path="url(#pa51b8445df)" style="fill: #808080; opacity: 0.4; stroke: #ffffff; stroke-linejoin: miter"/>
   </g>
   <g id="patch_33">
    <path d="M 352.586568 129.83 
L 359.62606 129.83 
L 359.62606 64.922063 
L 352.586568 64.922063 
z
" clip-path="url(#pa51b8445df)" style="fill: #808080; opacity: 0.4; stroke: #ffffff; stroke-linejoin: miter"/>
   </g>
   <g id="patch_34">
    <path d="M 359.62606 129.83 
L 366.665552 129.83 
L 366.665552 34.680866 
L 359.62606 34.680866 
z
" clip-path="url(#pa51b8445df)" style="fill: #808080; opacity: 0.4; stroke: #ffffff; stroke-linejoin: miter"/>
   </g>
   <g id="patch_35">
    <path d="M 366.665552 129.83 
L 373.705045 129.83 
L 373.705045 44.269538 
L 366.665552 44.269538 
z
" clip-path="url(#pa51b8445df)" style="fill: #808080; opacity: 0.4; stroke: #ffffff; stroke-linejoin: miter"/>
   </g>
   <g id="patch_36">
    <path d="M 373.705045 129.83 
L 380.744537 129.83 
L 380.744537 34.680866 
L 373.705045 34.680866 
z
" clip-path="url(#pa51b8445df)" style="fill: #808080; opacity: 0.4; stroke: #ffffff; stroke-linejoin: miter"/>
   </g>
   <g id="patch_37">
    <path d="M 380.744537 129.83 
L 387.784029 129.83 
L 387.784029 32.468095 
L 380.744537 32.468095 
z
" clip-path="url(#pa51b8445df)" style="fill: #808080; opacity: 0.4; stroke: #ffffff; stroke-linejoin: miter"/>
   </g>
   <g id="patch_38">
    <path d="M 387.784029 129.83 
L 394.823522 129.83 
L 394.823522 52.38303 
L 387.784029 52.38303 
z
" clip-path="url(#pa51b8445df)" style="fill: #808080; opacity: 0.4; stroke: #ffffff; stroke-linejoin: miter"/>
   </g>
   <g id="patch_39">
    <path d="M 394.823522 129.83 
L 401.863014 129.83 
L 401.863014 64.922063 
L 394.823522 64.922063 
z
" clip-path="url(#pa51b8445df)" style="fill: #808080; opacity: 0.4; stroke: #ffffff; stroke-linejoin: miter"/>
   </g>
   <g id="patch_40">
    <path d="M 401.863014 129.83 
L 408.902506 129.83 
L 408.902506 81.149048 
L 401.863014 81.149048 
z
" clip-path="url(#pa51b8445df)" style="fill: #808080; opacity: 0.4; stroke: #ffffff; stroke-linejoin: miter"/>
   </g>
   <g id="patch_41">
    <path d="M 408.902506 129.83 
L 415.941999 129.83 
L 415.941999 87.787359 
L 408.902506 87.787359 
z
" clip-path="url(#pa51b8445df)" style="fill: #808080; opacity: 0.4; stroke: #ffffff; stroke-linejoin: miter"/>
   </g>
   <g id="patch_42">
    <path d="M 415.941999 129.83 
L 422.981491 129.83 
L 422.981491 102.539163 
L 415.941999 102.539163 
z
" clip-path="url(#pa51b8445df)" style="fill: #808080; opacity: 0.4; stroke: #ffffff; stroke-linejoin: miter"/>
   </g>
   <g id="patch_43">
    <path d="M 422.981491 129.83 
L 430.020983 129.83 
L 430.020983 106.227114 
L 422.981491 106.227114 
z
" clip-path="url(#pa51b8445df)" style="fill: #808080; opacity: 0.4; stroke: #ffffff; stroke-linejoin: miter"/>
   </g>
   <g id="patch_44">
    <path d="M 430.020983 129.83 
L 437.060476 129.83 
L 437.060476 112.127835 
L 430.020983 112.127835 
z
" clip-path="url(#pa51b8445df)" style="fill: #808080; opacity: 0.4; stroke: #ffffff; stroke-linejoin: miter"/>
   </g>
   <g id="patch_45">
    <path d="M 437.060476 129.83 
L 444.099968 129.83 
L 444.099968 114.340606 
L 437.060476 114.340606 
z
" clip-path="url(#pa51b8445df)" style="fill: #808080; opacity: 0.4; stroke: #ffffff; stroke-linejoin: miter"/>
   </g>
   <g id="patch_46">
    <path d="M 444.099968 129.83 
L 451.13946 129.83 
L 451.13946 116.553377 
L 444.099968 116.553377 
z
" clip-path="url(#pa51b8445df)" style="fill: #808080; opacity: 0.4; stroke: #ffffff; stroke-linejoin: miter"/>
   </g>
   <g id="patch_47">
    <path d="M 451.13946 129.83 
L 458.178952 129.83 
L 458.178952 118.766147 
L 451.13946 118.766147 
z
" clip-path="url(#pa51b8445df)" style="fill: #808080; opacity: 0.4; stroke: #ffffff; stroke-linejoin: miter"/>
   </g>
   <g id="patch_48">
    <path d="M 458.178952 129.83 
L 465.218445 129.83 
L 465.218445 120.978918 
L 458.178952 120.978918 
z
" clip-path="url(#pa51b8445df)" style="fill: #808080; opacity: 0.4; stroke: #ffffff; stroke-linejoin: miter"/>
   </g>
   <g id="patch_49">
    <path d="M 465.218445 129.83 
L 472.257937 129.83 
L 472.257937 127.617229 
L 465.218445 127.617229 
z
" clip-path="url(#pa51b8445df)" style="fill: #808080; opacity: 0.4; stroke: #ffffff; stroke-linejoin: miter"/>
   </g>
   <g id="patch_50">
    <path d="M 472.257937 129.83 
L 479.297429 129.83 
L 479.297429 127.617229 
L 472.257937 127.617229 
z
" clip-path="url(#pa51b8445df)" style="fill: #808080; opacity: 0.4; stroke: #ffffff; stroke-linejoin: miter"/>
   </g>
   <g id="patch_51">
    <path d="M 479.297429 129.83 
L 486.336922 129.83 
L 486.336922 126.142049 
L 479.297429 126.142049 
z
" clip-path="url(#pa51b8445df)" style="fill: #808080; opacity: 0.4; stroke: #ffffff; stroke-linejoin: miter"/>
   </g>
   <g id="patch_52">
    <path d="M 486.336922 129.83 
L 493.376414 129.83 
L 493.376414 126.879639 
L 486.336922 126.879639 
z
" clip-path="url(#pa51b8445df)" style="fill: #808080; opacity: 0.4; stroke: #ffffff; stroke-linejoin: miter"/>
   </g>
   <g id="patch_53">
    <path d="M 493.376414 129.83 
L 500.415906 129.83 
L 500.415906 125.404459 
L 493.376414 125.404459 
z
" clip-path="url(#pa51b8445df)" style="fill: #808080; opacity: 0.4; stroke: #ffffff; stroke-linejoin: miter"/>
   </g>
   <g id="patch_54">
    <path d="M 500.415906 129.83 
L 507.455399 129.83 
L 507.455399 129.09241 
L 500.415906 129.09241 
z
" clip-path="url(#pa51b8445df)" style="fill: #808080; opacity: 0.4; stroke: #ffffff; stroke-linejoin: miter"/>
   </g>
   <g id="patch_55">
    <path d="M 507.455399 129.83 
L 514.494891 129.83 
L 514.494891 128.35482 
L 507.455399 128.35482 
z
" clip-path="url(#pa51b8445df)" style="fill: #808080; opacity: 0.4; stroke: #ffffff; stroke-linejoin: miter"/>
   </g>
   <g id="patch_56">
    <path d="M 514.494891 129.83 
L 521.534383 129.83 
L 521.534383 127.617229 
L 514.494891 127.617229 
z
" clip-path="url(#pa51b8445df)" style="fill: #808080; opacity: 0.4; stroke: #ffffff; stroke-linejoin: miter"/>
   </g>
   <g id="patch_57">
    <path d="M 521.534383 129.83 
L 528.573876 129.83 
L 528.573876 129.83 
L 521.534383 129.83 
z
" clip-path="url(#pa51b8445df)" style="fill: #808080; opacity: 0.4; stroke: #ffffff; stroke-linejoin: miter"/>
   </g>
   <g id="patch_58">
    <path d="M 528.573876 129.83 
L 535.613368 129.83 
L 535.613368 121.716508 
L 528.573876 121.716508 
z
" clip-path="url(#pa51b8445df)" style="fill: #808080; opacity: 0.4; stroke: #ffffff; stroke-linejoin: miter"/>
   </g>
   <g id="patch_59">
    <path d="M 322.34 129.83 
L 322.34 27.6 
" style="fill: none; stroke: #262626; stroke-width: 1.25; stroke-linejoin: miter; stroke-linecap: square"/>
   </g>
   <g id="patch_60">
    <path d="M 322.34 129.83 
L 558 129.83 
" style="fill: none; stroke: #262626; stroke-width: 1.25; stroke-linejoin: miter; stroke-linecap: square"/>
   </g>
   <g id="text_25">
    <!-- %MISSPELLED -->
    <g style="fill: #262626" transform="translate(397.152812 21.6) scale(0.12 -0.12)">
     <defs>
      <path id="ArialMT-4d" d="M 475 0 
L 475 4581 
L 1388 4581 
L 2472 1338 
Q 2622 884 2691 659 
Q 2769 909 2934 1394 
L 4031 4581 
L 4847 4581 
L 4847 0 
L 4263 0 
L 4263 3834 
L 2931 0 
L 2384 0 
L 1059 3900 
L 1059 0 
L 475 0 
z
" transform="scale(0.015625)"/>
      <path id="ArialMT-49" d="M 597 0 
L 597 4581 
L 1203 4581 
L 1203 0 
L 597 0 
z
" transform="scale(0.015625)"/>
      <path id="ArialMT-53" d="M 288 1472 
L 859 1522 
Q 900 1178 1048 958 
Q 1197 738 1509 602 
Q 1822 466 2213 466 
Q 2559 466 2825 569 
Q 3091 672 3220 851 
Q 3350 1031 3350 1244 
Q 3350 1459 3225 1620 
Q 3100 1781 2813 1891 
Q 2628 1963 1997 2114 
Q 1366 2266 1113 2400 
Q 784 2572 623 2826 
Q 463 3081 463 3397 
Q 463 3744 659 4045 
Q 856 4347 1234 4503 
Q 1613 4659 2075 4659 
Q 2584 4659 2973 4495 
Q 3363 4331 3572 4012 
Q 3781 3694 3797 3291 
L 3216 3247 
Q 3169 3681 2898 3903 
Q 2628 4125 2100 4125 
Q 1550 4125 1298 3923 
Q 1047 3722 1047 3438 
Q 1047 3191 1225 3031 
Q 1400 2872 2139 2705 
Q 2878 2538 3153 2413 
Q 3553 2228 3743 1945 
Q 3934 1663 3934 1294 
Q 3934 928 3725 604 
Q 3516 281 3123 101 
Q 2731 -78 2241 -78 
Q 1619 -78 1198 103 
Q 778 284 539 648 
Q 300 1013 288 1472 
z
" transform="scale(0.015625)"/>
      <path id="ArialMT-50" d="M 494 0 
L 494 4581 
L 2222 4581 
Q 2678 4581 2919 4538 
Q 3256 4481 3484 4323 
Q 3713 4166 3852 3881 
Q 3991 3597 3991 3256 
Q 3991 2672 3619 2267 
Q 3247 1863 2275 1863 
L 1100 1863 
L 1100 0 
L 494 0 
z
M 1100 2403 
L 2284 2403 
Q 2872 2403 3119 2622 
Q 3366 2841 3366 3238 
Q 3366 3525 3220 3729 
Q 3075 3934 2838 4000 
Q 2684 4041 2272 4041 
L 1100 4041 
L 1100 2403 
z
" transform="scale(0.015625)"/>
      <path id="ArialMT-45" d="M 506 0 
L 506 4581 
L 3819 4581 
L 3819 4041 
L 1113 4041 
L 1113 2638 
L 3647 2638 
L 3647 2100 
L 1113 2100 
L 1113 541 
L 3925 541 
L 3925 0 
L 506 0 
z
" transform="scale(0.015625)"/>
      <path id="ArialMT-4c" d="M 469 0 
L 469 4581 
L 1075 4581 
L 1075 541 
L 3331 541 
L 3331 0 
L 469 0 
z
" transform="scale(0.015625)"/>
      <path id="ArialMT-44" d="M 494 0 
L 494 4581 
L 2072 4581 
Q 2606 4581 2888 4516 
Q 3281 4425 3559 4188 
Q 3922 3881 4101 3404 
Q 4281 2928 4281 2316 
Q 4281 1794 4159 1391 
Q 4038 988 3847 723 
Q 3656 459 3429 307 
Q 3203 156 2883 78 
Q 2563 0 2147 0 
L 494 0 
z
M 1100 541 
L 2078 541 
Q 2531 541 2789 625 
Q 3047 709 3200 863 
Q 3416 1078 3536 1442 
Q 3656 1806 3656 2325 
Q 3656 3044 3420 3430 
Q 3184 3816 2847 3947 
Q 2603 4041 2063 4041 
L 1100 4041 
L 1100 541 
z
" transform="scale(0.015625)"/>
     </defs>
     <use xlink:href="#ArialMT-25"/>
     <use xlink:href="#ArialMT-4d" transform="translate(88.916016 0)"/>
     <use xlink:href="#ArialMT-49" transform="translate(172.216797 0)"/>
     <use xlink:href="#ArialMT-53" transform="translate(200 0)"/>
     <use xlink:href="#ArialMT-53" transform="translate(266.699219 0)"/>
     <use xlink:href="#ArialMT-50" transform="translate(333.398438 0)"/>
     <use xlink:href="#ArialMT-45" transform="translate(400.097656 0)"/>
     <use xlink:href="#ArialMT-4c" transform="translate(466.796875 0)"/>
     <use xlink:href="#ArialMT-4c" transform="translate(522.412109 0)"/>
     <use xlink:href="#ArialMT-45" transform="translate(578.027344 0)"/>
     <use xlink:href="#ArialMT-44" transform="translate(644.726562 0)"/>
    </g>
   </g>
  </g>
  <g id="axes_3">
   <g id="patch_61">
    <path d="M 40.82 287.19 
L 276.48 287.19 
L 276.48 184.96 
L 40.82 184.96 
z
" style="fill: #ffffff"/>
   </g>
   <g id="matplotlib.axis_5">
    <g id="xtick_18">
     <g id="text_26">
      <!-- -4.0 -->
      <g style="fill: #262626" transform="translate(43.663672 315.642656) rotate(-90) scale(0.11 -0.11)">
       <use xlink:href="#ArialMT-2d"/>
       <use xlink:href="#ArialMT-34" transform="translate(33.300781 0)"/>
       <use xlink:href="#ArialMT-2e" transform="translate(88.916016 0)"/>
       <use xlink:href="#ArialMT-30" transform="translate(116.699219 0)"/>
      </g>
     </g>
    </g>
    <g id="xtick_19">
     <g id="text_27">
      <!-- -3.0 -->
      <g style="fill: #262626" transform="translate(73.121172 315.642656) rotate(-90) scale(0.11 -0.11)">
       <use xlink:href="#ArialMT-2d"/>
       <use xlink:href="#ArialMT-33" transform="translate(33.300781 0)"/>
       <use xlink:href="#ArialMT-2e" transform="translate(88.916016 0)"/>
       <use xlink:href="#ArialMT-30" transform="translate(116.699219 0)"/>
      </g>
     </g>
    </g>
    <g id="xtick_20">
     <g id="text_28">
      <!-- -2.0 -->
      <g style="fill: #262626" transform="translate(102.578672 315.642656) rotate(-90) scale(0.11 -0.11)">
       <use xlink:href="#ArialMT-2d"/>
       <use xlink:href="#ArialMT-32" transform="translate(33.300781 0)"/>
       <use xlink:href="#ArialMT-2e" transform="translate(88.916016 0)"/>
       <use xlink:href="#ArialMT-30" transform="translate(116.699219 0)"/>
      </g>
     </g>
    </g>
    <g id="xtick_21">
     <g id="text_29">
      <!-- -1.0 -->
      <g style="fill: #262626" transform="translate(132.036172 315.642656) rotate(-90) scale(0.11 -0.11)">
       <use xlink:href="#ArialMT-2d"/>
       <use xlink:href="#ArialMT-31" transform="translate(33.300781 0)"/>
       <use xlink:href="#ArialMT-2e" transform="translate(88.916016 0)"/>
       <use xlink:href="#ArialMT-30" transform="translate(116.699219 0)"/>
      </g>
     </g>
    </g>
    <g id="xtick_22">
     <g id="text_30">
      <!-- 0.0 -->
      <g style="fill: #262626" transform="translate(161.493672 311.98) rotate(-90) scale(0.11 -0.11)">
       <use xlink:href="#ArialMT-30"/>
       <use xlink:href="#ArialMT-2e" transform="translate(55.615234 0)"/>
       <use xlink:href="#ArialMT-30" transform="translate(83.398438 0)"/>
      </g>
     </g>
    </g>
    <g id="xtick_23">
     <g id="text_31">
      <!-- 1.0 -->
      <g style="fill: #262626" transform="translate(190.951172 311.98) rotate(-90) scale(0.11 -0.11)">
       <use xlink:href="#ArialMT-31"/>
       <use xlink:href="#ArialMT-2e" transform="translate(55.615234 0)"/>
       <use xlink:href="#ArialMT-30" transform="translate(83.398438 0)"/>
      </g>
     </g>
    </g>
    <g id="xtick_24">
     <g id="text_32">
      <!-- 2.0 -->
      <g style="fill: #262626" transform="translate(220.408672 311.98) rotate(-90) scale(0.11 -0.11)">
       <use xlink:href="#ArialMT-32"/>
       <use xlink:href="#ArialMT-2e" transform="translate(55.615234 0)"/>
       <use xlink:href="#ArialMT-30" transform="translate(83.398438 0)"/>
      </g>
     </g>
    </g>
    <g id="xtick_25">
     <g id="text_33">
      <!-- 3.0 -->
      <g style="fill: #262626" transform="translate(249.866172 311.98) rotate(-90) scale(0.11 -0.11)">
       <use xlink:href="#ArialMT-33"/>
       <use xlink:href="#ArialMT-2e" transform="translate(55.615234 0)"/>
       <use xlink:href="#ArialMT-30" transform="translate(83.398438 0)"/>
      </g>
     </g>
    </g>
    <g id="xtick_26">
     <g id="text_34">
      <!-- 4.0 -->
      <g style="fill: #262626" transform="translate(279.323672 311.98) rotate(-90) scale(0.11 -0.11)">
       <use xlink:href="#ArialMT-34"/>
       <use xlink:href="#ArialMT-2e" transform="translate(55.615234 0)"/>
       <use xlink:href="#ArialMT-30" transform="translate(83.398438 0)"/>
      </g>
     </g>
    </g>
   </g>
   <g id="matplotlib.axis_6">
    <g id="ytick_7">
     <g id="text_35">
      <!-- 0 -->
      <g style="fill: #262626" transform="translate(25.202969 291.126797) scale(0.11 -0.11)">
       <use xlink:href="#ArialMT-30"/>
      </g>
     </g>
    </g>
    <g id="ytick_8">
     <g id="text_36">
      <!-- 50 -->
      <g style="fill: #262626" transform="translate(19.085938 252.795338) scale(0.11 -0.11)">
       <use xlink:href="#ArialMT-35"/>
       <use xlink:href="#ArialMT-30" transform="translate(55.615234 0)"/>
      </g>
     </g>
    </g>
    <g id="ytick_9">
     <g id="text_37">
      <!-- 100 -->
      <g style="fill: #262626" transform="translate(12.968906 214.46388) scale(0.11 -0.11)">
       <use xlink:href="#ArialMT-31"/>
       <use xlink:href="#ArialMT-30" transform="translate(55.615234 0)"/>
       <use xlink:href="#ArialMT-30" transform="translate(111.230469 0)"/>
      </g>
     </g>
    </g>
   </g>
   <g id="patch_62">
    <path d="M 70.637733 287.19 
L 78.028392 287.19 
L 78.028392 284.890112 
L 70.637733 284.890112 
z
" clip-path="url(#p6fdca4759d)" style="fill: #808080; opacity: 0.4; stroke: #ffffff; stroke-linejoin: miter"/>
   </g>
   <g id="patch_63">
    <path d="M 78.028392 287.19 
L 85.419052 287.19 
L 85.419052 285.656742 
L 78.028392 285.656742 
z
" clip-path="url(#p6fdca4759d)" style="fill: #808080; opacity: 0.4; stroke: #ffffff; stroke-linejoin: miter"/>
   </g>
   <g id="patch_64">
    <path d="M 85.419052 287.19 
L 92.809712 287.19 
L 92.809712 284.123483 
L 85.419052 284.123483 
z
" clip-path="url(#p6fdca4759d)" style="fill: #808080; opacity: 0.4; stroke: #ffffff; stroke-linejoin: miter"/>
   </g>
   <g id="patch_65">
    <path d="M 92.809712 287.19 
L 100.200372 287.19 
L 100.200372 280.290337 
L 92.809712 280.290337 
z
" clip-path="url(#p6fdca4759d)" style="fill: #808080; opacity: 0.4; stroke: #ffffff; stroke-linejoin: miter"/>
   </g>
   <g id="patch_66">
    <path d="M 100.200372 287.19 
L 107.591032 287.19 
L 107.591032 271.857417 
L 100.200372 271.857417 
z
" clip-path="url(#p6fdca4759d)" style="fill: #808080; opacity: 0.4; stroke: #ffffff; stroke-linejoin: miter"/>
   </g>
   <g id="patch_67">
    <path d="M 107.591032 287.19 
L 114.981692 287.19 
L 114.981692 261.124608 
L 107.591032 261.124608 
z
" clip-path="url(#p6fdca4759d)" style="fill: #808080; opacity: 0.4; stroke: #ffffff; stroke-linejoin: miter"/>
   </g>
   <g id="patch_68">
    <path d="M 114.981692 287.19 
L 122.372352 287.19 
L 122.372352 253.458316 
L 114.981692 253.458316 
z
" clip-path="url(#p6fdca4759d)" style="fill: #808080; opacity: 0.4; stroke: #ffffff; stroke-linejoin: miter"/>
   </g>
   <g id="patch_69">
    <path d="M 122.372352 287.19 
L 129.763012 287.19 
L 129.763012 230.459441 
L 122.372352 230.459441 
z
" clip-path="url(#p6fdca4759d)" style="fill: #808080; opacity: 0.4; stroke: #ffffff; stroke-linejoin: miter"/>
   </g>
   <g id="patch_70">
    <path d="M 129.763012 287.19 
L 137.153672 287.19 
L 137.153672 214.360229 
L 129.763012 214.360229 
z
" clip-path="url(#p6fdca4759d)" style="fill: #808080; opacity: 0.4; stroke: #ffffff; stroke-linejoin: miter"/>
   </g>
   <g id="patch_71">
    <path d="M 137.153672 287.19 
L 144.544331 287.19 
L 144.544331 212.060341 
L 137.153672 212.060341 
z
" clip-path="url(#p6fdca4759d)" style="fill: #808080; opacity: 0.4; stroke: #ffffff; stroke-linejoin: miter"/>
   </g>
   <g id="patch_72">
    <path d="M 144.544331 287.19 
L 151.934991 287.19 
L 151.934991 193.661241 
L 144.544331 193.661241 
z
" clip-path="url(#p6fdca4759d)" style="fill: #808080; opacity: 0.4; stroke: #ffffff; stroke-linejoin: miter"/>
   </g>
   <g id="patch_73">
    <path d="M 151.934991 287.19 
L 159.325651 287.19 
L 159.325651 189.828095 
L 151.934991 189.828095 
z
" clip-path="url(#p6fdca4759d)" style="fill: #808080; opacity: 0.4; stroke: #ffffff; stroke-linejoin: miter"/>
   </g>
   <g id="patch_74">
    <path d="M 159.325651 287.19 
L 166.716311 287.19 
L 166.716311 199.794274 
L 159.325651 199.794274 
z
" clip-path="url(#p6fdca4759d)" style="fill: #808080; opacity: 0.4; stroke: #ffffff; stroke-linejoin: miter"/>
   </g>
   <g id="patch_75">
    <path d="M 166.716311 287.19 
L 174.106971 287.19 
L 174.106971 210.527083 
L 166.716311 210.527083 
z
" clip-path="url(#p6fdca4759d)" style="fill: #808080; opacity: 0.4; stroke: #ffffff; stroke-linejoin: miter"/>
   </g>
   <g id="patch_76">
    <path d="M 174.106971 287.19 
L 181.497631 287.19 
L 181.497631 207.460566 
L 174.106971 207.460566 
z
" clip-path="url(#p6fdca4759d)" style="fill: #808080; opacity: 0.4; stroke: #ffffff; stroke-linejoin: miter"/>
   </g>
   <g id="patch_77">
    <path d="M 181.497631 287.19 
L 188.888291 287.19 
L 188.888291 226.626295 
L 181.497631 226.626295 
z
" clip-path="url(#p6fdca4759d)" style="fill: #808080; opacity: 0.4; stroke: #ffffff; stroke-linejoin: miter"/>
   </g>
   <g id="patch_78">
    <path d="M 188.888291 287.19 
L 196.278951 287.19 
L 196.278951 251.925058 
L 188.888291 251.925058 
z
" clip-path="url(#p6fdca4759d)" style="fill: #808080; opacity: 0.4; stroke: #ffffff; stroke-linejoin: miter"/>
   </g>
   <g id="patch_79">
    <path d="M 196.278951 287.19 
L 203.66961 287.19 
L 203.66961 257.291462 
L 196.278951 257.291462 
z
" clip-path="url(#p6fdca4759d)" style="fill: #808080; opacity: 0.4; stroke: #ffffff; stroke-linejoin: miter"/>
   </g>
   <g id="patch_80">
    <path d="M 203.66961 287.19 
L 211.06027 287.19 
L 211.06027 267.257642 
L 203.66961 267.257642 
z
" clip-path="url(#p6fdca4759d)" style="fill: #808080; opacity: 0.4; stroke: #ffffff; stroke-linejoin: miter"/>
   </g>
   <g id="patch_81">
    <path d="M 211.06027 287.19 
L 218.45093 287.19 
L 218.45093 272.624046 
L 211.06027 272.624046 
z
" clip-path="url(#p6fdca4759d)" style="fill: #808080; opacity: 0.4; stroke: #ffffff; stroke-linejoin: miter"/>
   </g>
   <g id="patch_82">
    <path d="M 218.45093 287.19 
L 225.84159 287.19 
L 225.84159 277.223821 
L 218.45093 277.223821 
z
" clip-path="url(#p6fdca4759d)" style="fill: #808080; opacity: 0.4; stroke: #ffffff; stroke-linejoin: miter"/>
   </g>
   <g id="patch_83">
    <path d="M 225.84159 287.19 
L 233.23225 287.19 
L 233.23225 281.056967 
L 225.84159 281.056967 
z
" clip-path="url(#p6fdca4759d)" style="fill: #808080; opacity: 0.4; stroke: #ffffff; stroke-linejoin: miter"/>
   </g>
   <g id="patch_84">
    <path d="M 233.23225 287.19 
L 240.62291 287.19 
L 240.62291 282.590225 
L 233.23225 282.590225 
z
" clip-path="url(#p6fdca4759d)" style="fill: #808080; opacity: 0.4; stroke: #ffffff; stroke-linejoin: miter"/>
   </g>
   <g id="patch_85">
    <path d="M 240.62291 287.19 
L 248.01357 287.19 
L 248.01357 285.656742 
L 240.62291 285.656742 
z
" clip-path="url(#p6fdca4759d)" style="fill: #808080; opacity: 0.4; stroke: #ffffff; stroke-linejoin: miter"/>
   </g>
   <g id="patch_86">
    <path d="M 248.01357 287.19 
L 255.40423 287.19 
L 255.40423 281.823596 
L 248.01357 281.823596 
z
" clip-path="url(#p6fdca4759d)" style="fill: #808080; opacity: 0.4; stroke: #ffffff; stroke-linejoin: miter"/>
   </g>
   <g id="patch_87">
    <path d="M 40.82 287.19 
L 40.82 184.96 
" style="fill: none; stroke: #262626; stroke-width: 1.25; stroke-linejoin: miter; stroke-linecap: square"/>
   </g>
   <g id="patch_88">
    <path d="M 40.82 287.19 
L 276.48 287.19 
" style="fill: none; stroke: #262626; stroke-width: 1.25; stroke-linejoin: miter; stroke-linecap: square"/>
   </g>
   <g id="text_38">
    <!-- AVG_WLEN -->
    <g style="fill: #262626" transform="translate(125.749375 178.96) scale(0.12 -0.12)">
     <defs>
      <path id="ArialMT-41" d="M -9 0 
L 1750 4581 
L 2403 4581 
L 4278 0 
L 3588 0 
L 3053 1388 
L 1138 1388 
L 634 0 
L -9 0 
z
M 1313 1881 
L 2866 1881 
L 2388 3150 
Q 2169 3728 2063 4100 
Q 1975 3659 1816 3225 
L 1313 1881 
z
" transform="scale(0.015625)"/>
      <path id="ArialMT-56" d="M 1803 0 
L 28 4581 
L 684 4581 
L 1875 1253 
Q 2019 853 2116 503 
Q 2222 878 2363 1253 
L 3600 4581 
L 4219 4581 
L 2425 0 
L 1803 0 
z
" transform="scale(0.015625)"/>
      <path id="ArialMT-47" d="M 2638 1797 
L 2638 2334 
L 4578 2338 
L 4578 638 
Q 4131 281 3656 101 
Q 3181 -78 2681 -78 
Q 2006 -78 1454 211 
Q 903 500 622 1047 
Q 341 1594 341 2269 
Q 341 2938 620 3517 
Q 900 4097 1425 4378 
Q 1950 4659 2634 4659 
Q 3131 4659 3532 4498 
Q 3934 4338 4162 4050 
Q 4391 3763 4509 3300 
L 3963 3150 
Q 3859 3500 3706 3700 
Q 3553 3900 3268 4020 
Q 2984 4141 2638 4141 
Q 2222 4141 1919 4014 
Q 1616 3888 1430 3681 
Q 1244 3475 1141 3228 
Q 966 2803 966 2306 
Q 966 1694 1177 1281 
Q 1388 869 1791 669 
Q 2194 469 2647 469 
Q 3041 469 3416 620 
Q 3791 772 3984 944 
L 3984 1797 
L 2638 1797 
z
" transform="scale(0.015625)"/>
      <path id="ArialMT-5f" d="M -97 -1272 
L -97 -866 
L 3631 -866 
L 3631 -1272 
L -97 -1272 
z
" transform="scale(0.015625)"/>
      <path id="ArialMT-57" d="M 1294 0 
L 78 4581 
L 700 4581 
L 1397 1578 
Q 1509 1106 1591 641 
Q 1766 1375 1797 1488 
L 2669 4581 
L 3400 4581 
L 4056 2263 
Q 4303 1400 4413 641 
Q 4500 1075 4641 1638 
L 5359 4581 
L 5969 4581 
L 4713 0 
L 4128 0 
L 3163 3491 
Q 3041 3928 3019 4028 
Q 2947 3713 2884 3491 
L 1913 0 
L 1294 0 
z
" transform="scale(0.015625)"/>
     </defs>
     <use xlink:href="#ArialMT-41"/>
     <use xlink:href="#ArialMT-56" transform="translate(59.324219 0)"/>
     <use xlink:href="#ArialMT-47" transform="translate(126.023438 0)"/>
     <use xlink:href="#ArialMT-5f" transform="translate(203.806641 0)"/>
     <use xlink:href="#ArialMT-57" transform="translate(259.421875 0)"/>
     <use xlink:href="#ArialMT-4c" transform="translate(353.806641 0)"/>
     <use xlink:href="#ArialMT-45" transform="translate(409.421875 0)"/>
     <use xlink:href="#ArialMT-4e" transform="translate(476.121094 0)"/>
    </g>
   </g>
  </g>
  <g id="axes_4">
   <g id="patch_89">
    <path d="M 322.34 287.19 
L 558 287.19 
L 558 184.96 
L 322.34 184.96 
z
" style="fill: #ffffff"/>
   </g>
   <g id="matplotlib.axis_7">
    <g id="xtick_27">
     <g id="text_39">
      <!-- -6.0 -->
      <g style="fill: #262626" transform="translate(325.183672 315.642656) rotate(-90) scale(0.11 -0.11)">
       <defs>
        <path id="ArialMT-36" d="M 3184 3459 
L 2625 3416 
Q 2550 3747 2413 3897 
Q 2184 4138 1850 4138 
Q 1581 4138 1378 3988 
Q 1113 3794 959 3422 
Q 806 3050 800 2363 
Q 1003 2672 1297 2822 
Q 1591 2972 1913 2972 
Q 2475 2972 2870 2558 
Q 3266 2144 3266 1488 
Q 3266 1056 3080 686 
Q 2894 316 2569 119 
Q 2244 -78 1831 -78 
Q 1128 -78 684 439 
Q 241 956 241 2144 
Q 241 3472 731 4075 
Q 1159 4600 1884 4600 
Q 2425 4600 2770 4297 
Q 3116 3994 3184 3459 
z
M 888 1484 
Q 888 1194 1011 928 
Q 1134 663 1356 523 
Q 1578 384 1822 384 
Q 2178 384 2434 671 
Q 2691 959 2691 1453 
Q 2691 1928 2437 2201 
Q 2184 2475 1800 2475 
Q 1419 2475 1153 2201 
Q 888 1928 888 1484 
z
" transform="scale(0.015625)"/>
       </defs>
       <use xlink:href="#ArialMT-2d"/>
       <use xlink:href="#ArialMT-36" transform="translate(33.300781 0)"/>
       <use xlink:href="#ArialMT-2e" transform="translate(88.916016 0)"/>
       <use xlink:href="#ArialMT-30" transform="translate(116.699219 0)"/>
      </g>
     </g>
    </g>
    <g id="xtick_28">
     <g id="text_40">
      <!-- -4.0 -->
      <g style="fill: #262626" transform="translate(372.315672 315.642656) rotate(-90) scale(0.11 -0.11)">
       <use xlink:href="#ArialMT-2d"/>
       <use xlink:href="#ArialMT-34" transform="translate(33.300781 0)"/>
       <use xlink:href="#ArialMT-2e" transform="translate(88.916016 0)"/>
       <use xlink:href="#ArialMT-30" transform="translate(116.699219 0)"/>
      </g>
     </g>
    </g>
    <g id="xtick_29">
     <g id="text_41">
      <!-- -2.0 -->
      <g style="fill: #262626" transform="translate(419.447672 315.642656) rotate(-90) scale(0.11 -0.11)">
       <use xlink:href="#ArialMT-2d"/>
       <use xlink:href="#ArialMT-32" transform="translate(33.300781 0)"/>
       <use xlink:href="#ArialMT-2e" transform="translate(88.916016 0)"/>
       <use xlink:href="#ArialMT-30" transform="translate(116.699219 0)"/>
      </g>
     </g>
    </g>
    <g id="xtick_30">
     <g id="text_42">
      <!-- 0.0 -->
      <g style="fill: #262626" transform="translate(466.579672 311.98) rotate(-90) scale(0.11 -0.11)">
       <use xlink:href="#ArialMT-30"/>
       <use xlink:href="#ArialMT-2e" transform="translate(55.615234 0)"/>
       <use xlink:href="#ArialMT-30" transform="translate(83.398438 0)"/>
      </g>
     </g>
    </g>
    <g id="xtick_31">
     <g id="text_43">
      <!-- 2.0 -->
      <g style="fill: #262626" transform="translate(513.711672 311.98) rotate(-90) scale(0.11 -0.11)">
       <use xlink:href="#ArialMT-32"/>
       <use xlink:href="#ArialMT-2e" transform="translate(55.615234 0)"/>
       <use xlink:href="#ArialMT-30" transform="translate(83.398438 0)"/>
      </g>
     </g>
    </g>
    <g id="xtick_32">
     <g id="text_44">
      <!-- 4.0 -->
      <g style="fill: #262626" transform="translate(560.843672 311.98) rotate(-90) scale(0.11 -0.11)">
       <use xlink:href="#ArialMT-34"/>
       <use xlink:href="#ArialMT-2e" transform="translate(55.615234 0)"/>
       <use xlink:href="#ArialMT-30" transform="translate(83.398438 0)"/>
      </g>
     </g>
    </g>
   </g>
   <g id="matplotlib.axis_8">
    <g id="ytick_10">
     <g id="text_45">
      <!-- 0 -->
      <g style="fill: #262626" transform="translate(306.722969 291.126797) scale(0.11 -0.11)">
       <use xlink:href="#ArialMT-30"/>
      </g>
     </g>
    </g>
    <g id="ytick_11">
     <g id="text_46">
      <!-- 50 -->
      <g style="fill: #262626" transform="translate(300.605937 252.182035) scale(0.11 -0.11)">
       <use xlink:href="#ArialMT-35"/>
       <use xlink:href="#ArialMT-30" transform="translate(55.615234 0)"/>
      </g>
     </g>
    </g>
    <g id="ytick_12">
     <g id="text_47">
      <!-- 100 -->
      <g style="fill: #262626" transform="translate(294.488906 213.237273) scale(0.11 -0.11)">
       <use xlink:href="#ArialMT-31"/>
       <use xlink:href="#ArialMT-30" transform="translate(55.615234 0)"/>
       <use xlink:href="#ArialMT-30" transform="translate(111.230469 0)"/>
      </g>
     </g>
    </g>
   </g>
   <g id="patch_90">
    <path d="M 365.719571 287.19 
L 370.832441 287.19 
L 370.832441 280.179943 
L 365.719571 280.179943 
z
" clip-path="url(#pb68a6da068)" style="fill: #808080; opacity: 0.4; stroke: #ffffff; stroke-linejoin: miter"/>
   </g>
   <g id="patch_91">
    <path d="M 370.832441 287.19 
L 375.945311 287.19 
L 375.945311 286.411105 
L 370.832441 286.411105 
z
" clip-path="url(#pb68a6da068)" style="fill: #808080; opacity: 0.4; stroke: #ffffff; stroke-linejoin: miter"/>
   </g>
   <g id="patch_92">
    <path d="M 375.945311 287.19 
L 381.058182 287.19 
L 381.058182 285.63221 
L 375.945311 285.63221 
z
" clip-path="url(#pb68a6da068)" style="fill: #808080; opacity: 0.4; stroke: #ffffff; stroke-linejoin: miter"/>
   </g>
   <g id="patch_93">
    <path d="M 381.058182 287.19 
L 386.171052 287.19 
L 386.171052 285.63221 
L 381.058182 285.63221 
z
" clip-path="url(#pb68a6da068)" style="fill: #808080; opacity: 0.4; stroke: #ffffff; stroke-linejoin: miter"/>
   </g>
   <g id="patch_94">
    <path d="M 386.171052 287.19 
L 391.283922 287.19 
L 391.283922 284.074419 
L 386.171052 284.074419 
z
" clip-path="url(#pb68a6da068)" style="fill: #808080; opacity: 0.4; stroke: #ffffff; stroke-linejoin: miter"/>
   </g>
   <g id="patch_95">
    <path d="M 391.283922 287.19 
L 396.396792 287.19 
L 396.396792 284.853314 
L 391.283922 284.853314 
z
" clip-path="url(#pb68a6da068)" style="fill: #808080; opacity: 0.4; stroke: #ffffff; stroke-linejoin: miter"/>
   </g>
   <g id="patch_96">
    <path d="M 396.396792 287.19 
L 401.509663 287.19 
L 401.509663 282.516629 
L 396.396792 282.516629 
z
" clip-path="url(#pb68a6da068)" style="fill: #808080; opacity: 0.4; stroke: #ffffff; stroke-linejoin: miter"/>
   </g>
   <g id="patch_97">
    <path d="M 401.509663 287.19 
L 406.622533 287.19 
L 406.622533 280.179943 
L 401.509663 280.179943 
z
" clip-path="url(#pb68a6da068)" style="fill: #808080; opacity: 0.4; stroke: #ffffff; stroke-linejoin: miter"/>
   </g>
   <g id="patch_98">
    <path d="M 406.622533 287.19 
L 411.735403 287.19 
L 411.735403 281.737733 
L 406.622533 281.737733 
z
" clip-path="url(#pb68a6da068)" style="fill: #808080; opacity: 0.4; stroke: #ffffff; stroke-linejoin: miter"/>
   </g>
   <g id="patch_99">
    <path d="M 411.735403 287.19 
L 416.848273 287.19 
L 416.848273 283.295524 
L 411.735403 283.295524 
z
" clip-path="url(#pb68a6da068)" style="fill: #808080; opacity: 0.4; stroke: #ffffff; stroke-linejoin: miter"/>
   </g>
   <g id="patch_100">
    <path d="M 416.848273 287.19 
L 421.961143 287.19 
L 421.961143 277.843257 
L 416.848273 277.843257 
z
" clip-path="url(#pb68a6da068)" style="fill: #808080; opacity: 0.4; stroke: #ffffff; stroke-linejoin: miter"/>
   </g>
   <g id="patch_101">
    <path d="M 421.961143 287.19 
L 427.074014 287.19 
L 427.074014 271.612095 
L 421.961143 271.612095 
z
" clip-path="url(#pb68a6da068)" style="fill: #808080; opacity: 0.4; stroke: #ffffff; stroke-linejoin: miter"/>
   </g>
   <g id="patch_102">
    <path d="M 427.074014 287.19 
L 432.186884 287.19 
L 432.186884 270.8332 
L 427.074014 270.8332 
z
" clip-path="url(#pb68a6da068)" style="fill: #808080; opacity: 0.4; stroke: #ffffff; stroke-linejoin: miter"/>
   </g>
   <g id="patch_103">
    <path d="M 432.186884 287.19 
L 437.299754 287.19 
L 437.299754 264.602038 
L 432.186884 264.602038 
z
" clip-path="url(#pb68a6da068)" style="fill: #808080; opacity: 0.4; stroke: #ffffff; stroke-linejoin: miter"/>
   </g>
   <g id="patch_104">
    <path d="M 437.299754 287.19 
L 442.412624 287.19 
L 442.412624 259.928667 
L 437.299754 259.928667 
z
" clip-path="url(#pb68a6da068)" style="fill: #808080; opacity: 0.4; stroke: #ffffff; stroke-linejoin: miter"/>
   </g>
   <g id="patch_105">
    <path d="M 442.412624 287.19 
L 447.525495 287.19 
L 447.525495 231.888438 
L 442.412624 231.888438 
z
" clip-path="url(#pb68a6da068)" style="fill: #808080; opacity: 0.4; stroke: #ffffff; stroke-linejoin: miter"/>
   </g>
   <g id="patch_106">
    <path d="M 447.525495 287.19 
L 452.638365 287.19 
L 452.638365 226.436171 
L 447.525495 226.436171 
z
" clip-path="url(#pb68a6da068)" style="fill: #808080; opacity: 0.4; stroke: #ffffff; stroke-linejoin: miter"/>
   </g>
   <g id="patch_107">
    <path d="M 452.638365 287.19 
L 457.751235 287.19 
L 457.751235 210.858267 
L 452.638365 210.858267 
z
" clip-path="url(#pb68a6da068)" style="fill: #808080; opacity: 0.4; stroke: #ffffff; stroke-linejoin: miter"/>
   </g>
   <g id="patch_108">
    <path d="M 457.751235 287.19 
L 462.864105 287.19 
L 462.864105 206.184895 
L 457.751235 206.184895 
z
" clip-path="url(#pb68a6da068)" style="fill: #808080; opacity: 0.4; stroke: #ffffff; stroke-linejoin: miter"/>
   </g>
   <g id="patch_109">
    <path d="M 462.864105 287.19 
L 467.976976 287.19 
L 467.976976 203.069314 
L 462.864105 203.069314 
z
" clip-path="url(#pb68a6da068)" style="fill: #808080; opacity: 0.4; stroke: #ffffff; stroke-linejoin: miter"/>
   </g>
   <g id="patch_110">
    <path d="M 467.976976 287.19 
L 473.089846 287.19 
L 473.089846 189.828095 
L 467.976976 189.828095 
z
" clip-path="url(#pb68a6da068)" style="fill: #808080; opacity: 0.4; stroke: #ffffff; stroke-linejoin: miter"/>
   </g>
   <g id="patch_111">
    <path d="M 473.089846 287.19 
L 478.202716 287.19 
L 478.202716 195.280362 
L 473.089846 195.280362 
z
" clip-path="url(#pb68a6da068)" style="fill: #808080; opacity: 0.4; stroke: #ffffff; stroke-linejoin: miter"/>
   </g>
   <g id="patch_112">
    <path d="M 478.202716 287.19 
L 483.315586 287.19 
L 483.315586 210.858267 
L 478.202716 210.858267 
z
" clip-path="url(#pb68a6da068)" style="fill: #808080; opacity: 0.4; stroke: #ffffff; stroke-linejoin: miter"/>
   </g>
   <g id="patch_113">
    <path d="M 483.315586 287.19 
L 488.428456 287.19 
L 488.428456 218.647219 
L 483.315586 218.647219 
z
" clip-path="url(#pb68a6da068)" style="fill: #808080; opacity: 0.4; stroke: #ffffff; stroke-linejoin: miter"/>
   </g>
   <g id="patch_114">
    <path d="M 488.428456 287.19 
L 493.541327 287.19 
L 493.541327 236.56181 
L 488.428456 236.56181 
z
" clip-path="url(#pb68a6da068)" style="fill: #808080; opacity: 0.4; stroke: #ffffff; stroke-linejoin: miter"/>
   </g>
   <g id="patch_115">
    <path d="M 493.541327 287.19 
L 498.654197 287.19 
L 498.654197 256.813086 
L 493.541327 256.813086 
z
" clip-path="url(#pb68a6da068)" style="fill: #808080; opacity: 0.4; stroke: #ffffff; stroke-linejoin: miter"/>
   </g>
   <g id="patch_116">
    <path d="M 498.654197 287.19 
L 503.767067 287.19 
L 503.767067 270.054305 
L 498.654197 270.054305 
z
" clip-path="url(#pb68a6da068)" style="fill: #808080; opacity: 0.4; stroke: #ffffff; stroke-linejoin: miter"/>
   </g>
   <g id="patch_117">
    <path d="M 503.767067 287.19 
L 508.879937 287.19 
L 508.879937 280.179943 
L 503.767067 280.179943 
z
" clip-path="url(#pb68a6da068)" style="fill: #808080; opacity: 0.4; stroke: #ffffff; stroke-linejoin: miter"/>
   </g>
   <g id="patch_118">
    <path d="M 508.879937 287.19 
L 513.992808 287.19 
L 513.992808 283.295524 
L 508.879937 283.295524 
z
" clip-path="url(#pb68a6da068)" style="fill: #808080; opacity: 0.4; stroke: #ffffff; stroke-linejoin: miter"/>
   </g>
   <g id="patch_119">
    <path d="M 513.992808 287.19 
L 519.105678 287.19 
L 519.105678 285.63221 
L 513.992808 285.63221 
z
" clip-path="url(#pb68a6da068)" style="fill: #808080; opacity: 0.4; stroke: #ffffff; stroke-linejoin: miter"/>
   </g>
   <g id="patch_120">
    <path d="M 322.34 287.19 
L 322.34 184.96 
" style="fill: none; stroke: #262626; stroke-width: 1.25; stroke-linejoin: miter; stroke-linecap: square"/>
   </g>
   <g id="patch_121">
    <path d="M 322.34 287.19 
L 558 287.19 
" style="fill: none; stroke: #262626; stroke-width: 1.25; stroke-linejoin: miter; stroke-linecap: square"/>
   </g>
   <g id="text_48">
    <!-- LOGTYPES -->
    <g style="fill: #262626" transform="translate(407.82625 178.96) scale(0.12 -0.12)">
     <defs>
      <path id="ArialMT-4f" d="M 309 2231 
Q 309 3372 921 4017 
Q 1534 4663 2503 4663 
Q 3138 4663 3647 4359 
Q 4156 4056 4423 3514 
Q 4691 2972 4691 2284 
Q 4691 1588 4409 1038 
Q 4128 488 3612 205 
Q 3097 -78 2500 -78 
Q 1853 -78 1343 234 
Q 834 547 571 1087 
Q 309 1628 309 2231 
z
M 934 2222 
Q 934 1394 1379 917 
Q 1825 441 2497 441 
Q 3181 441 3623 922 
Q 4066 1403 4066 2288 
Q 4066 2847 3877 3264 
Q 3688 3681 3323 3911 
Q 2959 4141 2506 4141 
Q 1863 4141 1398 3698 
Q 934 3256 934 2222 
z
" transform="scale(0.015625)"/>
      <path id="ArialMT-54" d="M 1659 0 
L 1659 4041 
L 150 4041 
L 150 4581 
L 3781 4581 
L 3781 4041 
L 2266 4041 
L 2266 0 
L 1659 0 
z
" transform="scale(0.015625)"/>
      <path id="ArialMT-59" d="M 1784 0 
L 1784 1941 
L 19 4581 
L 756 4581 
L 1659 3200 
Q 1909 2813 2125 2425 
Q 2331 2784 2625 3234 
L 3513 4581 
L 4219 4581 
L 2391 1941 
L 2391 0 
L 1784 0 
z
" transform="scale(0.015625)"/>
     </defs>
     <use xlink:href="#ArialMT-4c"/>
     <use xlink:href="#ArialMT-4f" transform="translate(55.615234 0)"/>
     <use xlink:href="#ArialMT-47" transform="translate(133.398438 0)"/>
     <use xlink:href="#ArialMT-54" transform="translate(211.181641 0)"/>
     <use xlink:href="#ArialMT-59" transform="translate(272.265625 0)"/>
     <use xlink:href="#ArialMT-50" transform="translate(338.964844 0)"/>
     <use xlink:href="#ArialMT-45" transform="translate(405.664062 0)"/>
     <use xlink:href="#ArialMT-53" transform="translate(472.363281 0)"/>
    </g>
   </g>
  </g>
  <g id="axes_5">
   <g id="patch_122">
    <path d="M 40.82 444.55 
L 276.48 444.55 
L 276.48 342.32 
L 40.82 342.32 
z
" style="fill: #ffffff"/>
   </g>
   <g id="matplotlib.axis_9">
    <g id="xtick_33">
     <g id="text_49">
      <!-- -5.0 -->
      <g style="fill: #262626" transform="translate(43.663672 473.002656) rotate(-90) scale(0.11 -0.11)">
       <use xlink:href="#ArialMT-2d"/>
       <use xlink:href="#ArialMT-35" transform="translate(33.300781 0)"/>
       <use xlink:href="#ArialMT-2e" transform="translate(88.916016 0)"/>
       <use xlink:href="#ArialMT-30" transform="translate(116.699219 0)"/>
      </g>
     </g>
    </g>
    <g id="xtick_34">
     <g id="text_50">
      <!-- -4.0 -->
      <g style="fill: #262626" transform="translate(73.121172 473.002656) rotate(-90) scale(0.11 -0.11)">
       <use xlink:href="#ArialMT-2d"/>
       <use xlink:href="#ArialMT-34" transform="translate(33.300781 0)"/>
       <use xlink:href="#ArialMT-2e" transform="translate(88.916016 0)"/>
       <use xlink:href="#ArialMT-30" transform="translate(116.699219 0)"/>
      </g>
     </g>
    </g>
    <g id="xtick_35">
     <g id="text_51">
      <!-- -3.0 -->
      <g style="fill: #262626" transform="translate(102.578672 473.002656) rotate(-90) scale(0.11 -0.11)">
       <use xlink:href="#ArialMT-2d"/>
       <use xlink:href="#ArialMT-33" transform="translate(33.300781 0)"/>
       <use xlink:href="#ArialMT-2e" transform="translate(88.916016 0)"/>
       <use xlink:href="#ArialMT-30" transform="translate(116.699219 0)"/>
      </g>
     </g>
    </g>
    <g id="xtick_36">
     <g id="text_52">
      <!-- -2.0 -->
      <g style="fill: #262626" transform="translate(132.036172 473.002656) rotate(-90) scale(0.11 -0.11)">
       <use xlink:href="#ArialMT-2d"/>
       <use xlink:href="#ArialMT-32" transform="translate(33.300781 0)"/>
       <use xlink:href="#ArialMT-2e" transform="translate(88.916016 0)"/>
       <use xlink:href="#ArialMT-30" transform="translate(116.699219 0)"/>
      </g>
     </g>
    </g>
    <g id="xtick_37">
     <g id="text_53">
      <!-- -1.0 -->
      <g style="fill: #262626" transform="translate(161.493672 473.002656) rotate(-90) scale(0.11 -0.11)">
       <use xlink:href="#ArialMT-2d"/>
       <use xlink:href="#ArialMT-31" transform="translate(33.300781 0)"/>
       <use xlink:href="#ArialMT-2e" transform="translate(88.916016 0)"/>
       <use xlink:href="#ArialMT-30" transform="translate(116.699219 0)"/>
      </g>
     </g>
    </g>
    <g id="xtick_38">
     <g id="text_54">
      <!-- 0.0 -->
      <g style="fill: #262626" transform="translate(190.951172 469.34) rotate(-90) scale(0.11 -0.11)">
       <use xlink:href="#ArialMT-30"/>
       <use xlink:href="#ArialMT-2e" transform="translate(55.615234 0)"/>
       <use xlink:href="#ArialMT-30" transform="translate(83.398438 0)"/>
      </g>
     </g>
    </g>
    <g id="xtick_39">
     <g id="text_55">
      <!-- 1.0 -->
      <g style="fill: #262626" transform="translate(220.408672 469.34) rotate(-90) scale(0.11 -0.11)">
       <use xlink:href="#ArialMT-31"/>
       <use xlink:href="#ArialMT-2e" transform="translate(55.615234 0)"/>
       <use xlink:href="#ArialMT-30" transform="translate(83.398438 0)"/>
      </g>
     </g>
    </g>
    <g id="xtick_40">
     <g id="text_56">
      <!-- 2.0 -->
      <g style="fill: #262626" transform="translate(249.866172 469.34) rotate(-90) scale(0.11 -0.11)">
       <use xlink:href="#ArialMT-32"/>
       <use xlink:href="#ArialMT-2e" transform="translate(55.615234 0)"/>
       <use xlink:href="#ArialMT-30" transform="translate(83.398438 0)"/>
      </g>
     </g>
    </g>
    <g id="xtick_41">
     <g id="text_57">
      <!-- 3.0 -->
      <g style="fill: #262626" transform="translate(279.323672 469.34) rotate(-90) scale(0.11 -0.11)">
       <use xlink:href="#ArialMT-33"/>
       <use xlink:href="#ArialMT-2e" transform="translate(55.615234 0)"/>
       <use xlink:href="#ArialMT-30" transform="translate(83.398438 0)"/>
      </g>
     </g>
    </g>
   </g>
   <g id="matplotlib.axis_10">
    <g id="ytick_13">
     <g id="text_58">
      <!-- 0 -->
      <g style="fill: #262626" transform="translate(25.202969 448.486797) scale(0.11 -0.11)">
       <use xlink:href="#ArialMT-30"/>
      </g>
     </g>
    </g>
    <g id="ytick_14">
     <g id="text_59">
      <!-- 50 -->
      <g style="fill: #262626" transform="translate(19.085938 413.210744) scale(0.11 -0.11)">
       <use xlink:href="#ArialMT-35"/>
       <use xlink:href="#ArialMT-30" transform="translate(55.615234 0)"/>
      </g>
     </g>
    </g>
    <g id="ytick_15">
     <g id="text_60">
      <!-- 100 -->
      <g style="fill: #262626" transform="translate(12.968906 377.934692) scale(0.11 -0.11)">
       <use xlink:href="#ArialMT-31"/>
       <use xlink:href="#ArialMT-30" transform="translate(55.615234 0)"/>
       <use xlink:href="#ArialMT-30" transform="translate(111.230469 0)"/>
      </g>
     </g>
    </g>
   </g>
   <g id="patch_123">
    <path d="M 63.437507 444.55 
L 69.864161 444.55 
L 69.864161 437.49479 
L 63.437507 437.49479 
z
" clip-path="url(#p507edfc21e)" style="fill: #808080; opacity: 0.4; stroke: #ffffff; stroke-linejoin: miter"/>
   </g>
   <g id="patch_124">
    <path d="M 69.864161 444.55 
L 76.290814 444.55 
L 76.290814 443.138958 
L 69.864161 443.138958 
z
" clip-path="url(#p507edfc21e)" style="fill: #808080; opacity: 0.4; stroke: #ffffff; stroke-linejoin: miter"/>
   </g>
   <g id="patch_125">
    <path d="M 76.290814 444.55 
L 82.717468 444.55 
L 82.717468 443.844479 
L 76.290814 443.844479 
z
" clip-path="url(#p507edfc21e)" style="fill: #808080; opacity: 0.4; stroke: #ffffff; stroke-linejoin: miter"/>
   </g>
   <g id="patch_126">
    <path d="M 82.717468 444.55 
L 89.144122 444.55 
L 89.144122 443.138958 
L 82.717468 443.138958 
z
" clip-path="url(#p507edfc21e)" style="fill: #808080; opacity: 0.4; stroke: #ffffff; stroke-linejoin: miter"/>
   </g>
   <g id="patch_127">
    <path d="M 89.144122 444.55 
L 95.570775 444.55 
L 95.570775 441.022395 
L 89.144122 441.022395 
z
" clip-path="url(#p507edfc21e)" style="fill: #808080; opacity: 0.4; stroke: #ffffff; stroke-linejoin: miter"/>
   </g>
   <g id="patch_128">
    <path d="M 95.570775 444.55 
L 101.997429 444.55 
L 101.997429 443.844479 
L 95.570775 443.844479 
z
" clip-path="url(#p507edfc21e)" style="fill: #808080; opacity: 0.4; stroke: #ffffff; stroke-linejoin: miter"/>
   </g>
   <g id="patch_129">
    <path d="M 101.997429 444.55 
L 108.424083 444.55 
L 108.424083 441.727916 
L 101.997429 441.727916 
z
" clip-path="url(#p507edfc21e)" style="fill: #808080; opacity: 0.4; stroke: #ffffff; stroke-linejoin: miter"/>
   </g>
   <g id="patch_130">
    <path d="M 108.424083 444.55 
L 114.850736 444.55 
L 114.850736 438.200311 
L 108.424083 438.200311 
z
" clip-path="url(#p507edfc21e)" style="fill: #808080; opacity: 0.4; stroke: #ffffff; stroke-linejoin: miter"/>
   </g>
   <g id="patch_131">
    <path d="M 114.850736 444.55 
L 121.27739 444.55 
L 121.27739 440.316874 
L 114.850736 440.316874 
z
" clip-path="url(#p507edfc21e)" style="fill: #808080; opacity: 0.4; stroke: #ffffff; stroke-linejoin: miter"/>
   </g>
   <g id="patch_132">
    <path d="M 121.27739 444.55 
L 127.704044 444.55 
L 127.704044 439.611353 
L 121.27739 439.611353 
z
" clip-path="url(#p507edfc21e)" style="fill: #808080; opacity: 0.4; stroke: #ffffff; stroke-linejoin: miter"/>
   </g>
   <g id="patch_133">
    <path d="M 127.704044 444.55 
L 134.130697 444.55 
L 134.130697 437.49479 
L 127.704044 437.49479 
z
" clip-path="url(#p507edfc21e)" style="fill: #808080; opacity: 0.4; stroke: #ffffff; stroke-linejoin: miter"/>
   </g>
   <g id="patch_134">
    <path d="M 134.130697 444.55 
L 140.557351 444.55 
L 140.557351 432.556142 
L 134.130697 432.556142 
z
" clip-path="url(#p507edfc21e)" style="fill: #808080; opacity: 0.4; stroke: #ffffff; stroke-linejoin: miter"/>
   </g>
   <g id="patch_135">
    <path d="M 140.557351 444.55 
L 146.984005 444.55 
L 146.984005 430.439579 
L 140.557351 430.439579 
z
" clip-path="url(#p507edfc21e)" style="fill: #808080; opacity: 0.4; stroke: #ffffff; stroke-linejoin: miter"/>
   </g>
   <g id="patch_136">
    <path d="M 146.984005 444.55 
L 153.410658 444.55 
L 153.410658 423.384369 
L 146.984005 423.384369 
z
" clip-path="url(#p507edfc21e)" style="fill: #808080; opacity: 0.4; stroke: #ffffff; stroke-linejoin: miter"/>
   </g>
   <g id="patch_137">
    <path d="M 153.410658 444.55 
L 159.837312 444.55 
L 159.837312 419.151242 
L 153.410658 419.151242 
z
" clip-path="url(#p507edfc21e)" style="fill: #808080; opacity: 0.4; stroke: #ffffff; stroke-linejoin: miter"/>
   </g>
   <g id="patch_138">
    <path d="M 159.837312 444.55 
L 166.263966 444.55 
L 166.263966 402.924258 
L 159.837312 402.924258 
z
" clip-path="url(#p507edfc21e)" style="fill: #808080; opacity: 0.4; stroke: #ffffff; stroke-linejoin: miter"/>
   </g>
   <g id="patch_139">
    <path d="M 166.263966 444.55 
L 172.690619 444.55 
L 172.690619 390.224879 
L 166.263966 390.224879 
z
" clip-path="url(#p507edfc21e)" style="fill: #808080; opacity: 0.4; stroke: #ffffff; stroke-linejoin: miter"/>
   </g>
   <g id="patch_140">
    <path d="M 172.690619 444.55 
L 179.117273 444.55 
L 179.117273 398.691132 
L 172.690619 398.691132 
z
" clip-path="url(#p507edfc21e)" style="fill: #808080; opacity: 0.4; stroke: #ffffff; stroke-linejoin: miter"/>
   </g>
   <g id="patch_141">
    <path d="M 179.117273 444.55 
L 185.543927 444.55 
L 185.543927 375.408937 
L 179.117273 375.408937 
z
" clip-path="url(#p507edfc21e)" style="fill: #808080; opacity: 0.4; stroke: #ffffff; stroke-linejoin: miter"/>
   </g>
   <g id="patch_142">
    <path d="M 185.543927 444.55 
L 191.97058 444.55 
L 191.97058 362.004037 
L 185.543927 362.004037 
z
" clip-path="url(#p507edfc21e)" style="fill: #808080; opacity: 0.4; stroke: #ffffff; stroke-linejoin: miter"/>
   </g>
   <g id="patch_143">
    <path d="M 191.97058 444.55 
L 198.397234 444.55 
L 198.397234 353.537785 
L 191.97058 353.537785 
z
" clip-path="url(#p507edfc21e)" style="fill: #808080; opacity: 0.4; stroke: #ffffff; stroke-linejoin: miter"/>
   </g>
   <g id="patch_144">
    <path d="M 198.397234 444.55 
L 204.823888 444.55 
L 204.823888 347.188095 
L 198.397234 347.188095 
z
" clip-path="url(#p507edfc21e)" style="fill: #808080; opacity: 0.4; stroke: #ffffff; stroke-linejoin: miter"/>
   </g>
   <g id="patch_145">
    <path d="M 204.823888 444.55 
L 211.250541 444.55 
L 211.250541 361.298516 
L 204.823888 361.298516 
z
" clip-path="url(#p507edfc21e)" style="fill: #808080; opacity: 0.4; stroke: #ffffff; stroke-linejoin: miter"/>
   </g>
   <g id="patch_146">
    <path d="M 211.250541 444.55 
L 217.677195 444.55 
L 217.677195 385.991753 
L 211.250541 385.991753 
z
" clip-path="url(#p507edfc21e)" style="fill: #808080; opacity: 0.4; stroke: #ffffff; stroke-linejoin: miter"/>
   </g>
   <g id="patch_147">
    <path d="M 217.677195 444.55 
L 224.103849 444.55 
L 224.103849 384.580711 
L 217.677195 384.580711 
z
" clip-path="url(#p507edfc21e)" style="fill: #808080; opacity: 0.4; stroke: #ffffff; stroke-linejoin: miter"/>
   </g>
   <g id="patch_148">
    <path d="M 224.103849 444.55 
L 230.530502 444.55 
L 230.530502 421.267805 
L 224.103849 421.267805 
z
" clip-path="url(#p507edfc21e)" style="fill: #808080; opacity: 0.4; stroke: #ffffff; stroke-linejoin: miter"/>
   </g>
   <g id="patch_149">
    <path d="M 230.530502 444.55 
L 236.957156 444.55 
L 236.957156 431.1451 
L 230.530502 431.1451 
z
" clip-path="url(#p507edfc21e)" style="fill: #808080; opacity: 0.4; stroke: #ffffff; stroke-linejoin: miter"/>
   </g>
   <g id="patch_150">
    <path d="M 236.957156 444.55 
L 243.38381 444.55 
L 243.38381 438.200311 
L 236.957156 438.200311 
z
" clip-path="url(#p507edfc21e)" style="fill: #808080; opacity: 0.4; stroke: #ffffff; stroke-linejoin: miter"/>
   </g>
   <g id="patch_151">
    <path d="M 243.38381 444.55 
L 249.810463 444.55 
L 249.810463 441.022395 
L 243.38381 441.022395 
z
" clip-path="url(#p507edfc21e)" style="fill: #808080; opacity: 0.4; stroke: #ffffff; stroke-linejoin: miter"/>
   </g>
   <g id="patch_152">
    <path d="M 40.82 444.55 
L 40.82 342.32 
" style="fill: none; stroke: #262626; stroke-width: 1.25; stroke-linejoin: miter; stroke-linecap: square"/>
   </g>
   <g id="patch_153">
    <path d="M 40.82 444.55 
L 276.48 444.55 
" style="fill: none; stroke: #262626; stroke-width: 1.25; stroke-linejoin: miter; stroke-linecap: square"/>
   </g>
   <g id="text_61">
    <!-- LOGWORDS -->
    <g style="fill: #262626" transform="translate(122.980938 336.32) scale(0.12 -0.12)">
     <defs>
      <path id="ArialMT-52" d="M 503 0 
L 503 4581 
L 2534 4581 
Q 3147 4581 3465 4457 
Q 3784 4334 3975 4021 
Q 4166 3709 4166 3331 
Q 4166 2844 3850 2509 
Q 3534 2175 2875 2084 
Q 3116 1969 3241 1856 
Q 3506 1613 3744 1247 
L 4541 0 
L 3778 0 
L 3172 953 
Q 2906 1366 2734 1584 
Q 2563 1803 2427 1890 
Q 2291 1978 2150 2013 
Q 2047 2034 1813 2034 
L 1109 2034 
L 1109 0 
L 503 0 
z
M 1109 2559 
L 2413 2559 
Q 2828 2559 3062 2645 
Q 3297 2731 3419 2920 
Q 3541 3109 3541 3331 
Q 3541 3656 3305 3865 
Q 3069 4075 2559 4075 
L 1109 4075 
L 1109 2559 
z
" transform="scale(0.015625)"/>
     </defs>
     <use xlink:href="#ArialMT-4c"/>
     <use xlink:href="#ArialMT-4f" transform="translate(55.615234 0)"/>
     <use xlink:href="#ArialMT-47" transform="translate(133.398438 0)"/>
     <use xlink:href="#ArialMT-57" transform="translate(211.181641 0)"/>
     <use xlink:href="#ArialMT-4f" transform="translate(305.566406 0)"/>
     <use xlink:href="#ArialMT-52" transform="translate(383.349609 0)"/>
     <use xlink:href="#ArialMT-44" transform="translate(455.566406 0)"/>
     <use xlink:href="#ArialMT-53" transform="translate(527.783203 0)"/>
    </g>
   </g>
  </g>
  <g id="axes_6">
   <g id="patch_154">
    <path d="M 322.34 444.55 
L 558 444.55 
L 558 342.32 
L 322.34 342.32 
z
" style="fill: #ffffff"/>
   </g>
   <g id="matplotlib.axis_11">
    <g id="xtick_42">
     <g id="text_62">
      <!-- 0.0 -->
      <g style="fill: #262626" transform="translate(325.183672 469.34) rotate(-90) scale(0.11 -0.11)">
       <use xlink:href="#ArialMT-30"/>
       <use xlink:href="#ArialMT-2e" transform="translate(55.615234 0)"/>
       <use xlink:href="#ArialMT-30" transform="translate(83.398438 0)"/>
      </g>
     </g>
    </g>
    <g id="xtick_43">
     <g id="text_63">
      <!-- 1.0 -->
      <g style="fill: #262626" transform="translate(358.849386 469.34) rotate(-90) scale(0.11 -0.11)">
       <use xlink:href="#ArialMT-31"/>
       <use xlink:href="#ArialMT-2e" transform="translate(55.615234 0)"/>
       <use xlink:href="#ArialMT-30" transform="translate(83.398438 0)"/>
      </g>
     </g>
    </g>
    <g id="xtick_44">
     <g id="text_64">
      <!-- 2.0 -->
      <g style="fill: #262626" transform="translate(392.5151 469.34) rotate(-90) scale(0.11 -0.11)">
       <use xlink:href="#ArialMT-32"/>
       <use xlink:href="#ArialMT-2e" transform="translate(55.615234 0)"/>
       <use xlink:href="#ArialMT-30" transform="translate(83.398438 0)"/>
      </g>
     </g>
    </g>
    <g id="xtick_45">
     <g id="text_65">
      <!-- 3.0 -->
      <g style="fill: #262626" transform="translate(426.180815 469.34) rotate(-90) scale(0.11 -0.11)">
       <use xlink:href="#ArialMT-33"/>
       <use xlink:href="#ArialMT-2e" transform="translate(55.615234 0)"/>
       <use xlink:href="#ArialMT-30" transform="translate(83.398438 0)"/>
      </g>
     </g>
    </g>
    <g id="xtick_46">
     <g id="text_66">
      <!-- 4.0 -->
      <g style="fill: #262626" transform="translate(459.846529 469.34) rotate(-90) scale(0.11 -0.11)">
       <use xlink:href="#ArialMT-34"/>
       <use xlink:href="#ArialMT-2e" transform="translate(55.615234 0)"/>
       <use xlink:href="#ArialMT-30" transform="translate(83.398438 0)"/>
      </g>
     </g>
    </g>
    <g id="xtick_47">
     <g id="text_67">
      <!-- 5.0 -->
      <g style="fill: #262626" transform="translate(493.512243 469.34) rotate(-90) scale(0.11 -0.11)">
       <use xlink:href="#ArialMT-35"/>
       <use xlink:href="#ArialMT-2e" transform="translate(55.615234 0)"/>
       <use xlink:href="#ArialMT-30" transform="translate(83.398438 0)"/>
      </g>
     </g>
    </g>
    <g id="xtick_48">
     <g id="text_68">
      <!-- 6.0 -->
      <g style="fill: #262626" transform="translate(527.177958 469.34) rotate(-90) scale(0.11 -0.11)">
       <use xlink:href="#ArialMT-36"/>
       <use xlink:href="#ArialMT-2e" transform="translate(55.615234 0)"/>
       <use xlink:href="#ArialMT-30" transform="translate(83.398438 0)"/>
      </g>
     </g>
    </g>
    <g id="xtick_49">
     <g id="text_69">
      <!-- 7.0 -->
      <g style="fill: #262626" transform="translate(560.843672 469.34) rotate(-90) scale(0.11 -0.11)">
       <defs>
        <path id="ArialMT-37" d="M 303 3981 
L 303 4522 
L 3269 4522 
L 3269 4084 
Q 2831 3619 2401 2847 
Q 1972 2075 1738 1259 
Q 1569 684 1522 0 
L 944 0 
Q 953 541 1156 1306 
Q 1359 2072 1739 2783 
Q 2119 3494 2547 3981 
L 303 3981 
z
" transform="scale(0.015625)"/>
       </defs>
       <use xlink:href="#ArialMT-37"/>
       <use xlink:href="#ArialMT-2e" transform="translate(55.615234 0)"/>
       <use xlink:href="#ArialMT-30" transform="translate(83.398438 0)"/>
      </g>
     </g>
    </g>
   </g>
   <g id="matplotlib.axis_12">
    <g id="ytick_16">
     <g id="text_70">
      <!-- 0 -->
      <g style="fill: #262626" transform="translate(306.722969 448.486797) scale(0.11 -0.11)">
       <use xlink:href="#ArialMT-30"/>
      </g>
     </g>
    </g>
    <g id="ytick_17">
     <g id="text_71">
      <!-- 200 -->
      <g style="fill: #262626" transform="translate(294.488906 417.479821) scale(0.11 -0.11)">
       <use xlink:href="#ArialMT-32"/>
       <use xlink:href="#ArialMT-30" transform="translate(55.615234 0)"/>
       <use xlink:href="#ArialMT-30" transform="translate(111.230469 0)"/>
      </g>
     </g>
    </g>
    <g id="ytick_18">
     <g id="text_72">
      <!-- 400 -->
      <g style="fill: #262626" transform="translate(294.488906 386.472845) scale(0.11 -0.11)">
       <use xlink:href="#ArialMT-34"/>
       <use xlink:href="#ArialMT-30" transform="translate(55.615234 0)"/>
       <use xlink:href="#ArialMT-30" transform="translate(111.230469 0)"/>
      </g>
     </g>
    </g>
    <g id="ytick_19">
     <g id="text_73">
      <!-- 600 -->
      <g style="fill: #262626" transform="translate(294.488906 355.465869) scale(0.11 -0.11)">
       <use xlink:href="#ArialMT-36"/>
       <use xlink:href="#ArialMT-30" transform="translate(55.615234 0)"/>
       <use xlink:href="#ArialMT-30" transform="translate(111.230469 0)"/>
      </g>
     </g>
    </g>
   </g>
   <g id="patch_155">
    <path d="M 356.005714 444.55 
L 362.240106 444.55 
L 362.240106 443.464756 
L 356.005714 443.464756 
z
" clip-path="url(#p335268f39f)" style="fill: #808080; opacity: 0.4; stroke: #ffffff; stroke-linejoin: miter"/>
   </g>
   <g id="patch_156">
    <path d="M 362.240106 444.55 
L 368.474497 444.55 
L 368.474497 444.55 
L 362.240106 444.55 
z
" clip-path="url(#p335268f39f)" style="fill: #808080; opacity: 0.4; stroke: #ffffff; stroke-linejoin: miter"/>
   </g>
   <g id="patch_157">
    <path d="M 368.474497 444.55 
L 374.708889 444.55 
L 374.708889 444.55 
L 368.474497 444.55 
z
" clip-path="url(#p335268f39f)" style="fill: #808080; opacity: 0.4; stroke: #ffffff; stroke-linejoin: miter"/>
   </g>
   <g id="patch_158">
    <path d="M 374.708889 444.55 
L 380.94328 444.55 
L 380.94328 444.55 
L 374.708889 444.55 
z
" clip-path="url(#p335268f39f)" style="fill: #808080; opacity: 0.4; stroke: #ffffff; stroke-linejoin: miter"/>
   </g>
   <g id="patch_159">
    <path d="M 380.94328 444.55 
L 387.177672 444.55 
L 387.177672 444.55 
L 380.94328 444.55 
z
" clip-path="url(#p335268f39f)" style="fill: #808080; opacity: 0.4; stroke: #ffffff; stroke-linejoin: miter"/>
   </g>
   <g id="patch_160">
    <path d="M 387.177672 444.55 
L 393.412063 444.55 
L 393.412063 441.759372 
L 387.177672 441.759372 
z
" clip-path="url(#p335268f39f)" style="fill: #808080; opacity: 0.4; stroke: #ffffff; stroke-linejoin: miter"/>
   </g>
   <g id="patch_161">
    <path d="M 393.412063 444.55 
L 399.646455 444.55 
L 399.646455 444.55 
L 393.412063 444.55 
z
" clip-path="url(#p335268f39f)" style="fill: #808080; opacity: 0.4; stroke: #ffffff; stroke-linejoin: miter"/>
   </g>
   <g id="patch_162">
    <path d="M 399.646455 444.55 
L 405.880847 444.55 
L 405.880847 444.55 
L 399.646455 444.55 
z
" clip-path="url(#p335268f39f)" style="fill: #808080; opacity: 0.4; stroke: #ffffff; stroke-linejoin: miter"/>
   </g>
   <g id="patch_163">
    <path d="M 405.880847 444.55 
L 412.115238 444.55 
L 412.115238 444.55 
L 405.880847 444.55 
z
" clip-path="url(#p335268f39f)" style="fill: #808080; opacity: 0.4; stroke: #ffffff; stroke-linejoin: miter"/>
   </g>
   <g id="patch_164">
    <path d="M 412.115238 444.55 
L 418.34963 444.55 
L 418.34963 444.55 
L 412.115238 444.55 
z
" clip-path="url(#p335268f39f)" style="fill: #808080; opacity: 0.4; stroke: #ffffff; stroke-linejoin: miter"/>
   </g>
   <g id="patch_165">
    <path d="M 418.34963 444.55 
L 424.584021 444.55 
L 424.584021 424.86057 
L 418.34963 424.86057 
z
" clip-path="url(#p335268f39f)" style="fill: #808080; opacity: 0.4; stroke: #ffffff; stroke-linejoin: miter"/>
   </g>
   <g id="patch_166">
    <path d="M 424.584021 444.55 
L 430.818413 444.55 
L 430.818413 444.55 
L 424.584021 444.55 
z
" clip-path="url(#p335268f39f)" style="fill: #808080; opacity: 0.4; stroke: #ffffff; stroke-linejoin: miter"/>
   </g>
   <g id="patch_167">
    <path d="M 430.818413 444.55 
L 437.052804 444.55 
L 437.052804 444.55 
L 430.818413 444.55 
z
" clip-path="url(#p335268f39f)" style="fill: #808080; opacity: 0.4; stroke: #ffffff; stroke-linejoin: miter"/>
   </g>
   <g id="patch_168">
    <path d="M 437.052804 444.55 
L 443.287196 444.55 
L 443.287196 444.55 
L 437.052804 444.55 
z
" clip-path="url(#p335268f39f)" style="fill: #808080; opacity: 0.4; stroke: #ffffff; stroke-linejoin: miter"/>
   </g>
   <g id="patch_169">
    <path d="M 443.287196 444.55 
L 449.521587 444.55 
L 449.521587 444.55 
L 443.287196 444.55 
z
" clip-path="url(#p335268f39f)" style="fill: #808080; opacity: 0.4; stroke: #ffffff; stroke-linejoin: miter"/>
   </g>
   <g id="patch_170">
    <path d="M 449.521587 444.55 
L 455.755979 444.55 
L 455.755979 444.55 
L 449.521587 444.55 
z
" clip-path="url(#p335268f39f)" style="fill: #808080; opacity: 0.4; stroke: #ffffff; stroke-linejoin: miter"/>
   </g>
   <g id="patch_171">
    <path d="M 455.755979 444.55 
L 461.99037 444.55 
L 461.99037 347.188095 
L 455.755979 347.188095 
z
" clip-path="url(#p335268f39f)" style="fill: #808080; opacity: 0.4; stroke: #ffffff; stroke-linejoin: miter"/>
   </g>
   <g id="patch_172">
    <path d="M 461.99037 444.55 
L 468.224762 444.55 
L 468.224762 444.55 
L 461.99037 444.55 
z
" clip-path="url(#p335268f39f)" style="fill: #808080; opacity: 0.4; stroke: #ffffff; stroke-linejoin: miter"/>
   </g>
   <g id="patch_173">
    <path d="M 468.224762 444.55 
L 474.459153 444.55 
L 474.459153 444.55 
L 468.224762 444.55 
z
" clip-path="url(#p335268f39f)" style="fill: #808080; opacity: 0.4; stroke: #ffffff; stroke-linejoin: miter"/>
   </g>
   <g id="patch_174">
    <path d="M 474.459153 444.55 
L 480.693545 444.55 
L 480.693545 444.55 
L 474.459153 444.55 
z
" clip-path="url(#p335268f39f)" style="fill: #808080; opacity: 0.4; stroke: #ffffff; stroke-linejoin: miter"/>
   </g>
   <g id="patch_175">
    <path d="M 480.693545 444.55 
L 486.927937 444.55 
L 486.927937 444.55 
L 480.693545 444.55 
z
" clip-path="url(#p335268f39f)" style="fill: #808080; opacity: 0.4; stroke: #ffffff; stroke-linejoin: miter"/>
   </g>
   <g id="patch_176">
    <path d="M 486.927937 444.55 
L 493.162328 444.55 
L 493.162328 391.993176 
L 486.927937 391.993176 
z
" clip-path="url(#p335268f39f)" style="fill: #808080; opacity: 0.4; stroke: #ffffff; stroke-linejoin: miter"/>
   </g>
   <g id="patch_177">
    <path d="M 493.162328 444.55 
L 499.39672 444.55 
L 499.39672 444.55 
L 493.162328 444.55 
z
" clip-path="url(#p335268f39f)" style="fill: #808080; opacity: 0.4; stroke: #ffffff; stroke-linejoin: miter"/>
   </g>
   <g id="patch_178">
    <path d="M 499.39672 444.55 
L 505.631111 444.55 
L 505.631111 444.55 
L 499.39672 444.55 
z
" clip-path="url(#p335268f39f)" style="fill: #808080; opacity: 0.4; stroke: #ffffff; stroke-linejoin: miter"/>
   </g>
   <g id="patch_179">
    <path d="M 505.631111 444.55 
L 511.865503 444.55 
L 511.865503 444.55 
L 505.631111 444.55 
z
" clip-path="url(#p335268f39f)" style="fill: #808080; opacity: 0.4; stroke: #ffffff; stroke-linejoin: miter"/>
   </g>
   <g id="patch_180">
    <path d="M 511.865503 444.55 
L 518.099894 444.55 
L 518.099894 444.55 
L 511.865503 444.55 
z
" clip-path="url(#p335268f39f)" style="fill: #808080; opacity: 0.4; stroke: #ffffff; stroke-linejoin: miter"/>
   </g>
   <g id="patch_181">
    <path d="M 518.099894 444.55 
L 524.334286 444.55 
L 524.334286 432.767349 
L 518.099894 432.767349 
z
" clip-path="url(#p335268f39f)" style="fill: #808080; opacity: 0.4; stroke: #ffffff; stroke-linejoin: miter"/>
   </g>
   <g id="patch_182">
    <path d="M 322.34 444.55 
L 322.34 342.32 
" style="fill: none; stroke: #262626; stroke-width: 1.25; stroke-linejoin: miter; stroke-linecap: square"/>
   </g>
   <g id="patch_183">
    <path d="M 322.34 444.55 
L 558 444.55 
" style="fill: none; stroke: #262626; stroke-width: 1.25; stroke-linejoin: miter; stroke-linecap: square"/>
   </g>
   <g id="text_74">
    <!-- sc1 -->
    <g style="fill: #262626" transform="translate(430.833437 336.32) scale(0.12 -0.12)">
     <defs>
      <path id="ArialMT-73" d="M 197 991 
L 753 1078 
Q 800 744 1014 566 
Q 1228 388 1613 388 
Q 2000 388 2187 545 
Q 2375 703 2375 916 
Q 2375 1106 2209 1216 
Q 2094 1291 1634 1406 
Q 1016 1563 777 1677 
Q 538 1791 414 1992 
Q 291 2194 291 2438 
Q 291 2659 392 2848 
Q 494 3038 669 3163 
Q 800 3259 1026 3326 
Q 1253 3394 1513 3394 
Q 1903 3394 2198 3281 
Q 2494 3169 2634 2976 
Q 2775 2784 2828 2463 
L 2278 2388 
Q 2241 2644 2061 2787 
Q 1881 2931 1553 2931 
Q 1166 2931 1000 2803 
Q 834 2675 834 2503 
Q 834 2394 903 2306 
Q 972 2216 1119 2156 
Q 1203 2125 1616 2013 
Q 2213 1853 2448 1751 
Q 2684 1650 2818 1456 
Q 2953 1263 2953 975 
Q 2953 694 2789 445 
Q 2625 197 2315 61 
Q 2006 -75 1616 -75 
Q 969 -75 630 194 
Q 291 463 197 991 
z
" transform="scale(0.015625)"/>
      <path id="ArialMT-63" d="M 2588 1216 
L 3141 1144 
Q 3050 572 2676 248 
Q 2303 -75 1759 -75 
Q 1078 -75 664 370 
Q 250 816 250 1647 
Q 250 2184 428 2587 
Q 606 2991 970 3192 
Q 1334 3394 1763 3394 
Q 2303 3394 2647 3120 
Q 2991 2847 3088 2344 
L 2541 2259 
Q 2463 2594 2264 2762 
Q 2066 2931 1784 2931 
Q 1359 2931 1093 2626 
Q 828 2322 828 1663 
Q 828 994 1084 691 
Q 1341 388 1753 388 
Q 2084 388 2306 591 
Q 2528 794 2588 1216 
z
" transform="scale(0.015625)"/>
     </defs>
     <use xlink:href="#ArialMT-73"/>
     <use xlink:href="#ArialMT-63" transform="translate(50 0)"/>
     <use xlink:href="#ArialMT-31" transform="translate(100 0)"/>
    </g>
   </g>
  </g>
 </g>
 <defs>
  <clipPath id="pf17ed93dc8">
   <rect x="40.82" y="27.6" width="235.66" height="102.23"/>
  </clipPath>
  <clipPath id="pa51b8445df">
   <rect x="322.34" y="27.6" width="235.66" height="102.23"/>
  </clipPath>
  <clipPath id="p6fdca4759d">
   <rect x="40.82" y="184.96" width="235.66" height="102.23"/>
  </clipPath>
  <clipPath id="pb68a6da068">
   <rect x="322.34" y="184.96" width="235.66" height="102.23"/>
  </clipPath>
  <clipPath id="p507edfc21e">
   <rect x="40.82" y="342.32" width="235.66" height="102.23"/>
  </clipPath>
  <clipPath id="p335268f39f">
   <rect x="322.34" y="342.32" width="235.66" height="102.23"/>
  </clipPath>
 </defs>
</svg>
