<?xml version="1.0" encoding="utf-8" standalone="no"?>
<!DOCTYPE svg PUBLIC "-//W3C//DTD SVG 1.1//EN"
  "http://www.w3.org/Graphics/SVG/1.1/DTD/svg11.dtd">
<svg xmlns:xlink="http://www.w3.org/1999/xlink" width="576pt" height="486pt" viewBox="0 0 576 486" xmlns="http://www.w3.org/2000/svg" version="1.1">
 <metadata>
  <rdf:RDF xmlns:dc="http://purl.org/dc/elements/1.1/" xmlns:cc="http://creativecommons.org/ns#" xmlns:rdf="http://www.w3.org/1999/02/22-rdf-syntax-ns#">
   <cc:Work>
    <dc:type rdf:resource="http://purl.org/dc/dcmitype/StillImage"/>
    <dc:date>2024-12-30T22:54:11.859130</dc:date>
    <dc:format>image/svg+xml</dc:format>
    <dc:creator>
     <cc:Agent>
      <dc:title>Matplotlib v3.10.0, https://matplotlib.org/</dc:title>
     </cc:Agent>
    </dc:creator>
   </cc:Work>
  </rdf:RDF>
 </metadata>
 <defs>
  <style type="text/css">*{stroke-linejoin: round; stroke-linecap: butt}</style>
 </defs>
 <g id="figure_1">
  <g id="patch_1">
   <path d="M 0 486 
L 576 486 
L 576 0 
L 0 0 
z
" style="fill: #ffffff"/>
  </g>
  <g id="axes_1">
   <g id="patch_2">
    <path d="M 40.82 131.06 
L 276.48 131.06 
L 276.48 27.6 
L 40.82 27.6 
z
" style="fill: #ffffff"/>
   </g>
   <g id="matplotlib.axis_1">
    <g id="xtick_1">
     <g id="text_1">
      <!-- -5.0 -->
      <g style="fill: #262626" transform="translate(43.663672 159.512656) rotate(-90) scale(0.11 -0.11)">
       <defs>
        <path id="ArialMT-2d" d="M 203 1375 
L 203 1941 
L 1931 1941 
L 1931 1375 
L 203 1375 
z
" transform="scale(0.015625)"/>
        <path id="ArialMT-35" d="M 266 1200 
L 856 1250 
Q 922 819 1161 601 
Q 1400 384 1738 384 
Q 2144 384 2425 690 
Q 2706 997 2706 1503 
Q 2706 1984 2436 2262 
Q 2166 2541 1728 2541 
Q 1456 2541 1237 2417 
Q 1019 2294 894 2097 
L 366 2166 
L 809 4519 
L 3088 4519 
L 3088 3981 
L 1259 3981 
L 1013 2750 
Q 1425 3038 1878 3038 
Q 2478 3038 2890 2622 
Q 3303 2206 3303 1553 
Q 3303 931 2941 478 
Q 2500 -78 1738 -78 
Q 1113 -78 717 272 
Q 322 622 266 1200 
z
" transform="scale(0.015625)"/>
        <path id="ArialMT-2e" d="M 581 0 
L 581 641 
L 1222 641 
L 1222 0 
L 581 0 
z
" transform="scale(0.015625)"/>
        <path id="ArialMT-30" d="M 266 2259 
Q 266 3072 433 3567 
Q 600 4063 929 4331 
Q 1259 4600 1759 4600 
Q 2128 4600 2406 4451 
Q 2684 4303 2865 4023 
Q 3047 3744 3150 3342 
Q 3253 2941 3253 2259 
Q 3253 1453 3087 958 
Q 2922 463 2592 192 
Q 2263 -78 1759 -78 
Q 1097 -78 719 397 
Q 266 969 266 2259 
z
M 844 2259 
Q 844 1131 1108 757 
Q 1372 384 1759 384 
Q 2147 384 2411 759 
Q 2675 1134 2675 2259 
Q 2675 3391 2411 3762 
Q 2147 4134 1753 4134 
Q 1366 4134 1134 3806 
Q 844 3388 844 2259 
z
" transform="scale(0.015625)"/>
       </defs>
       <use xlink:href="#ArialMT-2d"/>
       <use xlink:href="#ArialMT-35" transform="translate(33.300781 0)"/>
       <use xlink:href="#ArialMT-2e" transform="translate(88.916016 0)"/>
       <use xlink:href="#ArialMT-30" transform="translate(116.699219 0)"/>
      </g>
     </g>
    </g>
    <g id="xtick_2">
     <g id="text_2">
      <!-- -4.0 -->
      <g style="fill: #262626" transform="translate(77.329386 159.512656) rotate(-90) scale(0.11 -0.11)">
       <defs>
        <path id="ArialMT-34" d="M 2069 0 
L 2069 1097 
L 81 1097 
L 81 1613 
L 2172 4581 
L 2631 4581 
L 2631 1613 
L 3250 1613 
L 3250 1097 
L 2631 1097 
L 2631 0 
L 2069 0 
z
M 2069 1613 
L 2069 3678 
L 634 1613 
L 2069 1613 
z
" transform="scale(0.015625)"/>
       </defs>
       <use xlink:href="#ArialMT-2d"/>
       <use xlink:href="#ArialMT-34" transform="translate(33.300781 0)"/>
       <use xlink:href="#ArialMT-2e" transform="translate(88.916016 0)"/>
       <use xlink:href="#ArialMT-30" transform="translate(116.699219 0)"/>
      </g>
     </g>
    </g>
    <g id="xtick_3">
     <g id="text_3">
      <!-- -3.0 -->
      <g style="fill: #262626" transform="translate(110.9951 159.512656) rotate(-90) scale(0.11 -0.11)">
       <defs>
        <path id="ArialMT-33" d="M 269 1209 
L 831 1284 
Q 928 806 1161 595 
Q 1394 384 1728 384 
Q 2125 384 2398 659 
Q 2672 934 2672 1341 
Q 2672 1728 2419 1979 
Q 2166 2231 1775 2231 
Q 1616 2231 1378 2169 
L 1441 2663 
Q 1497 2656 1531 2656 
Q 1891 2656 2178 2843 
Q 2466 3031 2466 3422 
Q 2466 3731 2256 3934 
Q 2047 4138 1716 4138 
Q 1388 4138 1169 3931 
Q 950 3725 888 3313 
L 325 3413 
Q 428 3978 793 4289 
Q 1159 4600 1703 4600 
Q 2078 4600 2393 4439 
Q 2709 4278 2876 4000 
Q 3044 3722 3044 3409 
Q 3044 3113 2884 2869 
Q 2725 2625 2413 2481 
Q 2819 2388 3044 2092 
Q 3269 1797 3269 1353 
Q 3269 753 2831 336 
Q 2394 -81 1725 -81 
Q 1122 -81 723 278 
Q 325 638 269 1209 
z
" transform="scale(0.015625)"/>
       </defs>
       <use xlink:href="#ArialMT-2d"/>
       <use xlink:href="#ArialMT-33" transform="translate(33.300781 0)"/>
       <use xlink:href="#ArialMT-2e" transform="translate(88.916016 0)"/>
       <use xlink:href="#ArialMT-30" transform="translate(116.699219 0)"/>
      </g>
     </g>
    </g>
    <g id="xtick_4">
     <g id="text_4">
      <!-- -2.0 -->
      <g style="fill: #262626" transform="translate(144.660815 159.512656) rotate(-90) scale(0.11 -0.11)">
       <defs>
        <path id="ArialMT-32" d="M 3222 541 
L 3222 0 
L 194 0 
Q 188 203 259 391 
Q 375 700 629 1000 
Q 884 1300 1366 1694 
Q 2113 2306 2375 2664 
Q 2638 3022 2638 3341 
Q 2638 3675 2398 3904 
Q 2159 4134 1775 4134 
Q 1369 4134 1125 3890 
Q 881 3647 878 3216 
L 300 3275 
Q 359 3922 746 4261 
Q 1134 4600 1788 4600 
Q 2447 4600 2831 4234 
Q 3216 3869 3216 3328 
Q 3216 3053 3103 2787 
Q 2991 2522 2730 2228 
Q 2469 1934 1863 1422 
Q 1356 997 1212 845 
Q 1069 694 975 541 
L 3222 541 
z
" transform="scale(0.015625)"/>
       </defs>
       <use xlink:href="#ArialMT-2d"/>
       <use xlink:href="#ArialMT-32" transform="translate(33.300781 0)"/>
       <use xlink:href="#ArialMT-2e" transform="translate(88.916016 0)"/>
       <use xlink:href="#ArialMT-30" transform="translate(116.699219 0)"/>
      </g>
     </g>
    </g>
    <g id="xtick_5">
     <g id="text_5">
      <!-- -1.0 -->
      <g style="fill: #262626" transform="translate(178.326529 159.512656) rotate(-90) scale(0.11 -0.11)">
       <defs>
        <path id="ArialMT-31" d="M 2384 0 
L 1822 0 
L 1822 3584 
Q 1619 3391 1289 3197 
Q 959 3003 697 2906 
L 697 3450 
Q 1169 3672 1522 3987 
Q 1875 4303 2022 4600 
L 2384 4600 
L 2384 0 
z
" transform="scale(0.015625)"/>
       </defs>
       <use xlink:href="#ArialMT-2d"/>
       <use xlink:href="#ArialMT-31" transform="translate(33.300781 0)"/>
       <use xlink:href="#ArialMT-2e" transform="translate(88.916016 0)"/>
       <use xlink:href="#ArialMT-30" transform="translate(116.699219 0)"/>
      </g>
     </g>
    </g>
    <g id="xtick_6">
     <g id="text_6">
      <!-- 0.0 -->
      <g style="fill: #262626" transform="translate(211.992243 155.85) rotate(-90) scale(0.11 -0.11)">
       <use xlink:href="#ArialMT-30"/>
       <use xlink:href="#ArialMT-2e" transform="translate(55.615234 0)"/>
       <use xlink:href="#ArialMT-30" transform="translate(83.398438 0)"/>
      </g>
     </g>
    </g>
    <g id="xtick_7">
     <g id="text_7">
      <!-- 1.0 -->
      <g style="fill: #262626" transform="translate(245.657958 155.85) rotate(-90) scale(0.11 -0.11)">
       <use xlink:href="#ArialMT-31"/>
       <use xlink:href="#ArialMT-2e" transform="translate(55.615234 0)"/>
       <use xlink:href="#ArialMT-30" transform="translate(83.398438 0)"/>
      </g>
     </g>
    </g>
    <g id="xtick_8">
     <g id="text_8">
      <!-- 2.0 -->
      <g style="fill: #262626" transform="translate(279.323672 155.85) rotate(-90) scale(0.11 -0.11)">
       <use xlink:href="#ArialMT-32"/>
       <use xlink:href="#ArialMT-2e" transform="translate(55.615234 0)"/>
       <use xlink:href="#ArialMT-30" transform="translate(83.398438 0)"/>
      </g>
     </g>
    </g>
   </g>
   <g id="matplotlib.axis_2">
    <g id="ytick_1">
     <g id="text_9">
      <!-- 0 -->
      <g style="fill: #262626" transform="translate(25.202969 134.996797) scale(0.11 -0.11)">
       <use xlink:href="#ArialMT-30"/>
      </g>
     </g>
    </g>
    <g id="ytick_2">
     <g id="text_10">
      <!-- 50 -->
      <g style="fill: #262626" transform="translate(19.085938 97.673565) scale(0.11 -0.11)">
       <use xlink:href="#ArialMT-35"/>
       <use xlink:href="#ArialMT-30" transform="translate(55.615234 0)"/>
      </g>
     </g>
    </g>
    <g id="ytick_3">
     <g id="text_11">
      <!-- 100 -->
      <g style="fill: #262626" transform="translate(12.968906 60.350332) scale(0.11 -0.11)">
       <use xlink:href="#ArialMT-31"/>
       <use xlink:href="#ArialMT-30" transform="translate(55.615234 0)"/>
       <use xlink:href="#ArialMT-30" transform="translate(111.230469 0)"/>
      </g>
     </g>
    </g>
   </g>
   <g id="patch_3">
    <path d="M 63.206632 131.06 
L 70.246124 131.06 
L 70.246124 122.848889 
L 63.206632 122.848889 
z
" clip-path="url(#pf4b44dcd51)" style="fill: #808080; opacity: 0.4; stroke: #ffffff; stroke-linejoin: miter"/>
   </g>
   <g id="patch_4">
    <path d="M 70.246124 131.06 
L 77.285617 131.06 
L 77.285617 131.06 
L 70.246124 131.06 
z
" clip-path="url(#pf4b44dcd51)" style="fill: #808080; opacity: 0.4; stroke: #ffffff; stroke-linejoin: miter"/>
   </g>
   <g id="patch_5">
    <path d="M 77.285617 131.06 
L 84.325109 131.06 
L 84.325109 128.820606 
L 77.285617 128.820606 
z
" clip-path="url(#pf4b44dcd51)" style="fill: #808080; opacity: 0.4; stroke: #ffffff; stroke-linejoin: miter"/>
   </g>
   <g id="patch_6">
    <path d="M 84.325109 131.06 
L 91.364601 131.06 
L 91.364601 129.567071 
L 84.325109 129.567071 
z
" clip-path="url(#pf4b44dcd51)" style="fill: #808080; opacity: 0.4; stroke: #ffffff; stroke-linejoin: miter"/>
   </g>
   <g id="patch_7">
    <path d="M 91.364601 131.06 
L 98.404094 131.06 
L 98.404094 130.313535 
L 91.364601 130.313535 
z
" clip-path="url(#pf4b44dcd51)" style="fill: #808080; opacity: 0.4; stroke: #ffffff; stroke-linejoin: miter"/>
   </g>
   <g id="patch_8">
    <path d="M 98.404094 131.06 
L 105.443586 131.06 
L 105.443586 126.581212 
L 98.404094 126.581212 
z
" clip-path="url(#pf4b44dcd51)" style="fill: #808080; opacity: 0.4; stroke: #ffffff; stroke-linejoin: miter"/>
   </g>
   <g id="patch_9">
    <path d="M 105.443586 131.06 
L 112.483078 131.06 
L 112.483078 128.074141 
L 105.443586 128.074141 
z
" clip-path="url(#pf4b44dcd51)" style="fill: #808080; opacity: 0.4; stroke: #ffffff; stroke-linejoin: miter"/>
   </g>
   <g id="patch_10">
    <path d="M 112.483078 131.06 
L 119.522571 131.06 
L 119.522571 127.327677 
L 112.483078 127.327677 
z
" clip-path="url(#pf4b44dcd51)" style="fill: #808080; opacity: 0.4; stroke: #ffffff; stroke-linejoin: miter"/>
   </g>
   <g id="patch_11">
    <path d="M 119.522571 131.06 
L 126.562063 131.06 
L 126.562063 128.820606 
L 119.522571 128.820606 
z
" clip-path="url(#pf4b44dcd51)" style="fill: #808080; opacity: 0.4; stroke: #ffffff; stroke-linejoin: miter"/>
   </g>
   <g id="patch_12">
    <path d="M 126.562063 131.06 
L 133.601555 131.06 
L 133.601555 128.820606 
L 126.562063 128.820606 
z
" clip-path="url(#pf4b44dcd51)" style="fill: #808080; opacity: 0.4; stroke: #ffffff; stroke-linejoin: miter"/>
   </g>
   <g id="patch_13">
    <path d="M 133.601555 131.06 
L 140.641048 131.06 
L 140.641048 122.102424 
L 133.601555 122.102424 
z
" clip-path="url(#pf4b44dcd51)" style="fill: #808080; opacity: 0.4; stroke: #ffffff; stroke-linejoin: miter"/>
   </g>
   <g id="patch_14">
    <path d="M 140.641048 131.06 
L 147.68054 131.06 
L 147.68054 119.86303 
L 140.641048 119.86303 
z
" clip-path="url(#pf4b44dcd51)" style="fill: #808080; opacity: 0.4; stroke: #ffffff; stroke-linejoin: miter"/>
   </g>
   <g id="patch_15">
    <path d="M 147.68054 131.06 
L 154.720032 131.06 
L 154.720032 117.623636 
L 147.68054 117.623636 
z
" clip-path="url(#pf4b44dcd51)" style="fill: #808080; opacity: 0.4; stroke: #ffffff; stroke-linejoin: miter"/>
   </g>
   <g id="patch_16">
    <path d="M 154.720032 131.06 
L 161.759524 131.06 
L 161.759524 115.384242 
L 154.720032 115.384242 
z
" clip-path="url(#pf4b44dcd51)" style="fill: #808080; opacity: 0.4; stroke: #ffffff; stroke-linejoin: miter"/>
   </g>
   <g id="patch_17">
    <path d="M 161.759524 131.06 
L 168.799017 131.06 
L 168.799017 113.144848 
L 161.759524 113.144848 
z
" clip-path="url(#pf4b44dcd51)" style="fill: #808080; opacity: 0.4; stroke: #ffffff; stroke-linejoin: miter"/>
   </g>
   <g id="patch_18">
    <path d="M 168.799017 131.06 
L 175.838509 131.06 
L 175.838509 107.173131 
L 168.799017 107.173131 
z
" clip-path="url(#pf4b44dcd51)" style="fill: #808080; opacity: 0.4; stroke: #ffffff; stroke-linejoin: miter"/>
   </g>
   <g id="patch_19">
    <path d="M 175.838509 131.06 
L 182.878001 131.06 
L 182.878001 103.440808 
L 175.838509 103.440808 
z
" clip-path="url(#pf4b44dcd51)" style="fill: #808080; opacity: 0.4; stroke: #ffffff; stroke-linejoin: miter"/>
   </g>
   <g id="patch_20">
    <path d="M 182.878001 131.06 
L 189.917494 131.06 
L 189.917494 88.511515 
L 182.878001 88.511515 
z
" clip-path="url(#pf4b44dcd51)" style="fill: #808080; opacity: 0.4; stroke: #ffffff; stroke-linejoin: miter"/>
   </g>
   <g id="patch_21">
    <path d="M 189.917494 131.06 
L 196.956986 131.06 
L 196.956986 81.793333 
L 189.917494 81.793333 
z
" clip-path="url(#pf4b44dcd51)" style="fill: #808080; opacity: 0.4; stroke: #ffffff; stroke-linejoin: miter"/>
   </g>
   <g id="patch_22">
    <path d="M 196.956986 131.06 
L 203.996478 131.06 
L 203.996478 65.371111 
L 196.956986 65.371111 
z
" clip-path="url(#pf4b44dcd51)" style="fill: #808080; opacity: 0.4; stroke: #ffffff; stroke-linejoin: miter"/>
   </g>
   <g id="patch_23">
    <path d="M 203.996478 131.06 
L 211.035971 131.06 
L 211.035971 52.681212 
L 203.996478 52.681212 
z
" clip-path="url(#pf4b44dcd51)" style="fill: #808080; opacity: 0.4; stroke: #ffffff; stroke-linejoin: miter"/>
   </g>
   <g id="patch_24">
    <path d="M 211.035971 131.06 
L 218.075463 131.06 
L 218.075463 32.526667 
L 211.035971 32.526667 
z
" clip-path="url(#pf4b44dcd51)" style="fill: #808080; opacity: 0.4; stroke: #ffffff; stroke-linejoin: miter"/>
   </g>
   <g id="patch_25">
    <path d="M 218.075463 131.06 
L 225.114955 131.06 
L 225.114955 34.766061 
L 218.075463 34.766061 
z
" clip-path="url(#pf4b44dcd51)" style="fill: #808080; opacity: 0.4; stroke: #ffffff; stroke-linejoin: miter"/>
   </g>
   <g id="patch_26">
    <path d="M 225.114955 131.06 
L 232.154448 131.06 
L 232.154448 44.470101 
L 225.114955 44.470101 
z
" clip-path="url(#pf4b44dcd51)" style="fill: #808080; opacity: 0.4; stroke: #ffffff; stroke-linejoin: miter"/>
   </g>
   <g id="patch_27">
    <path d="M 232.154448 131.06 
L 239.19394 131.06 
L 239.19394 34.766061 
L 232.154448 34.766061 
z
" clip-path="url(#pf4b44dcd51)" style="fill: #808080; opacity: 0.4; stroke: #ffffff; stroke-linejoin: miter"/>
   </g>
   <g id="patch_28">
    <path d="M 239.19394 131.06 
L 246.233432 131.06 
L 246.233432 65.371111 
L 239.19394 65.371111 
z
" clip-path="url(#pf4b44dcd51)" style="fill: #808080; opacity: 0.4; stroke: #ffffff; stroke-linejoin: miter"/>
   </g>
   <g id="patch_29">
    <path d="M 246.233432 131.06 
L 253.272925 131.06 
L 253.272925 86.272121 
L 246.233432 86.272121 
z
" clip-path="url(#pf4b44dcd51)" style="fill: #808080; opacity: 0.4; stroke: #ffffff; stroke-linejoin: miter"/>
   </g>
   <g id="patch_30">
    <path d="M 253.272925 131.06 
L 260.312417 131.06 
L 260.312417 110.15899 
L 253.272925 110.15899 
z
" clip-path="url(#pf4b44dcd51)" style="fill: #808080; opacity: 0.4; stroke: #ffffff; stroke-linejoin: miter"/>
   </g>
   <g id="patch_31">
    <path d="M 40.82 131.06 
L 40.82 27.6 
" style="fill: none; stroke: #262626; stroke-width: 1.25; stroke-linejoin: miter; stroke-linecap: square"/>
   </g>
   <g id="patch_32">
    <path d="M 40.82 131.06 
L 276.48 131.06 
" style="fill: none; stroke: #262626; stroke-width: 1.25; stroke-linejoin: miter; stroke-linecap: square"/>
   </g>
   <g id="text_12">
    <!-- %MISSPELLED -->
    <g style="fill: #262626" transform="translate(115.632812 21.6) scale(0.12 -0.12)">
     <defs>
      <path id="ArialMT-25" d="M 372 3481 
Q 372 3972 619 4315 
Q 866 4659 1334 4659 
Q 1766 4659 2048 4351 
Q 2331 4044 2331 3447 
Q 2331 2866 2045 2552 
Q 1759 2238 1341 2238 
Q 925 2238 648 2547 
Q 372 2856 372 3481 
z
M 1350 4272 
Q 1141 4272 1002 4090 
Q 863 3909 863 3425 
Q 863 2984 1003 2804 
Q 1144 2625 1350 2625 
Q 1563 2625 1702 2806 
Q 1841 2988 1841 3469 
Q 1841 3913 1700 4092 
Q 1559 4272 1350 4272 
z
M 1353 -169 
L 3859 4659 
L 4316 4659 
L 1819 -169 
L 1353 -169 
z
M 3334 1075 
Q 3334 1569 3581 1911 
Q 3828 2253 4300 2253 
Q 4731 2253 5014 1945 
Q 5297 1638 5297 1041 
Q 5297 459 5011 145 
Q 4725 -169 4303 -169 
Q 3888 -169 3611 142 
Q 3334 453 3334 1075 
z
M 4316 1866 
Q 4103 1866 3964 1684 
Q 3825 1503 3825 1019 
Q 3825 581 3965 400 
Q 4106 219 4313 219 
Q 4528 219 4667 400 
Q 4806 581 4806 1063 
Q 4806 1506 4665 1686 
Q 4525 1866 4316 1866 
z
" transform="scale(0.015625)"/>
      <path id="ArialMT-4d" d="M 475 0 
L 475 4581 
L 1388 4581 
L 2472 1338 
Q 2622 884 2691 659 
Q 2769 909 2934 1394 
L 4031 4581 
L 4847 4581 
L 4847 0 
L 4263 0 
L 4263 3834 
L 2931 0 
L 2384 0 
L 1059 3900 
L 1059 0 
L 475 0 
z
" transform="scale(0.015625)"/>
      <path id="ArialMT-49" d="M 597 0 
L 597 4581 
L 1203 4581 
L 1203 0 
L 597 0 
z
" transform="scale(0.015625)"/>
      <path id="ArialMT-53" d="M 288 1472 
L 859 1522 
Q 900 1178 1048 958 
Q 1197 738 1509 602 
Q 1822 466 2213 466 
Q 2559 466 2825 569 
Q 3091 672 3220 851 
Q 3350 1031 3350 1244 
Q 3350 1459 3225 1620 
Q 3100 1781 2813 1891 
Q 2628 1963 1997 2114 
Q 1366 2266 1113 2400 
Q 784 2572 623 2826 
Q 463 3081 463 3397 
Q 463 3744 659 4045 
Q 856 4347 1234 4503 
Q 1613 4659 2075 4659 
Q 2584 4659 2973 4495 
Q 3363 4331 3572 4012 
Q 3781 3694 3797 3291 
L 3216 3247 
Q 3169 3681 2898 3903 
Q 2628 4125 2100 4125 
Q 1550 4125 1298 3923 
Q 1047 3722 1047 3438 
Q 1047 3191 1225 3031 
Q 1400 2872 2139 2705 
Q 2878 2538 3153 2413 
Q 3553 2228 3743 1945 
Q 3934 1663 3934 1294 
Q 3934 928 3725 604 
Q 3516 281 3123 101 
Q 2731 -78 2241 -78 
Q 1619 -78 1198 103 
Q 778 284 539 648 
Q 300 1013 288 1472 
z
" transform="scale(0.015625)"/>
      <path id="ArialMT-50" d="M 494 0 
L 494 4581 
L 2222 4581 
Q 2678 4581 2919 4538 
Q 3256 4481 3484 4323 
Q 3713 4166 3852 3881 
Q 3991 3597 3991 3256 
Q 3991 2672 3619 2267 
Q 3247 1863 2275 1863 
L 1100 1863 
L 1100 0 
L 494 0 
z
M 1100 2403 
L 2284 2403 
Q 2872 2403 3119 2622 
Q 3366 2841 3366 3238 
Q 3366 3525 3220 3729 
Q 3075 3934 2838 4000 
Q 2684 4041 2272 4041 
L 1100 4041 
L 1100 2403 
z
" transform="scale(0.015625)"/>
      <path id="ArialMT-45" d="M 506 0 
L 506 4581 
L 3819 4581 
L 3819 4041 
L 1113 4041 
L 1113 2638 
L 3647 2638 
L 3647 2100 
L 1113 2100 
L 1113 541 
L 3925 541 
L 3925 0 
L 506 0 
z
" transform="scale(0.015625)"/>
      <path id="ArialMT-4c" d="M 469 0 
L 469 4581 
L 1075 4581 
L 1075 541 
L 3331 541 
L 3331 0 
L 469 0 
z
" transform="scale(0.015625)"/>
      <path id="ArialMT-44" d="M 494 0 
L 494 4581 
L 2072 4581 
Q 2606 4581 2888 4516 
Q 3281 4425 3559 4188 
Q 3922 3881 4101 3404 
Q 4281 2928 4281 2316 
Q 4281 1794 4159 1391 
Q 4038 988 3847 723 
Q 3656 459 3429 307 
Q 3203 156 2883 78 
Q 2563 0 2147 0 
L 494 0 
z
M 1100 541 
L 2078 541 
Q 2531 541 2789 625 
Q 3047 709 3200 863 
Q 3416 1078 3536 1442 
Q 3656 1806 3656 2325 
Q 3656 3044 3420 3430 
Q 3184 3816 2847 3947 
Q 2603 4041 2063 4041 
L 1100 4041 
L 1100 541 
z
" transform="scale(0.015625)"/>
     </defs>
     <use xlink:href="#ArialMT-25"/>
     <use xlink:href="#ArialMT-4d" transform="translate(88.916016 0)"/>
     <use xlink:href="#ArialMT-49" transform="translate(172.216797 0)"/>
     <use xlink:href="#ArialMT-53" transform="translate(200 0)"/>
     <use xlink:href="#ArialMT-53" transform="translate(266.699219 0)"/>
     <use xlink:href="#ArialMT-50" transform="translate(333.398438 0)"/>
     <use xlink:href="#ArialMT-45" transform="translate(400.097656 0)"/>
     <use xlink:href="#ArialMT-4c" transform="translate(466.796875 0)"/>
     <use xlink:href="#ArialMT-4c" transform="translate(522.412109 0)"/>
     <use xlink:href="#ArialMT-45" transform="translate(578.027344 0)"/>
     <use xlink:href="#ArialMT-44" transform="translate(644.726562 0)"/>
    </g>
   </g>
  </g>
  <g id="axes_2">
   <g id="patch_33">
    <path d="M 322.34 131.06 
L 558 131.06 
L 558 27.6 
L 322.34 27.6 
z
" style="fill: #ffffff"/>
   </g>
   <g id="matplotlib.axis_3">
    <g id="xtick_9">
     <g id="text_13">
      <!-- -4.0 -->
      <g style="fill: #262626" transform="translate(325.183672 159.512656) rotate(-90) scale(0.11 -0.11)">
       <use xlink:href="#ArialMT-2d"/>
       <use xlink:href="#ArialMT-34" transform="translate(33.300781 0)"/>
       <use xlink:href="#ArialMT-2e" transform="translate(88.916016 0)"/>
       <use xlink:href="#ArialMT-30" transform="translate(116.699219 0)"/>
      </g>
     </g>
    </g>
    <g id="xtick_10">
     <g id="text_14">
      <!-- -3.0 -->
      <g style="fill: #262626" transform="translate(354.641172 159.512656) rotate(-90) scale(0.11 -0.11)">
       <use xlink:href="#ArialMT-2d"/>
       <use xlink:href="#ArialMT-33" transform="translate(33.300781 0)"/>
       <use xlink:href="#ArialMT-2e" transform="translate(88.916016 0)"/>
       <use xlink:href="#ArialMT-30" transform="translate(116.699219 0)"/>
      </g>
     </g>
    </g>
    <g id="xtick_11">
     <g id="text_15">
      <!-- -2.0 -->
      <g style="fill: #262626" transform="translate(384.098672 159.512656) rotate(-90) scale(0.11 -0.11)">
       <use xlink:href="#ArialMT-2d"/>
       <use xlink:href="#ArialMT-32" transform="translate(33.300781 0)"/>
       <use xlink:href="#ArialMT-2e" transform="translate(88.916016 0)"/>
       <use xlink:href="#ArialMT-30" transform="translate(116.699219 0)"/>
      </g>
     </g>
    </g>
    <g id="xtick_12">
     <g id="text_16">
      <!-- -1.0 -->
      <g style="fill: #262626" transform="translate(413.556172 159.512656) rotate(-90) scale(0.11 -0.11)">
       <use xlink:href="#ArialMT-2d"/>
       <use xlink:href="#ArialMT-31" transform="translate(33.300781 0)"/>
       <use xlink:href="#ArialMT-2e" transform="translate(88.916016 0)"/>
       <use xlink:href="#ArialMT-30" transform="translate(116.699219 0)"/>
      </g>
     </g>
    </g>
    <g id="xtick_13">
     <g id="text_17">
      <!-- 0.0 -->
      <g style="fill: #262626" transform="translate(443.013672 155.85) rotate(-90) scale(0.11 -0.11)">
       <use xlink:href="#ArialMT-30"/>
       <use xlink:href="#ArialMT-2e" transform="translate(55.615234 0)"/>
       <use xlink:href="#ArialMT-30" transform="translate(83.398438 0)"/>
      </g>
     </g>
    </g>
    <g id="xtick_14">
     <g id="text_18">
      <!-- 1.0 -->
      <g style="fill: #262626" transform="translate(472.471172 155.85) rotate(-90) scale(0.11 -0.11)">
       <use xlink:href="#ArialMT-31"/>
       <use xlink:href="#ArialMT-2e" transform="translate(55.615234 0)"/>
       <use xlink:href="#ArialMT-30" transform="translate(83.398438 0)"/>
      </g>
     </g>
    </g>
    <g id="xtick_15">
     <g id="text_19">
      <!-- 2.0 -->
      <g style="fill: #262626" transform="translate(501.928672 155.85) rotate(-90) scale(0.11 -0.11)">
       <use xlink:href="#ArialMT-32"/>
       <use xlink:href="#ArialMT-2e" transform="translate(55.615234 0)"/>
       <use xlink:href="#ArialMT-30" transform="translate(83.398438 0)"/>
      </g>
     </g>
    </g>
    <g id="xtick_16">
     <g id="text_20">
      <!-- 3.0 -->
      <g style="fill: #262626" transform="translate(531.386172 155.85) rotate(-90) scale(0.11 -0.11)">
       <use xlink:href="#ArialMT-33"/>
       <use xlink:href="#ArialMT-2e" transform="translate(55.615234 0)"/>
       <use xlink:href="#ArialMT-30" transform="translate(83.398438 0)"/>
      </g>
     </g>
    </g>
    <g id="xtick_17">
     <g id="text_21">
      <!-- 4.0 -->
      <g style="fill: #262626" transform="translate(560.843672 155.85) rotate(-90) scale(0.11 -0.11)">
       <use xlink:href="#ArialMT-34"/>
       <use xlink:href="#ArialMT-2e" transform="translate(55.615234 0)"/>
       <use xlink:href="#ArialMT-30" transform="translate(83.398438 0)"/>
      </g>
     </g>
    </g>
   </g>
   <g id="matplotlib.axis_4">
    <g id="ytick_4">
     <g id="text_22">
      <!-- 0 -->
      <g style="fill: #262626" transform="translate(306.722969 134.996797) scale(0.11 -0.11)">
       <use xlink:href="#ArialMT-30"/>
      </g>
     </g>
    </g>
    <g id="ytick_5">
     <g id="text_23">
      <!-- 50 -->
      <g style="fill: #262626" transform="translate(300.605937 96.204146) scale(0.11 -0.11)">
       <use xlink:href="#ArialMT-35"/>
       <use xlink:href="#ArialMT-30" transform="translate(55.615234 0)"/>
      </g>
     </g>
    </g>
    <g id="ytick_6">
     <g id="text_24">
      <!-- 100 -->
      <g style="fill: #262626" transform="translate(294.488906 57.411495) scale(0.11 -0.11)">
       <use xlink:href="#ArialMT-31"/>
       <use xlink:href="#ArialMT-30" transform="translate(55.615234 0)"/>
       <use xlink:href="#ArialMT-30" transform="translate(111.230469 0)"/>
      </g>
     </g>
    </g>
   </g>
   <g id="patch_34">
    <path d="M 352.157733 131.06 
L 359.548392 131.06 
L 359.548392 128.732441 
L 352.157733 128.732441 
z
" clip-path="url(#p5ba0fa367c)" style="fill: #808080; opacity: 0.4; stroke: #ffffff; stroke-linejoin: miter"/>
   </g>
   <g id="patch_35">
    <path d="M 359.548392 131.06 
L 366.939052 131.06 
L 366.939052 129.508294 
L 359.548392 129.508294 
z
" clip-path="url(#p5ba0fa367c)" style="fill: #808080; opacity: 0.4; stroke: #ffffff; stroke-linejoin: miter"/>
   </g>
   <g id="patch_36">
    <path d="M 366.939052 131.06 
L 374.329712 131.06 
L 374.329712 127.956588 
L 366.939052 127.956588 
z
" clip-path="url(#p5ba0fa367c)" style="fill: #808080; opacity: 0.4; stroke: #ffffff; stroke-linejoin: miter"/>
   </g>
   <g id="patch_37">
    <path d="M 374.329712 131.06 
L 381.720372 131.06 
L 381.720372 124.077323 
L 374.329712 124.077323 
z
" clip-path="url(#p5ba0fa367c)" style="fill: #808080; opacity: 0.4; stroke: #ffffff; stroke-linejoin: miter"/>
   </g>
   <g id="patch_38">
    <path d="M 381.720372 131.06 
L 389.111032 131.06 
L 389.111032 115.54294 
L 381.720372 115.54294 
z
" clip-path="url(#p5ba0fa367c)" style="fill: #808080; opacity: 0.4; stroke: #ffffff; stroke-linejoin: miter"/>
   </g>
   <g id="patch_39">
    <path d="M 389.111032 131.06 
L 396.501692 131.06 
L 396.501692 104.680997 
L 389.111032 104.680997 
z
" clip-path="url(#p5ba0fa367c)" style="fill: #808080; opacity: 0.4; stroke: #ffffff; stroke-linejoin: miter"/>
   </g>
   <g id="patch_40">
    <path d="M 396.501692 131.06 
L 403.892352 131.06 
L 403.892352 96.922467 
L 396.501692 96.922467 
z
" clip-path="url(#p5ba0fa367c)" style="fill: #808080; opacity: 0.4; stroke: #ffffff; stroke-linejoin: miter"/>
   </g>
   <g id="patch_41">
    <path d="M 403.892352 131.06 
L 411.283012 131.06 
L 411.283012 73.646877 
L 403.892352 73.646877 
z
" clip-path="url(#p5ba0fa367c)" style="fill: #808080; opacity: 0.4; stroke: #ffffff; stroke-linejoin: miter"/>
   </g>
   <g id="patch_42">
    <path d="M 411.283012 131.06 
L 418.673672 131.06 
L 418.673672 57.353963 
L 411.283012 57.353963 
z
" clip-path="url(#p5ba0fa367c)" style="fill: #808080; opacity: 0.4; stroke: #ffffff; stroke-linejoin: miter"/>
   </g>
   <g id="patch_43">
    <path d="M 418.673672 131.06 
L 426.064331 131.06 
L 426.064331 55.026404 
L 418.673672 55.026404 
z
" clip-path="url(#p5ba0fa367c)" style="fill: #808080; opacity: 0.4; stroke: #ffffff; stroke-linejoin: miter"/>
   </g>
   <g id="patch_44">
    <path d="M 426.064331 131.06 
L 433.454991 131.06 
L 433.454991 36.405932 
L 426.064331 36.405932 
z
" clip-path="url(#p5ba0fa367c)" style="fill: #808080; opacity: 0.4; stroke: #ffffff; stroke-linejoin: miter"/>
   </g>
   <g id="patch_45">
    <path d="M 433.454991 131.06 
L 440.845651 131.06 
L 440.845651 32.526667 
L 433.454991 32.526667 
z
" clip-path="url(#p5ba0fa367c)" style="fill: #808080; opacity: 0.4; stroke: #ffffff; stroke-linejoin: miter"/>
   </g>
   <g id="patch_46">
    <path d="M 440.845651 131.06 
L 448.236311 131.06 
L 448.236311 42.612756 
L 440.845651 42.612756 
z
" clip-path="url(#p5ba0fa367c)" style="fill: #808080; opacity: 0.4; stroke: #ffffff; stroke-linejoin: miter"/>
   </g>
   <g id="patch_47">
    <path d="M 448.236311 131.06 
L 455.626971 131.06 
L 455.626971 53.474698 
L 448.236311 53.474698 
z
" clip-path="url(#p5ba0fa367c)" style="fill: #808080; opacity: 0.4; stroke: #ffffff; stroke-linejoin: miter"/>
   </g>
   <g id="patch_48">
    <path d="M 455.626971 131.06 
L 463.017631 131.06 
L 463.017631 50.371286 
L 455.626971 50.371286 
z
" clip-path="url(#p5ba0fa367c)" style="fill: #808080; opacity: 0.4; stroke: #ffffff; stroke-linejoin: miter"/>
   </g>
   <g id="patch_49">
    <path d="M 463.017631 131.06 
L 470.408291 131.06 
L 470.408291 69.767612 
L 463.017631 69.767612 
z
" clip-path="url(#p5ba0fa367c)" style="fill: #808080; opacity: 0.4; stroke: #ffffff; stroke-linejoin: miter"/>
   </g>
   <g id="patch_50">
    <path d="M 470.408291 131.06 
L 477.798951 131.06 
L 477.798951 95.370761 
L 470.408291 95.370761 
z
" clip-path="url(#p5ba0fa367c)" style="fill: #808080; opacity: 0.4; stroke: #ffffff; stroke-linejoin: miter"/>
   </g>
   <g id="patch_51">
    <path d="M 477.798951 131.06 
L 485.18961 131.06 
L 485.18961 100.801732 
L 477.798951 100.801732 
z
" clip-path="url(#p5ba0fa367c)" style="fill: #808080; opacity: 0.4; stroke: #ffffff; stroke-linejoin: miter"/>
   </g>
   <g id="patch_52">
    <path d="M 485.18961 131.06 
L 492.58027 131.06 
L 492.58027 110.887822 
L 485.18961 110.887822 
z
" clip-path="url(#p5ba0fa367c)" style="fill: #808080; opacity: 0.4; stroke: #ffffff; stroke-linejoin: miter"/>
   </g>
   <g id="patch_53">
    <path d="M 492.58027 131.06 
L 499.97093 131.06 
L 499.97093 116.318793 
L 492.58027 116.318793 
z
" clip-path="url(#p5ba0fa367c)" style="fill: #808080; opacity: 0.4; stroke: #ffffff; stroke-linejoin: miter"/>
   </g>
   <g id="patch_54">
    <path d="M 499.97093 131.06 
L 507.36159 131.06 
L 507.36159 120.973911 
L 499.97093 120.973911 
z
" clip-path="url(#p5ba0fa367c)" style="fill: #808080; opacity: 0.4; stroke: #ffffff; stroke-linejoin: miter"/>
   </g>
   <g id="patch_55">
    <path d="M 507.36159 131.06 
L 514.75225 131.06 
L 514.75225 124.853176 
L 507.36159 124.853176 
z
" clip-path="url(#p5ba0fa367c)" style="fill: #808080; opacity: 0.4; stroke: #ffffff; stroke-linejoin: miter"/>
   </g>
   <g id="patch_56">
    <path d="M 514.75225 131.06 
L 522.14291 131.06 
L 522.14291 126.404882 
L 514.75225 126.404882 
z
" clip-path="url(#p5ba0fa367c)" style="fill: #808080; opacity: 0.4; stroke: #ffffff; stroke-linejoin: miter"/>
   </g>
   <g id="patch_57">
    <path d="M 522.14291 131.06 
L 529.53357 131.06 
L 529.53357 129.508294 
L 522.14291 129.508294 
z
" clip-path="url(#p5ba0fa367c)" style="fill: #808080; opacity: 0.4; stroke: #ffffff; stroke-linejoin: miter"/>
   </g>
   <g id="patch_58">
    <path d="M 529.53357 131.06 
L 536.92423 131.06 
L 536.92423 125.629029 
L 529.53357 125.629029 
z
" clip-path="url(#p5ba0fa367c)" style="fill: #808080; opacity: 0.4; stroke: #ffffff; stroke-linejoin: miter"/>
   </g>
   <g id="patch_59">
    <path d="M 322.34 131.06 
L 322.34 27.6 
" style="fill: none; stroke: #262626; stroke-width: 1.25; stroke-linejoin: miter; stroke-linecap: square"/>
   </g>
   <g id="patch_60">
    <path d="M 322.34 131.06 
L 558 131.06 
" style="fill: none; stroke: #262626; stroke-width: 1.25; stroke-linejoin: miter; stroke-linecap: square"/>
   </g>
   <g id="text_25">
    <!-- AVG_WLEN -->
    <g style="fill: #262626" transform="translate(407.269375 21.6) scale(0.12 -0.12)">
     <defs>
      <path id="ArialMT-41" d="M -9 0 
L 1750 4581 
L 2403 4581 
L 4278 0 
L 3588 0 
L 3053 1388 
L 1138 1388 
L 634 0 
L -9 0 
z
M 1313 1881 
L 2866 1881 
L 2388 3150 
Q 2169 3728 2063 4100 
Q 1975 3659 1816 3225 
L 1313 1881 
z
" transform="scale(0.015625)"/>
      <path id="ArialMT-56" d="M 1803 0 
L 28 4581 
L 684 4581 
L 1875 1253 
Q 2019 853 2116 503 
Q 2222 878 2363 1253 
L 3600 4581 
L 4219 4581 
L 2425 0 
L 1803 0 
z
" transform="scale(0.015625)"/>
      <path id="ArialMT-47" d="M 2638 1797 
L 2638 2334 
L 4578 2338 
L 4578 638 
Q 4131 281 3656 101 
Q 3181 -78 2681 -78 
Q 2006 -78 1454 211 
Q 903 500 622 1047 
Q 341 1594 341 2269 
Q 341 2938 620 3517 
Q 900 4097 1425 4378 
Q 1950 4659 2634 4659 
Q 3131 4659 3532 4498 
Q 3934 4338 4162 4050 
Q 4391 3763 4509 3300 
L 3963 3150 
Q 3859 3500 3706 3700 
Q 3553 3900 3268 4020 
Q 2984 4141 2638 4141 
Q 2222 4141 1919 4014 
Q 1616 3888 1430 3681 
Q 1244 3475 1141 3228 
Q 966 2803 966 2306 
Q 966 1694 1177 1281 
Q 1388 869 1791 669 
Q 2194 469 2647 469 
Q 3041 469 3416 620 
Q 3791 772 3984 944 
L 3984 1797 
L 2638 1797 
z
" transform="scale(0.015625)"/>
      <path id="ArialMT-5f" d="M -97 -1272 
L -97 -866 
L 3631 -866 
L 3631 -1272 
L -97 -1272 
z
" transform="scale(0.015625)"/>
      <path id="ArialMT-57" d="M 1294 0 
L 78 4581 
L 700 4581 
L 1397 1578 
Q 1509 1106 1591 641 
Q 1766 1375 1797 1488 
L 2669 4581 
L 3400 4581 
L 4056 2263 
Q 4303 1400 4413 641 
Q 4500 1075 4641 1638 
L 5359 4581 
L 5969 4581 
L 4713 0 
L 4128 0 
L 3163 3491 
Q 3041 3928 3019 4028 
Q 2947 3713 2884 3491 
L 1913 0 
L 1294 0 
z
" transform="scale(0.015625)"/>
      <path id="ArialMT-4e" d="M 488 0 
L 488 4581 
L 1109 4581 
L 3516 984 
L 3516 4581 
L 4097 4581 
L 4097 0 
L 3475 0 
L 1069 3600 
L 1069 0 
L 488 0 
z
" transform="scale(0.015625)"/>
     </defs>
     <use xlink:href="#ArialMT-41"/>
     <use xlink:href="#ArialMT-56" transform="translate(59.324219 0)"/>
     <use xlink:href="#ArialMT-47" transform="translate(126.023438 0)"/>
     <use xlink:href="#ArialMT-5f" transform="translate(203.806641 0)"/>
     <use xlink:href="#ArialMT-57" transform="translate(259.421875 0)"/>
     <use xlink:href="#ArialMT-4c" transform="translate(353.806641 0)"/>
     <use xlink:href="#ArialMT-45" transform="translate(409.421875 0)"/>
     <use xlink:href="#ArialMT-4e" transform="translate(476.121094 0)"/>
    </g>
   </g>
  </g>
  <g id="axes_3">
   <g id="patch_61">
    <path d="M 40.82 289.65 
L 276.48 289.65 
L 276.48 186.19 
L 40.82 186.19 
z
" style="fill: #ffffff"/>
   </g>
   <g id="matplotlib.axis_5">
    <g id="xtick_18">
     <g id="text_26">
      <!-- -6.0 -->
      <g style="fill: #262626" transform="translate(43.663672 318.102656) rotate(-90) scale(0.11 -0.11)">
       <defs>
        <path id="ArialMT-36" d="M 3184 3459 
L 2625 3416 
Q 2550 3747 2413 3897 
Q 2184 4138 1850 4138 
Q 1581 4138 1378 3988 
Q 1113 3794 959 3422 
Q 806 3050 800 2363 
Q 1003 2672 1297 2822 
Q 1591 2972 1913 2972 
Q 2475 2972 2870 2558 
Q 3266 2144 3266 1488 
Q 3266 1056 3080 686 
Q 2894 316 2569 119 
Q 2244 -78 1831 -78 
Q 1128 -78 684 439 
Q 241 956 241 2144 
Q 241 3472 731 4075 
Q 1159 4600 1884 4600 
Q 2425 4600 2770 4297 
Q 3116 3994 3184 3459 
z
M 888 1484 
Q 888 1194 1011 928 
Q 1134 663 1356 523 
Q 1578 384 1822 384 
Q 2178 384 2434 671 
Q 2691 959 2691 1453 
Q 2691 1928 2437 2201 
Q 2184 2475 1800 2475 
Q 1419 2475 1153 2201 
Q 888 1928 888 1484 
z
" transform="scale(0.015625)"/>
       </defs>
       <use xlink:href="#ArialMT-2d"/>
       <use xlink:href="#ArialMT-36" transform="translate(33.300781 0)"/>
       <use xlink:href="#ArialMT-2e" transform="translate(88.916016 0)"/>
       <use xlink:href="#ArialMT-30" transform="translate(116.699219 0)"/>
      </g>
     </g>
    </g>
    <g id="xtick_19">
     <g id="text_27">
      <!-- -4.0 -->
      <g style="fill: #262626" transform="translate(90.795672 318.102656) rotate(-90) scale(0.11 -0.11)">
       <use xlink:href="#ArialMT-2d"/>
       <use xlink:href="#ArialMT-34" transform="translate(33.300781 0)"/>
       <use xlink:href="#ArialMT-2e" transform="translate(88.916016 0)"/>
       <use xlink:href="#ArialMT-30" transform="translate(116.699219 0)"/>
      </g>
     </g>
    </g>
    <g id="xtick_20">
     <g id="text_28">
      <!-- -2.0 -->
      <g style="fill: #262626" transform="translate(137.927672 318.102656) rotate(-90) scale(0.11 -0.11)">
       <use xlink:href="#ArialMT-2d"/>
       <use xlink:href="#ArialMT-32" transform="translate(33.300781 0)"/>
       <use xlink:href="#ArialMT-2e" transform="translate(88.916016 0)"/>
       <use xlink:href="#ArialMT-30" transform="translate(116.699219 0)"/>
      </g>
     </g>
    </g>
    <g id="xtick_21">
     <g id="text_29">
      <!-- 0.0 -->
      <g style="fill: #262626" transform="translate(185.059672 314.44) rotate(-90) scale(0.11 -0.11)">
       <use xlink:href="#ArialMT-30"/>
       <use xlink:href="#ArialMT-2e" transform="translate(55.615234 0)"/>
       <use xlink:href="#ArialMT-30" transform="translate(83.398438 0)"/>
      </g>
     </g>
    </g>
    <g id="xtick_22">
     <g id="text_30">
      <!-- 2.0 -->
      <g style="fill: #262626" transform="translate(232.191672 314.44) rotate(-90) scale(0.11 -0.11)">
       <use xlink:href="#ArialMT-32"/>
       <use xlink:href="#ArialMT-2e" transform="translate(55.615234 0)"/>
       <use xlink:href="#ArialMT-30" transform="translate(83.398438 0)"/>
      </g>
     </g>
    </g>
    <g id="xtick_23">
     <g id="text_31">
      <!-- 4.0 -->
      <g style="fill: #262626" transform="translate(279.323672 314.44) rotate(-90) scale(0.11 -0.11)">
       <use xlink:href="#ArialMT-34"/>
       <use xlink:href="#ArialMT-2e" transform="translate(55.615234 0)"/>
       <use xlink:href="#ArialMT-30" transform="translate(83.398438 0)"/>
      </g>
     </g>
    </g>
   </g>
   <g id="matplotlib.axis_6">
    <g id="ytick_7">
     <g id="text_32">
      <!-- 0 -->
      <g style="fill: #262626" transform="translate(25.202969 293.586797) scale(0.11 -0.11)">
       <use xlink:href="#ArialMT-30"/>
      </g>
     </g>
    </g>
    <g id="ytick_8">
     <g id="text_33">
      <!-- 50 -->
      <g style="fill: #262626" transform="translate(19.085938 254.173464) scale(0.11 -0.11)">
       <use xlink:href="#ArialMT-35"/>
       <use xlink:href="#ArialMT-30" transform="translate(55.615234 0)"/>
      </g>
     </g>
    </g>
    <g id="ytick_9">
     <g id="text_34">
      <!-- 100 -->
      <g style="fill: #262626" transform="translate(12.968906 214.76013) scale(0.11 -0.11)">
       <use xlink:href="#ArialMT-31"/>
       <use xlink:href="#ArialMT-30" transform="translate(55.615234 0)"/>
       <use xlink:href="#ArialMT-30" transform="translate(111.230469 0)"/>
      </g>
     </g>
    </g>
   </g>
   <g id="patch_62">
    <path d="M 84.199571 289.65 
L 89.312441 289.65 
L 89.312441 282.5556 
L 84.199571 282.5556 
z
" clip-path="url(#p3be9e82807)" style="fill: #808080; opacity: 0.4; stroke: #ffffff; stroke-linejoin: miter"/>
   </g>
   <g id="patch_63">
    <path d="M 89.312441 289.65 
L 94.425311 289.65 
L 94.425311 288.861733 
L 89.312441 288.861733 
z
" clip-path="url(#p3be9e82807)" style="fill: #808080; opacity: 0.4; stroke: #ffffff; stroke-linejoin: miter"/>
   </g>
   <g id="patch_64">
    <path d="M 94.425311 289.65 
L 99.538182 289.65 
L 99.538182 288.073467 
L 94.425311 288.073467 
z
" clip-path="url(#p3be9e82807)" style="fill: #808080; opacity: 0.4; stroke: #ffffff; stroke-linejoin: miter"/>
   </g>
   <g id="patch_65">
    <path d="M 99.538182 289.65 
L 104.651052 289.65 
L 104.651052 288.073467 
L 99.538182 288.073467 
z
" clip-path="url(#p3be9e82807)" style="fill: #808080; opacity: 0.4; stroke: #ffffff; stroke-linejoin: miter"/>
   </g>
   <g id="patch_66">
    <path d="M 104.651052 289.65 
L 109.763922 289.65 
L 109.763922 286.496933 
L 104.651052 286.496933 
z
" clip-path="url(#p3be9e82807)" style="fill: #808080; opacity: 0.4; stroke: #ffffff; stroke-linejoin: miter"/>
   </g>
   <g id="patch_67">
    <path d="M 109.763922 289.65 
L 114.876792 289.65 
L 114.876792 287.2852 
L 109.763922 287.2852 
z
" clip-path="url(#p3be9e82807)" style="fill: #808080; opacity: 0.4; stroke: #ffffff; stroke-linejoin: miter"/>
   </g>
   <g id="patch_68">
    <path d="M 114.876792 289.65 
L 119.989663 289.65 
L 119.989663 284.9204 
L 114.876792 284.9204 
z
" clip-path="url(#p3be9e82807)" style="fill: #808080; opacity: 0.4; stroke: #ffffff; stroke-linejoin: miter"/>
   </g>
   <g id="patch_69">
    <path d="M 119.989663 289.65 
L 125.102533 289.65 
L 125.102533 282.5556 
L 119.989663 282.5556 
z
" clip-path="url(#p3be9e82807)" style="fill: #808080; opacity: 0.4; stroke: #ffffff; stroke-linejoin: miter"/>
   </g>
   <g id="patch_70">
    <path d="M 125.102533 289.65 
L 130.215403 289.65 
L 130.215403 284.132133 
L 125.102533 284.132133 
z
" clip-path="url(#p3be9e82807)" style="fill: #808080; opacity: 0.4; stroke: #ffffff; stroke-linejoin: miter"/>
   </g>
   <g id="patch_71">
    <path d="M 130.215403 289.65 
L 135.328273 289.65 
L 135.328273 285.708667 
L 130.215403 285.708667 
z
" clip-path="url(#p3be9e82807)" style="fill: #808080; opacity: 0.4; stroke: #ffffff; stroke-linejoin: miter"/>
   </g>
   <g id="patch_72">
    <path d="M 135.328273 289.65 
L 140.441143 289.65 
L 140.441143 280.1908 
L 135.328273 280.1908 
z
" clip-path="url(#p3be9e82807)" style="fill: #808080; opacity: 0.4; stroke: #ffffff; stroke-linejoin: miter"/>
   </g>
   <g id="patch_73">
    <path d="M 140.441143 289.65 
L 145.554014 289.65 
L 145.554014 273.884667 
L 140.441143 273.884667 
z
" clip-path="url(#p3be9e82807)" style="fill: #808080; opacity: 0.4; stroke: #ffffff; stroke-linejoin: miter"/>
   </g>
   <g id="patch_74">
    <path d="M 145.554014 289.65 
L 150.666884 289.65 
L 150.666884 273.0964 
L 145.554014 273.0964 
z
" clip-path="url(#p3be9e82807)" style="fill: #808080; opacity: 0.4; stroke: #ffffff; stroke-linejoin: miter"/>
   </g>
   <g id="patch_75">
    <path d="M 150.666884 289.65 
L 155.779754 289.65 
L 155.779754 266.790267 
L 150.666884 266.790267 
z
" clip-path="url(#p3be9e82807)" style="fill: #808080; opacity: 0.4; stroke: #ffffff; stroke-linejoin: miter"/>
   </g>
   <g id="patch_76">
    <path d="M 155.779754 289.65 
L 160.892624 289.65 
L 160.892624 262.060667 
L 155.779754 262.060667 
z
" clip-path="url(#p3be9e82807)" style="fill: #808080; opacity: 0.4; stroke: #ffffff; stroke-linejoin: miter"/>
   </g>
   <g id="patch_77">
    <path d="M 160.892624 289.65 
L 166.005495 289.65 
L 166.005495 233.683067 
L 160.892624 233.683067 
z
" clip-path="url(#p3be9e82807)" style="fill: #808080; opacity: 0.4; stroke: #ffffff; stroke-linejoin: miter"/>
   </g>
   <g id="patch_78">
    <path d="M 166.005495 289.65 
L 171.118365 289.65 
L 171.118365 228.1652 
L 166.005495 228.1652 
z
" clip-path="url(#p3be9e82807)" style="fill: #808080; opacity: 0.4; stroke: #ffffff; stroke-linejoin: miter"/>
   </g>
   <g id="patch_79">
    <path d="M 171.118365 289.65 
L 176.231235 289.65 
L 176.231235 212.399867 
L 171.118365 212.399867 
z
" clip-path="url(#p3be9e82807)" style="fill: #808080; opacity: 0.4; stroke: #ffffff; stroke-linejoin: miter"/>
   </g>
   <g id="patch_80">
    <path d="M 176.231235 289.65 
L 181.344105 289.65 
L 181.344105 207.670267 
L 176.231235 207.670267 
z
" clip-path="url(#p3be9e82807)" style="fill: #808080; opacity: 0.4; stroke: #ffffff; stroke-linejoin: miter"/>
   </g>
   <g id="patch_81">
    <path d="M 181.344105 289.65 
L 186.456976 289.65 
L 186.456976 204.5172 
L 181.344105 204.5172 
z
" clip-path="url(#p3be9e82807)" style="fill: #808080; opacity: 0.4; stroke: #ffffff; stroke-linejoin: miter"/>
   </g>
   <g id="patch_82">
    <path d="M 186.456976 289.65 
L 191.569846 289.65 
L 191.569846 191.116667 
L 186.456976 191.116667 
z
" clip-path="url(#p3be9e82807)" style="fill: #808080; opacity: 0.4; stroke: #ffffff; stroke-linejoin: miter"/>
   </g>
   <g id="patch_83">
    <path d="M 191.569846 289.65 
L 196.682716 289.65 
L 196.682716 196.634533 
L 191.569846 196.634533 
z
" clip-path="url(#p3be9e82807)" style="fill: #808080; opacity: 0.4; stroke: #ffffff; stroke-linejoin: miter"/>
   </g>
   <g id="patch_84">
    <path d="M 196.682716 289.65 
L 201.795586 289.65 
L 201.795586 212.399867 
L 196.682716 212.399867 
z
" clip-path="url(#p3be9e82807)" style="fill: #808080; opacity: 0.4; stroke: #ffffff; stroke-linejoin: miter"/>
   </g>
   <g id="patch_85">
    <path d="M 201.795586 289.65 
L 206.908456 289.65 
L 206.908456 220.282533 
L 201.795586 220.282533 
z
" clip-path="url(#p3be9e82807)" style="fill: #808080; opacity: 0.4; stroke: #ffffff; stroke-linejoin: miter"/>
   </g>
   <g id="patch_86">
    <path d="M 206.908456 289.65 
L 212.021327 289.65 
L 212.021327 238.412667 
L 206.908456 238.412667 
z
" clip-path="url(#p3be9e82807)" style="fill: #808080; opacity: 0.4; stroke: #ffffff; stroke-linejoin: miter"/>
   </g>
   <g id="patch_87">
    <path d="M 212.021327 289.65 
L 217.134197 289.65 
L 217.134197 258.9076 
L 212.021327 258.9076 
z
" clip-path="url(#p3be9e82807)" style="fill: #808080; opacity: 0.4; stroke: #ffffff; stroke-linejoin: miter"/>
   </g>
   <g id="patch_88">
    <path d="M 217.134197 289.65 
L 222.247067 289.65 
L 222.247067 272.308133 
L 217.134197 272.308133 
z
" clip-path="url(#p3be9e82807)" style="fill: #808080; opacity: 0.4; stroke: #ffffff; stroke-linejoin: miter"/>
   </g>
   <g id="patch_89">
    <path d="M 222.247067 289.65 
L 227.359937 289.65 
L 227.359937 282.5556 
L 222.247067 282.5556 
z
" clip-path="url(#p3be9e82807)" style="fill: #808080; opacity: 0.4; stroke: #ffffff; stroke-linejoin: miter"/>
   </g>
   <g id="patch_90">
    <path d="M 227.359937 289.65 
L 232.472808 289.65 
L 232.472808 285.708667 
L 227.359937 285.708667 
z
" clip-path="url(#p3be9e82807)" style="fill: #808080; opacity: 0.4; stroke: #ffffff; stroke-linejoin: miter"/>
   </g>
   <g id="patch_91">
    <path d="M 232.472808 289.65 
L 237.585678 289.65 
L 237.585678 288.073467 
L 232.472808 288.073467 
z
" clip-path="url(#p3be9e82807)" style="fill: #808080; opacity: 0.4; stroke: #ffffff; stroke-linejoin: miter"/>
   </g>
   <g id="patch_92">
    <path d="M 40.82 289.65 
L 40.82 186.19 
" style="fill: none; stroke: #262626; stroke-width: 1.25; stroke-linejoin: miter; stroke-linecap: square"/>
   </g>
   <g id="patch_93">
    <path d="M 40.82 289.65 
L 276.48 289.65 
" style="fill: none; stroke: #262626; stroke-width: 1.25; stroke-linejoin: miter; stroke-linecap: square"/>
   </g>
   <g id="text_35">
    <!-- LOGTYPES -->
    <g style="fill: #262626" transform="translate(126.30625 180.19) scale(0.12 -0.12)">
     <defs>
      <path id="ArialMT-4f" d="M 309 2231 
Q 309 3372 921 4017 
Q 1534 4663 2503 4663 
Q 3138 4663 3647 4359 
Q 4156 4056 4423 3514 
Q 4691 2972 4691 2284 
Q 4691 1588 4409 1038 
Q 4128 488 3612 205 
Q 3097 -78 2500 -78 
Q 1853 -78 1343 234 
Q 834 547 571 1087 
Q 309 1628 309 2231 
z
M 934 2222 
Q 934 1394 1379 917 
Q 1825 441 2497 441 
Q 3181 441 3623 922 
Q 4066 1403 4066 2288 
Q 4066 2847 3877 3264 
Q 3688 3681 3323 3911 
Q 2959 4141 2506 4141 
Q 1863 4141 1398 3698 
Q 934 3256 934 2222 
z
" transform="scale(0.015625)"/>
      <path id="ArialMT-54" d="M 1659 0 
L 1659 4041 
L 150 4041 
L 150 4581 
L 3781 4581 
L 3781 4041 
L 2266 4041 
L 2266 0 
L 1659 0 
z
" transform="scale(0.015625)"/>
      <path id="ArialMT-59" d="M 1784 0 
L 1784 1941 
L 19 4581 
L 756 4581 
L 1659 3200 
Q 1909 2813 2125 2425 
Q 2331 2784 2625 3234 
L 3513 4581 
L 4219 4581 
L 2391 1941 
L 2391 0 
L 1784 0 
z
" transform="scale(0.015625)"/>
     </defs>
     <use xlink:href="#ArialMT-4c"/>
     <use xlink:href="#ArialMT-4f" transform="translate(55.615234 0)"/>
     <use xlink:href="#ArialMT-47" transform="translate(133.398438 0)"/>
     <use xlink:href="#ArialMT-54" transform="translate(211.181641 0)"/>
     <use xlink:href="#ArialMT-59" transform="translate(272.265625 0)"/>
     <use xlink:href="#ArialMT-50" transform="translate(338.964844 0)"/>
     <use xlink:href="#ArialMT-45" transform="translate(405.664062 0)"/>
     <use xlink:href="#ArialMT-53" transform="translate(472.363281 0)"/>
    </g>
   </g>
  </g>
  <g id="axes_4">
   <g id="patch_94">
    <path d="M 322.34 289.65 
L 558 289.65 
L 558 186.19 
L 322.34 186.19 
z
" style="fill: #ffffff"/>
   </g>
   <g id="matplotlib.axis_7">
    <g id="xtick_24">
     <g id="text_36">
      <!-- -5.0 -->
      <g style="fill: #262626" transform="translate(325.183672 318.102656) rotate(-90) scale(0.11 -0.11)">
       <use xlink:href="#ArialMT-2d"/>
       <use xlink:href="#ArialMT-35" transform="translate(33.300781 0)"/>
       <use xlink:href="#ArialMT-2e" transform="translate(88.916016 0)"/>
       <use xlink:href="#ArialMT-30" transform="translate(116.699219 0)"/>
      </g>
     </g>
    </g>
    <g id="xtick_25">
     <g id="text_37">
      <!-- -4.0 -->
      <g style="fill: #262626" transform="translate(354.641172 318.102656) rotate(-90) scale(0.11 -0.11)">
       <use xlink:href="#ArialMT-2d"/>
       <use xlink:href="#ArialMT-34" transform="translate(33.300781 0)"/>
       <use xlink:href="#ArialMT-2e" transform="translate(88.916016 0)"/>
       <use xlink:href="#ArialMT-30" transform="translate(116.699219 0)"/>
      </g>
     </g>
    </g>
    <g id="xtick_26">
     <g id="text_38">
      <!-- -3.0 -->
      <g style="fill: #262626" transform="translate(384.098672 318.102656) rotate(-90) scale(0.11 -0.11)">
       <use xlink:href="#ArialMT-2d"/>
       <use xlink:href="#ArialMT-33" transform="translate(33.300781 0)"/>
       <use xlink:href="#ArialMT-2e" transform="translate(88.916016 0)"/>
       <use xlink:href="#ArialMT-30" transform="translate(116.699219 0)"/>
      </g>
     </g>
    </g>
    <g id="xtick_27">
     <g id="text_39">
      <!-- -2.0 -->
      <g style="fill: #262626" transform="translate(413.556172 318.102656) rotate(-90) scale(0.11 -0.11)">
       <use xlink:href="#ArialMT-2d"/>
       <use xlink:href="#ArialMT-32" transform="translate(33.300781 0)"/>
       <use xlink:href="#ArialMT-2e" transform="translate(88.916016 0)"/>
       <use xlink:href="#ArialMT-30" transform="translate(116.699219 0)"/>
      </g>
     </g>
    </g>
    <g id="xtick_28">
     <g id="text_40">
      <!-- -1.0 -->
      <g style="fill: #262626" transform="translate(443.013672 318.102656) rotate(-90) scale(0.11 -0.11)">
       <use xlink:href="#ArialMT-2d"/>
       <use xlink:href="#ArialMT-31" transform="translate(33.300781 0)"/>
       <use xlink:href="#ArialMT-2e" transform="translate(88.916016 0)"/>
       <use xlink:href="#ArialMT-30" transform="translate(116.699219 0)"/>
      </g>
     </g>
    </g>
    <g id="xtick_29">
     <g id="text_41">
      <!-- 0.0 -->
      <g style="fill: #262626" transform="translate(472.471172 314.44) rotate(-90) scale(0.11 -0.11)">
       <use xlink:href="#ArialMT-30"/>
       <use xlink:href="#ArialMT-2e" transform="translate(55.615234 0)"/>
       <use xlink:href="#ArialMT-30" transform="translate(83.398438 0)"/>
      </g>
     </g>
    </g>
    <g id="xtick_30">
     <g id="text_42">
      <!-- 1.0 -->
      <g style="fill: #262626" transform="translate(501.928672 314.44) rotate(-90) scale(0.11 -0.11)">
       <use xlink:href="#ArialMT-31"/>
       <use xlink:href="#ArialMT-2e" transform="translate(55.615234 0)"/>
       <use xlink:href="#ArialMT-30" transform="translate(83.398438 0)"/>
      </g>
     </g>
    </g>
    <g id="xtick_31">
     <g id="text_43">
      <!-- 2.0 -->
      <g style="fill: #262626" transform="translate(531.386172 314.44) rotate(-90) scale(0.11 -0.11)">
       <use xlink:href="#ArialMT-32"/>
       <use xlink:href="#ArialMT-2e" transform="translate(55.615234 0)"/>
       <use xlink:href="#ArialMT-30" transform="translate(83.398438 0)"/>
      </g>
     </g>
    </g>
    <g id="xtick_32">
     <g id="text_44">
      <!-- 3.0 -->
      <g style="fill: #262626" transform="translate(560.843672 314.44) rotate(-90) scale(0.11 -0.11)">
       <use xlink:href="#ArialMT-33"/>
       <use xlink:href="#ArialMT-2e" transform="translate(55.615234 0)"/>
       <use xlink:href="#ArialMT-30" transform="translate(83.398438 0)"/>
      </g>
     </g>
    </g>
   </g>
   <g id="matplotlib.axis_8">
    <g id="ytick_10">
     <g id="text_45">
      <!-- 0 -->
      <g style="fill: #262626" transform="translate(306.722969 293.586797) scale(0.11 -0.11)">
       <use xlink:href="#ArialMT-30"/>
      </g>
     </g>
    </g>
    <g id="ytick_11">
     <g id="text_46">
      <!-- 50 -->
      <g style="fill: #262626" transform="translate(300.605937 257.886314) scale(0.11 -0.11)">
       <use xlink:href="#ArialMT-35"/>
       <use xlink:href="#ArialMT-30" transform="translate(55.615234 0)"/>
      </g>
     </g>
    </g>
    <g id="ytick_12">
     <g id="text_47">
      <!-- 100 -->
      <g style="fill: #262626" transform="translate(294.488906 222.185831) scale(0.11 -0.11)">
       <use xlink:href="#ArialMT-31"/>
       <use xlink:href="#ArialMT-30" transform="translate(55.615234 0)"/>
       <use xlink:href="#ArialMT-30" transform="translate(111.230469 0)"/>
      </g>
     </g>
    </g>
   </g>
   <g id="patch_95">
    <path d="M 344.957507 289.65 
L 351.384161 289.65 
L 351.384161 282.509903 
L 344.957507 282.509903 
z
" clip-path="url(#p9558da4032)" style="fill: #808080; opacity: 0.4; stroke: #ffffff; stroke-linejoin: miter"/>
   </g>
   <g id="patch_96">
    <path d="M 351.384161 289.65 
L 357.810814 289.65 
L 357.810814 288.221981 
L 351.384161 288.221981 
z
" clip-path="url(#p9558da4032)" style="fill: #808080; opacity: 0.4; stroke: #ffffff; stroke-linejoin: miter"/>
   </g>
   <g id="patch_97">
    <path d="M 357.810814 289.65 
L 364.237468 289.65 
L 364.237468 288.93599 
L 357.810814 288.93599 
z
" clip-path="url(#p9558da4032)" style="fill: #808080; opacity: 0.4; stroke: #ffffff; stroke-linejoin: miter"/>
   </g>
   <g id="patch_98">
    <path d="M 364.237468 289.65 
L 370.664122 289.65 
L 370.664122 288.221981 
L 364.237468 288.221981 
z
" clip-path="url(#p9558da4032)" style="fill: #808080; opacity: 0.4; stroke: #ffffff; stroke-linejoin: miter"/>
   </g>
   <g id="patch_99">
    <path d="M 370.664122 289.65 
L 377.090775 289.65 
L 377.090775 286.079952 
L 370.664122 286.079952 
z
" clip-path="url(#p9558da4032)" style="fill: #808080; opacity: 0.4; stroke: #ffffff; stroke-linejoin: miter"/>
   </g>
   <g id="patch_100">
    <path d="M 377.090775 289.65 
L 383.517429 289.65 
L 383.517429 288.93599 
L 377.090775 288.93599 
z
" clip-path="url(#p9558da4032)" style="fill: #808080; opacity: 0.4; stroke: #ffffff; stroke-linejoin: miter"/>
   </g>
   <g id="patch_101">
    <path d="M 383.517429 289.65 
L 389.944083 289.65 
L 389.944083 286.793961 
L 383.517429 286.793961 
z
" clip-path="url(#p9558da4032)" style="fill: #808080; opacity: 0.4; stroke: #ffffff; stroke-linejoin: miter"/>
   </g>
   <g id="patch_102">
    <path d="M 389.944083 289.65 
L 396.370736 289.65 
L 396.370736 283.223913 
L 389.944083 283.223913 
z
" clip-path="url(#p9558da4032)" style="fill: #808080; opacity: 0.4; stroke: #ffffff; stroke-linejoin: miter"/>
   </g>
   <g id="patch_103">
    <path d="M 396.370736 289.65 
L 402.79739 289.65 
L 402.79739 285.365942 
L 396.370736 285.365942 
z
" clip-path="url(#p9558da4032)" style="fill: #808080; opacity: 0.4; stroke: #ffffff; stroke-linejoin: miter"/>
   </g>
   <g id="patch_104">
    <path d="M 402.79739 289.65 
L 409.224044 289.65 
L 409.224044 284.651932 
L 402.79739 284.651932 
z
" clip-path="url(#p9558da4032)" style="fill: #808080; opacity: 0.4; stroke: #ffffff; stroke-linejoin: miter"/>
   </g>
   <g id="patch_105">
    <path d="M 409.224044 289.65 
L 415.650697 289.65 
L 415.650697 282.509903 
L 409.224044 282.509903 
z
" clip-path="url(#p9558da4032)" style="fill: #808080; opacity: 0.4; stroke: #ffffff; stroke-linejoin: miter"/>
   </g>
   <g id="patch_106">
    <path d="M 415.650697 289.65 
L 422.077351 289.65 
L 422.077351 277.511836 
L 415.650697 277.511836 
z
" clip-path="url(#p9558da4032)" style="fill: #808080; opacity: 0.4; stroke: #ffffff; stroke-linejoin: miter"/>
   </g>
   <g id="patch_107">
    <path d="M 422.077351 289.65 
L 428.504005 289.65 
L 428.504005 275.369807 
L 422.077351 275.369807 
z
" clip-path="url(#p9558da4032)" style="fill: #808080; opacity: 0.4; stroke: #ffffff; stroke-linejoin: miter"/>
   </g>
   <g id="patch_108">
    <path d="M 428.504005 289.65 
L 434.930658 289.65 
L 434.930658 268.22971 
L 428.504005 268.22971 
z
" clip-path="url(#p9558da4032)" style="fill: #808080; opacity: 0.4; stroke: #ffffff; stroke-linejoin: miter"/>
   </g>
   <g id="patch_109">
    <path d="M 434.930658 289.65 
L 441.357312 289.65 
L 441.357312 263.945652 
L 434.930658 263.945652 
z
" clip-path="url(#p9558da4032)" style="fill: #808080; opacity: 0.4; stroke: #ffffff; stroke-linejoin: miter"/>
   </g>
   <g id="patch_110">
    <path d="M 441.357312 289.65 
L 447.783966 289.65 
L 447.783966 247.52343 
L 441.357312 247.52343 
z
" clip-path="url(#p9558da4032)" style="fill: #808080; opacity: 0.4; stroke: #ffffff; stroke-linejoin: miter"/>
   </g>
   <g id="patch_111">
    <path d="M 447.783966 289.65 
L 454.210619 289.65 
L 454.210619 234.671256 
L 447.783966 234.671256 
z
" clip-path="url(#p9558da4032)" style="fill: #808080; opacity: 0.4; stroke: #ffffff; stroke-linejoin: miter"/>
   </g>
   <g id="patch_112">
    <path d="M 454.210619 289.65 
L 460.637273 289.65 
L 460.637273 243.239372 
L 454.210619 243.239372 
z
" clip-path="url(#p9558da4032)" style="fill: #808080; opacity: 0.4; stroke: #ffffff; stroke-linejoin: miter"/>
   </g>
   <g id="patch_113">
    <path d="M 460.637273 289.65 
L 467.063927 289.65 
L 467.063927 219.677053 
L 460.637273 219.677053 
z
" clip-path="url(#p9558da4032)" style="fill: #808080; opacity: 0.4; stroke: #ffffff; stroke-linejoin: miter"/>
   </g>
   <g id="patch_114">
    <path d="M 467.063927 289.65 
L 473.49058 289.65 
L 473.49058 206.11087 
L 467.063927 206.11087 
z
" clip-path="url(#p9558da4032)" style="fill: #808080; opacity: 0.4; stroke: #ffffff; stroke-linejoin: miter"/>
   </g>
   <g id="patch_115">
    <path d="M 473.49058 289.65 
L 479.917234 289.65 
L 479.917234 197.542754 
L 473.49058 197.542754 
z
" clip-path="url(#p9558da4032)" style="fill: #808080; opacity: 0.4; stroke: #ffffff; stroke-linejoin: miter"/>
   </g>
   <g id="patch_116">
    <path d="M 479.917234 289.65 
L 486.343888 289.65 
L 486.343888 191.116667 
L 479.917234 191.116667 
z
" clip-path="url(#p9558da4032)" style="fill: #808080; opacity: 0.4; stroke: #ffffff; stroke-linejoin: miter"/>
   </g>
   <g id="patch_117">
    <path d="M 486.343888 289.65 
L 492.770541 289.65 
L 492.770541 205.39686 
L 486.343888 205.39686 
z
" clip-path="url(#p9558da4032)" style="fill: #808080; opacity: 0.4; stroke: #ffffff; stroke-linejoin: miter"/>
   </g>
   <g id="patch_118">
    <path d="M 492.770541 289.65 
L 499.197195 289.65 
L 499.197195 230.387198 
L 492.770541 230.387198 
z
" clip-path="url(#p9558da4032)" style="fill: #808080; opacity: 0.4; stroke: #ffffff; stroke-linejoin: miter"/>
   </g>
   <g id="patch_119">
    <path d="M 499.197195 289.65 
L 505.623849 289.65 
L 505.623849 228.959179 
L 499.197195 228.959179 
z
" clip-path="url(#p9558da4032)" style="fill: #808080; opacity: 0.4; stroke: #ffffff; stroke-linejoin: miter"/>
   </g>
   <g id="patch_120">
    <path d="M 505.623849 289.65 
L 512.050502 289.65 
L 512.050502 266.087681 
L 505.623849 266.087681 
z
" clip-path="url(#p9558da4032)" style="fill: #808080; opacity: 0.4; stroke: #ffffff; stroke-linejoin: miter"/>
   </g>
   <g id="patch_121">
    <path d="M 512.050502 289.65 
L 518.477156 289.65 
L 518.477156 276.083816 
L 512.050502 276.083816 
z
" clip-path="url(#p9558da4032)" style="fill: #808080; opacity: 0.4; stroke: #ffffff; stroke-linejoin: miter"/>
   </g>
   <g id="patch_122">
    <path d="M 518.477156 289.65 
L 524.90381 289.65 
L 524.90381 283.223913 
L 518.477156 283.223913 
z
" clip-path="url(#p9558da4032)" style="fill: #808080; opacity: 0.4; stroke: #ffffff; stroke-linejoin: miter"/>
   </g>
   <g id="patch_123">
    <path d="M 524.90381 289.65 
L 531.330463 289.65 
L 531.330463 286.079952 
L 524.90381 286.079952 
z
" clip-path="url(#p9558da4032)" style="fill: #808080; opacity: 0.4; stroke: #ffffff; stroke-linejoin: miter"/>
   </g>
   <g id="patch_124">
    <path d="M 322.34 289.65 
L 322.34 186.19 
" style="fill: none; stroke: #262626; stroke-width: 1.25; stroke-linejoin: miter; stroke-linecap: square"/>
   </g>
   <g id="patch_125">
    <path d="M 322.34 289.65 
L 558 289.65 
" style="fill: none; stroke: #262626; stroke-width: 1.25; stroke-linejoin: miter; stroke-linecap: square"/>
   </g>
   <g id="text_48">
    <!-- LOGWORDS -->
    <g style="fill: #262626" transform="translate(404.500937 180.19) scale(0.12 -0.12)">
     <defs>
      <path id="ArialMT-52" d="M 503 0 
L 503 4581 
L 2534 4581 
Q 3147 4581 3465 4457 
Q 3784 4334 3975 4021 
Q 4166 3709 4166 3331 
Q 4166 2844 3850 2509 
Q 3534 2175 2875 2084 
Q 3116 1969 3241 1856 
Q 3506 1613 3744 1247 
L 4541 0 
L 3778 0 
L 3172 953 
Q 2906 1366 2734 1584 
Q 2563 1803 2427 1890 
Q 2291 1978 2150 2013 
Q 2047 2034 1813 2034 
L 1109 2034 
L 1109 0 
L 503 0 
z
M 1109 2559 
L 2413 2559 
Q 2828 2559 3062 2645 
Q 3297 2731 3419 2920 
Q 3541 3109 3541 3331 
Q 3541 3656 3305 3865 
Q 3069 4075 2559 4075 
L 1109 4075 
L 1109 2559 
z
" transform="scale(0.015625)"/>
     </defs>
     <use xlink:href="#ArialMT-4c"/>
     <use xlink:href="#ArialMT-4f" transform="translate(55.615234 0)"/>
     <use xlink:href="#ArialMT-47" transform="translate(133.398438 0)"/>
     <use xlink:href="#ArialMT-57" transform="translate(211.181641 0)"/>
     <use xlink:href="#ArialMT-4f" transform="translate(305.566406 0)"/>
     <use xlink:href="#ArialMT-52" transform="translate(383.349609 0)"/>
     <use xlink:href="#ArialMT-44" transform="translate(455.566406 0)"/>
     <use xlink:href="#ArialMT-53" transform="translate(527.783203 0)"/>
    </g>
   </g>
  </g>
  <g id="axes_5">
   <g id="patch_126">
    <path d="M 40.82 448.24 
L 276.48 448.24 
L 276.48 344.78 
L 40.82 344.78 
z
" style="fill: #ffffff"/>
   </g>
   <g id="matplotlib.axis_9">
    <g id="xtick_33">
     <g id="text_49">
      <!-- 0.0 -->
      <g style="fill: #262626" transform="translate(43.663672 473.03) rotate(-90) scale(0.11 -0.11)">
       <use xlink:href="#ArialMT-30"/>
       <use xlink:href="#ArialMT-2e" transform="translate(55.615234 0)"/>
       <use xlink:href="#ArialMT-30" transform="translate(83.398438 0)"/>
      </g>
     </g>
    </g>
    <g id="xtick_34">
     <g id="text_50">
      <!-- 1.0 -->
      <g style="fill: #262626" transform="translate(77.329386 473.03) rotate(-90) scale(0.11 -0.11)">
       <use xlink:href="#ArialMT-31"/>
       <use xlink:href="#ArialMT-2e" transform="translate(55.615234 0)"/>
       <use xlink:href="#ArialMT-30" transform="translate(83.398438 0)"/>
      </g>
     </g>
    </g>
    <g id="xtick_35">
     <g id="text_51">
      <!-- 2.0 -->
      <g style="fill: #262626" transform="translate(110.9951 473.03) rotate(-90) scale(0.11 -0.11)">
       <use xlink:href="#ArialMT-32"/>
       <use xlink:href="#ArialMT-2e" transform="translate(55.615234 0)"/>
       <use xlink:href="#ArialMT-30" transform="translate(83.398438 0)"/>
      </g>
     </g>
    </g>
    <g id="xtick_36">
     <g id="text_52">
      <!-- 3.0 -->
      <g style="fill: #262626" transform="translate(144.660815 473.03) rotate(-90) scale(0.11 -0.11)">
       <use xlink:href="#ArialMT-33"/>
       <use xlink:href="#ArialMT-2e" transform="translate(55.615234 0)"/>
       <use xlink:href="#ArialMT-30" transform="translate(83.398438 0)"/>
      </g>
     </g>
    </g>
    <g id="xtick_37">
     <g id="text_53">
      <!-- 4.0 -->
      <g style="fill: #262626" transform="translate(178.326529 473.03) rotate(-90) scale(0.11 -0.11)">
       <use xlink:href="#ArialMT-34"/>
       <use xlink:href="#ArialMT-2e" transform="translate(55.615234 0)"/>
       <use xlink:href="#ArialMT-30" transform="translate(83.398438 0)"/>
      </g>
     </g>
    </g>
    <g id="xtick_38">
     <g id="text_54">
      <!-- 5.0 -->
      <g style="fill: #262626" transform="translate(211.992243 473.03) rotate(-90) scale(0.11 -0.11)">
       <use xlink:href="#ArialMT-35"/>
       <use xlink:href="#ArialMT-2e" transform="translate(55.615234 0)"/>
       <use xlink:href="#ArialMT-30" transform="translate(83.398438 0)"/>
      </g>
     </g>
    </g>
    <g id="xtick_39">
     <g id="text_55">
      <!-- 6.0 -->
      <g style="fill: #262626" transform="translate(245.657958 473.03) rotate(-90) scale(0.11 -0.11)">
       <use xlink:href="#ArialMT-36"/>
       <use xlink:href="#ArialMT-2e" transform="translate(55.615234 0)"/>
       <use xlink:href="#ArialMT-30" transform="translate(83.398438 0)"/>
      </g>
     </g>
    </g>
    <g id="xtick_40">
     <g id="text_56">
      <!-- 7.0 -->
      <g style="fill: #262626" transform="translate(279.323672 473.03) rotate(-90) scale(0.11 -0.11)">
       <defs>
        <path id="ArialMT-37" d="M 303 3981 
L 303 4522 
L 3269 4522 
L 3269 4084 
Q 2831 3619 2401 2847 
Q 1972 2075 1738 1259 
Q 1569 684 1522 0 
L 944 0 
Q 953 541 1156 1306 
Q 1359 2072 1739 2783 
Q 2119 3494 2547 3981 
L 303 3981 
z
" transform="scale(0.015625)"/>
       </defs>
       <use xlink:href="#ArialMT-37"/>
       <use xlink:href="#ArialMT-2e" transform="translate(55.615234 0)"/>
       <use xlink:href="#ArialMT-30" transform="translate(83.398438 0)"/>
      </g>
     </g>
    </g>
   </g>
   <g id="matplotlib.axis_10">
    <g id="ytick_13">
     <g id="text_57">
      <!-- 0 -->
      <g style="fill: #262626" transform="translate(25.202969 452.176797) scale(0.11 -0.11)">
       <use xlink:href="#ArialMT-30"/>
      </g>
     </g>
    </g>
    <g id="ytick_14">
     <g id="text_58">
      <!-- 200 -->
      <g style="fill: #262626" transform="translate(12.968906 420.796754) scale(0.11 -0.11)">
       <use xlink:href="#ArialMT-32"/>
       <use xlink:href="#ArialMT-30" transform="translate(55.615234 0)"/>
       <use xlink:href="#ArialMT-30" transform="translate(111.230469 0)"/>
      </g>
     </g>
    </g>
    <g id="ytick_15">
     <g id="text_59">
      <!-- 400 -->
      <g style="fill: #262626" transform="translate(12.968906 389.416712) scale(0.11 -0.11)">
       <use xlink:href="#ArialMT-34"/>
       <use xlink:href="#ArialMT-30" transform="translate(55.615234 0)"/>
       <use xlink:href="#ArialMT-30" transform="translate(111.230469 0)"/>
      </g>
     </g>
    </g>
    <g id="ytick_16">
     <g id="text_60">
      <!-- 600 -->
      <g style="fill: #262626" transform="translate(12.968906 358.036669) scale(0.11 -0.11)">
       <use xlink:href="#ArialMT-36"/>
       <use xlink:href="#ArialMT-30" transform="translate(55.615234 0)"/>
       <use xlink:href="#ArialMT-30" transform="translate(111.230469 0)"/>
      </g>
     </g>
    </g>
   </g>
   <g id="patch_127">
    <path d="M 74.485714 448.24 
L 80.720106 448.24 
L 80.720106 447.141699 
L 74.485714 447.141699 
z
" clip-path="url(#pfde8d14fb0)" style="fill: #808080; opacity: 0.4; stroke: #ffffff; stroke-linejoin: miter"/>
   </g>
   <g id="patch_128">
    <path d="M 80.720106 448.24 
L 86.954497 448.24 
L 86.954497 448.24 
L 80.720106 448.24 
z
" clip-path="url(#pfde8d14fb0)" style="fill: #808080; opacity: 0.4; stroke: #ffffff; stroke-linejoin: miter"/>
   </g>
   <g id="patch_129">
    <path d="M 86.954497 448.24 
L 93.188889 448.24 
L 93.188889 448.24 
L 86.954497 448.24 
z
" clip-path="url(#pfde8d14fb0)" style="fill: #808080; opacity: 0.4; stroke: #ffffff; stroke-linejoin: miter"/>
   </g>
   <g id="patch_130">
    <path d="M 93.188889 448.24 
L 99.42328 448.24 
L 99.42328 448.24 
L 93.188889 448.24 
z
" clip-path="url(#pfde8d14fb0)" style="fill: #808080; opacity: 0.4; stroke: #ffffff; stroke-linejoin: miter"/>
   </g>
   <g id="patch_131">
    <path d="M 99.42328 448.24 
L 105.657672 448.24 
L 105.657672 448.24 
L 99.42328 448.24 
z
" clip-path="url(#pfde8d14fb0)" style="fill: #808080; opacity: 0.4; stroke: #ffffff; stroke-linejoin: miter"/>
   </g>
   <g id="patch_132">
    <path d="M 105.657672 448.24 
L 111.892063 448.24 
L 111.892063 445.415796 
L 105.657672 445.415796 
z
" clip-path="url(#pfde8d14fb0)" style="fill: #808080; opacity: 0.4; stroke: #ffffff; stroke-linejoin: miter"/>
   </g>
   <g id="patch_133">
    <path d="M 111.892063 448.24 
L 118.126455 448.24 
L 118.126455 448.24 
L 111.892063 448.24 
z
" clip-path="url(#pfde8d14fb0)" style="fill: #808080; opacity: 0.4; stroke: #ffffff; stroke-linejoin: miter"/>
   </g>
   <g id="patch_134">
    <path d="M 118.126455 448.24 
L 124.360847 448.24 
L 124.360847 448.24 
L 118.126455 448.24 
z
" clip-path="url(#pfde8d14fb0)" style="fill: #808080; opacity: 0.4; stroke: #ffffff; stroke-linejoin: miter"/>
   </g>
   <g id="patch_135">
    <path d="M 124.360847 448.24 
L 130.595238 448.24 
L 130.595238 448.24 
L 124.360847 448.24 
z
" clip-path="url(#pfde8d14fb0)" style="fill: #808080; opacity: 0.4; stroke: #ffffff; stroke-linejoin: miter"/>
   </g>
   <g id="patch_136">
    <path d="M 130.595238 448.24 
L 136.82963 448.24 
L 136.82963 448.24 
L 130.595238 448.24 
z
" clip-path="url(#pfde8d14fb0)" style="fill: #808080; opacity: 0.4; stroke: #ffffff; stroke-linejoin: miter"/>
   </g>
   <g id="patch_137">
    <path d="M 136.82963 448.24 
L 143.064021 448.24 
L 143.064021 428.313673 
L 136.82963 428.313673 
z
" clip-path="url(#pfde8d14fb0)" style="fill: #808080; opacity: 0.4; stroke: #ffffff; stroke-linejoin: miter"/>
   </g>
   <g id="patch_138">
    <path d="M 143.064021 448.24 
L 149.298413 448.24 
L 149.298413 448.24 
L 143.064021 448.24 
z
" clip-path="url(#pfde8d14fb0)" style="fill: #808080; opacity: 0.4; stroke: #ffffff; stroke-linejoin: miter"/>
   </g>
   <g id="patch_139">
    <path d="M 149.298413 448.24 
L 155.532804 448.24 
L 155.532804 448.24 
L 149.298413 448.24 
z
" clip-path="url(#pfde8d14fb0)" style="fill: #808080; opacity: 0.4; stroke: #ffffff; stroke-linejoin: miter"/>
   </g>
   <g id="patch_140">
    <path d="M 155.532804 448.24 
L 161.767196 448.24 
L 161.767196 448.24 
L 155.532804 448.24 
z
" clip-path="url(#pfde8d14fb0)" style="fill: #808080; opacity: 0.4; stroke: #ffffff; stroke-linejoin: miter"/>
   </g>
   <g id="patch_141">
    <path d="M 161.767196 448.24 
L 168.001587 448.24 
L 168.001587 448.24 
L 161.767196 448.24 
z
" clip-path="url(#pfde8d14fb0)" style="fill: #808080; opacity: 0.4; stroke: #ffffff; stroke-linejoin: miter"/>
   </g>
   <g id="patch_142">
    <path d="M 168.001587 448.24 
L 174.235979 448.24 
L 174.235979 448.24 
L 168.001587 448.24 
z
" clip-path="url(#pfde8d14fb0)" style="fill: #808080; opacity: 0.4; stroke: #ffffff; stroke-linejoin: miter"/>
   </g>
   <g id="patch_143">
    <path d="M 174.235979 448.24 
L 180.47037 448.24 
L 180.47037 349.706667 
L 174.235979 349.706667 
z
" clip-path="url(#pfde8d14fb0)" style="fill: #808080; opacity: 0.4; stroke: #ffffff; stroke-linejoin: miter"/>
   </g>
   <g id="patch_144">
    <path d="M 180.47037 448.24 
L 186.704762 448.24 
L 186.704762 448.24 
L 180.47037 448.24 
z
" clip-path="url(#pfde8d14fb0)" style="fill: #808080; opacity: 0.4; stroke: #ffffff; stroke-linejoin: miter"/>
   </g>
   <g id="patch_145">
    <path d="M 186.704762 448.24 
L 192.939153 448.24 
L 192.939153 448.24 
L 186.704762 448.24 
z
" clip-path="url(#pfde8d14fb0)" style="fill: #808080; opacity: 0.4; stroke: #ffffff; stroke-linejoin: miter"/>
   </g>
   <g id="patch_146">
    <path d="M 192.939153 448.24 
L 199.173545 448.24 
L 199.173545 448.24 
L 192.939153 448.24 
z
" clip-path="url(#pfde8d14fb0)" style="fill: #808080; opacity: 0.4; stroke: #ffffff; stroke-linejoin: miter"/>
   </g>
   <g id="patch_147">
    <path d="M 199.173545 448.24 
L 205.407937 448.24 
L 205.407937 448.24 
L 199.173545 448.24 
z
" clip-path="url(#pfde8d14fb0)" style="fill: #808080; opacity: 0.4; stroke: #ffffff; stroke-linejoin: miter"/>
   </g>
   <g id="patch_148">
    <path d="M 205.407937 448.24 
L 211.642328 448.24 
L 211.642328 395.050828 
L 205.407937 395.050828 
z
" clip-path="url(#pfde8d14fb0)" style="fill: #808080; opacity: 0.4; stroke: #ffffff; stroke-linejoin: miter"/>
   </g>
   <g id="patch_149">
    <path d="M 211.642328 448.24 
L 217.87672 448.24 
L 217.87672 448.24 
L 211.642328 448.24 
z
" clip-path="url(#pfde8d14fb0)" style="fill: #808080; opacity: 0.4; stroke: #ffffff; stroke-linejoin: miter"/>
   </g>
   <g id="patch_150">
    <path d="M 217.87672 448.24 
L 224.111111 448.24 
L 224.111111 448.24 
L 217.87672 448.24 
z
" clip-path="url(#pfde8d14fb0)" style="fill: #808080; opacity: 0.4; stroke: #ffffff; stroke-linejoin: miter"/>
   </g>
   <g id="patch_151">
    <path d="M 224.111111 448.24 
L 230.345503 448.24 
L 230.345503 448.24 
L 224.111111 448.24 
z
" clip-path="url(#pfde8d14fb0)" style="fill: #808080; opacity: 0.4; stroke: #ffffff; stroke-linejoin: miter"/>
   </g>
   <g id="patch_152">
    <path d="M 230.345503 448.24 
L 236.579894 448.24 
L 236.579894 448.24 
L 230.345503 448.24 
z
" clip-path="url(#pfde8d14fb0)" style="fill: #808080; opacity: 0.4; stroke: #ffffff; stroke-linejoin: miter"/>
   </g>
   <g id="patch_153">
    <path d="M 236.579894 448.24 
L 242.814286 448.24 
L 242.814286 436.315584 
L 236.579894 436.315584 
z
" clip-path="url(#pfde8d14fb0)" style="fill: #808080; opacity: 0.4; stroke: #ffffff; stroke-linejoin: miter"/>
   </g>
   <g id="patch_154">
    <path d="M 40.82 448.24 
L 40.82 344.78 
" style="fill: none; stroke: #262626; stroke-width: 1.25; stroke-linejoin: miter; stroke-linecap: square"/>
   </g>
   <g id="patch_155">
    <path d="M 40.82 448.24 
L 276.48 448.24 
" style="fill: none; stroke: #262626; stroke-width: 1.25; stroke-linejoin: miter; stroke-linecap: square"/>
   </g>
   <g id="text_61">
    <!-- sc1 -->
    <g style="fill: #262626" transform="translate(149.313438 338.78) scale(0.12 -0.12)">
     <defs>
      <path id="ArialMT-73" d="M 197 991 
L 753 1078 
Q 800 744 1014 566 
Q 1228 388 1613 388 
Q 2000 388 2187 545 
Q 2375 703 2375 916 
Q 2375 1106 2209 1216 
Q 2094 1291 1634 1406 
Q 1016 1563 777 1677 
Q 538 1791 414 1992 
Q 291 2194 291 2438 
Q 291 2659 392 2848 
Q 494 3038 669 3163 
Q 800 3259 1026 3326 
Q 1253 3394 1513 3394 
Q 1903 3394 2198 3281 
Q 2494 3169 2634 2976 
Q 2775 2784 2828 2463 
L 2278 2388 
Q 2241 2644 2061 2787 
Q 1881 2931 1553 2931 
Q 1166 2931 1000 2803 
Q 834 2675 834 2503 
Q 834 2394 903 2306 
Q 972 2216 1119 2156 
Q 1203 2125 1616 2013 
Q 2213 1853 2448 1751 
Q 2684 1650 2818 1456 
Q 2953 1263 2953 975 
Q 2953 694 2789 445 
Q 2625 197 2315 61 
Q 2006 -75 1616 -75 
Q 969 -75 630 194 
Q 291 463 197 991 
z
" transform="scale(0.015625)"/>
      <path id="ArialMT-63" d="M 2588 1216 
L 3141 1144 
Q 3050 572 2676 248 
Q 2303 -75 1759 -75 
Q 1078 -75 664 370 
Q 250 816 250 1647 
Q 250 2184 428 2587 
Q 606 2991 970 3192 
Q 1334 3394 1763 3394 
Q 2303 3394 2647 3120 
Q 2991 2847 3088 2344 
L 2541 2259 
Q 2463 2594 2264 2762 
Q 2066 2931 1784 2931 
Q 1359 2931 1093 2626 
Q 828 2322 828 1663 
Q 828 994 1084 691 
Q 1341 388 1753 388 
Q 2084 388 2306 591 
Q 2528 794 2588 1216 
z
" transform="scale(0.015625)"/>
     </defs>
     <use xlink:href="#ArialMT-73"/>
     <use xlink:href="#ArialMT-63" transform="translate(50 0)"/>
     <use xlink:href="#ArialMT-31" transform="translate(100 0)"/>
    </g>
   </g>
  </g>
 </g>
 <defs>
  <clipPath id="pf4b44dcd51">
   <rect x="40.82" y="27.6" width="235.66" height="103.46"/>
  </clipPath>
  <clipPath id="p5ba0fa367c">
   <rect x="322.34" y="27.6" width="235.66" height="103.46"/>
  </clipPath>
  <clipPath id="p3be9e82807">
   <rect x="40.82" y="186.19" width="235.66" height="103.46"/>
  </clipPath>
  <clipPath id="p9558da4032">
   <rect x="322.34" y="186.19" width="235.66" height="103.46"/>
  </clipPath>
  <clipPath id="pfde8d14fb0">
   <rect x="40.82" y="344.78" width="235.66" height="103.46"/>
  </clipPath>
 </defs>
</svg>
